<?xml version="1.0" encoding="utf-8"?>
<!-- Generator: Adobe Illustrator 19.0.0, SVG Export Plug-In . SVG Version: 6.00 Build 0)  -->
<svg version="1.1" id="Layer_1" xmlns="http://www.w3.org/2000/svg" xmlns:xlink="http://www.w3.org/1999/xlink" x="0px" y="0px"
	 viewBox="-272 395.9 50 50" style="enable-background:new -272 395.9 50 50;" xml:space="preserve">
<style type="text/css">
	.st0{fill:url(#SVGID_1_);}
	.st1{fill:#5E813E;}
	.st2{fill:url(#SVGID_2_);}
	.st3{fill:url(#SVGID_3_);}
	.st4{fill:url(#SVGID_4_);}
	.st5{fill:#783B2C;}
	.st6{fill:#FFD96D;}
	.st7{fill:url(#SVGID_5_);}
	.st8{fill:#C12C26;}
	.st9{fill:url(#SVGID_6_);}
	.st10{fill:url(#SVGID_7_);}
	.st11{fill:url(#SVGID_8_);}
	.st12{fill:url(#SVGID_9_);}
	.st13{fill:url(#SVGID_10_);}
	.st14{fill:url(#SVGID_11_);}
	.st15{fill:url(#SVGID_12_);}
	.st16{fill:url(#SVGID_13_);}
	.st17{fill:url(#SVGID_14_);}
	.st18{fill:url(#SVGID_15_);}
	.st19{fill:url(#SVGID_16_);}
	.st20{fill:url(#SVGID_17_);}
	.st21{fill:url(#SVGID_18_);}
	.st22{fill:url(#SVGID_19_);}
	.st23{fill:url(#SVGID_20_);}
	.st24{fill:url(#SVGID_21_);}
	.st25{fill:url(#SVGID_22_);}
	.st26{fill:url(#SVGID_23_);}
	.st27{fill:url(#SVGID_24_);}
	.st28{fill:url(#SVGID_25_);}
	.st29{fill:url(#SVGID_26_);}
	.st30{fill:url(#SVGID_27_);}
	.st31{fill:url(#SVGID_28_);}
	.st32{fill:url(#SVGID_29_);}
	.st33{fill:url(#SVGID_30_);}
	.st34{fill:url(#SVGID_31_);}
	.st35{fill:url(#SVGID_32_);}
	.st36{fill:url(#SVGID_33_);}
	.st37{fill:url(#SVGID_34_);}
	.st38{fill:url(#SVGID_35_);}
	.st39{fill:url(#SVGID_36_);}
	.st40{fill:url(#SVGID_37_);}
	.st41{fill:url(#SVGID_38_);}
	.st42{fill:url(#SVGID_39_);}
	.st43{fill:url(#SVGID_40_);}
	.st44{fill:url(#SVGID_41_);}
	.st45{fill:url(#SVGID_42_);}
	.st46{fill:url(#SVGID_43_);}
	.st47{fill:url(#SVGID_44_);}
	.st48{fill:url(#SVGID_45_);}
	.st49{fill:url(#SVGID_46_);}
	.st50{fill:url(#SVGID_47_);}
	.st51{fill:url(#SVGID_48_);}
	.st52{fill:url(#SVGID_49_);}
	.st53{fill:url(#SVGID_50_);}
	.st54{fill:url(#SVGID_51_);}
</style>
<g id="Layer_3">
</g>
<g id="Layer_1_1_">
</g>
<g>
	<linearGradient id="SVGID_1_" gradientUnits="userSpaceOnUse" x1="-246.1845" y1="422.4754" x2="-246.1845" y2="440.0386">
		<stop  offset="0" style="stop-color:#FFDC9D"/>
		<stop  offset="0.6966" style="stop-color:#F2A35D"/>
		<stop  offset="0.9888" style="stop-color:#CE602B"/>
	</linearGradient>
	<path class="st0" d="M-226.9,433.8c-0.4,0.8-1.2,0.9-1.4,1c-8.3,2.2-24.2,1.9-35.5,0c-0.2,0-1.3,0.1-1.7-1.3
		c-0.4-1.4-1.1-5.1-1.1-5.1c0-0.2,0.2-0.3,0.4-0.3h40.3c0.2,0,0.4,0.1,0.4,0.3C-225.7,428.4-226.6,433-226.9,433.8z"/>
	<g>
		<g>
			<path class="st1" d="M-244.7,430.8c0,0-0.6,0.9-1,0.9c-0.4,0-4-0.9-4.6-0.9c-0.6,0,3.4-0.9,3.9-0.9
				C-245.9,429.8-244.7,430.8-244.7,430.8z"/>
			<path class="st1" d="M-261.8,432c0,0,1.7-1.8,2.7-1.4c1,0.4-2.4-1-2.4-1l-1.2,0.9L-261.8,432z"/>
			<path class="st1" d="M-267.5,428.5c0,0-0.4,1.5-0.1,1.6c0.3,0.1,2.1-0.3,3,0.5c0.9,0.7,1.4,1.3,1.3,0.4c-0.1-0.9-1.9-3.1-2.5-3.1
				S-267.5,428.5-267.5,428.5z"/>
			
				<linearGradient id="SVGID_2_" gradientUnits="userSpaceOnUse" x1="-259.918" y1="465.5767" x2="-259.918" y2="458.2032" gradientTransform="matrix(1.0473 0 0 0.6554 15.7102 126.6713)">
				<stop  offset="1.648350e-002" style="stop-color:#C6DB61"/>
				<stop  offset="0.5659" style="stop-color:#81A03F"/>
			</linearGradient>
			<path class="st2" d="M-266.8,426.1c0,0-3.7,1.9-3.2,2.6c0.5,0.7,1.2,1.5,1.6,0.7c0.4-0.9,0.3,0.1,0.5,0.3
				c0.2,0.2-0.1,0.2,0.3,0.3c0.4,0.1,0.2-0.6,0.8-0.7c0.6-0.1,1.6-0.3,1.5,0c-0.1,0.3,0.3,3.7,1,3.6c0.8-0.1,1.5,0.2,1.9-0.2
				c0.3-0.4,0.9-0.5,0.9-0.9c-0.1-0.5-0.9-1.1-0.6-1.3c0.3-0.2,0.6-0.5,1-0.1c0.4,0.4,0.8,1.2,1.3,1.1c0.5-0.1,0.8,0.1,1.3,0
				c0.6-0.1,1.7,0.4,2-0.1c0.3-0.5,1.4-1,1.7-0.7c0.2,0.3,0.5,1.5,0.5,1.5s1.4,0.5,2.5-0.1c1.1-0.6,0.6-1.4,1.9-1.3
				c1.3,0.1,0.9,0.1,1.9-0.1c1-0.2,1.2-0.3,1.4,0.1c0.3,0.5,0.6,0.9,1.2,0.7c0.5-0.1,1.8,0.3,1.9-0.7c0.1-1,1.3-1.7-0.6-2.5
				c-1.9-0.8-7.6-1.5-8.9-1.7C-254.1,426.5-266.2,425.4-266.8,426.1z"/>
		</g>
		<g>
			<path class="st1" d="M-250.1,429.3c0,0,0.6,0.9,1,0.9c0.4,0,4-0.8,4.6-0.8c0.6,0-3.3-0.9-3.9-1
				C-248.9,428.3-250.1,429.3-250.1,429.3z"/>
			<path class="st1" d="M-233,430.8c0,0-1.6-1.8-2.6-1.4c-1,0.4,2.4-1,2.4-1l1.2,0.9L-233,430.8z"/>
			<path class="st1" d="M-227.3,427.3c0,0,0.4,1.5,0,1.6c-0.3,0.1-2.1-0.3-3,0.4c-0.9,0.7-1.5,1.2-1.3,0.4c0.1-0.9,2-3,2.6-3
				C-228.3,426.7-227.3,427.3-227.3,427.3z"/>
			
				<linearGradient id="SVGID_3_" gradientUnits="userSpaceOnUse" x1="-902.3761" y1="457.6678" x2="-902.3761" y2="451.0179" gradientTransform="matrix(-1.0471 -1.270000e-002 -2.020000e-002 0.6553 -1173.9839 119.2549)">
				<stop  offset="1.648350e-002" style="stop-color:#C6DB61"/>
				<stop  offset="0.5659" style="stop-color:#81A03F"/>
			</linearGradient>
			<path class="st3" d="M-226.9,426.1c0,0,2.5,0.8,2.1,1.5c-0.5,0.7-1.2,1.5-1.6,0.6c-0.4-0.9,0-0.3-0.2-0.1
				c-0.2,0.2-0.2,0.6-0.6,0.8c-0.4,0.1-0.2-0.6-0.8-0.7c-0.6-0.1-1.6-0.4-1.5,0c0.1,0.3-0.4,3.7-1.1,3.6c-0.7-0.1-1.5,0.2-1.8-0.2
				c-0.3-0.4-0.9-0.5-0.8-0.9c0.1-0.5,0.9-1.1,0.6-1.3c-0.3-0.2-0.6-0.5-1-0.1c-0.4,0.4-0.8,1.2-1.3,1.1c-0.5-0.1-0.8,0.1-1.3,0
				c-0.6-0.1-1.7,0.4-2-0.1c-0.3-0.5-1.4-1-1.7-0.7c-0.2,0.3-0.5,1.5-0.5,1.5s-1.5,0.4-2.5-0.2c-1.1-0.6-0.5-1.4-1.8-1.4
				c-1.3,0-0.9,0.1-1.9-0.1c-1-0.2-1.1-0.4-1.4,0.1c-0.3,0.5-0.7,0.9-1.2,0.7c-0.5-0.1-1.8,0.2-1.9-0.8c-0.1-1-1.2-1.8,0.6-2.5
				c1.9-0.8,7.7-1.4,8.9-1.6C-240.6,425.2-227.4,425.4-226.9,426.1z"/>
		</g>
	</g>
	<g>
		<g>
			<g>
				
					<linearGradient id="SVGID_4_" gradientUnits="userSpaceOnUse" x1="-407.9733" y1="437.0248" x2="-383.5321" y2="438.8541" gradientTransform="matrix(1.8946 -3.730000e-002 2.000000e-002 1.019 494.0451 -35.989)">
					<stop  offset="3.370800e-002" style="stop-color:#783B2C"/>
					<stop  offset="0.1854" style="stop-color:#783B2C"/>
					<stop  offset="0.4101" style="stop-color:#874333"/>
					<stop  offset="0.5112" style="stop-color:#874333"/>
					<stop  offset="0.6011" style="stop-color:#8D573A"/>
					<stop  offset="0.7584" style="stop-color:#93684C"/>
					<stop  offset="0.882" style="stop-color:#8D573A"/>
					<stop  offset="1" style="stop-color:#874333"/>
				</linearGradient>
				<path class="st4" d="M-226,421.8c-0.1,0.3-0.2,0.3-0.4,0.4c-0.2-0.1-0.4,0.4-0.6,0.4c-0.3,0.5-0.5,0-0.8,0.3
					c-0.3,0.3-0.6,0.3-0.9,0.3c-0.7,0.3-1.5,0.4-2.2,0.5c-0.8,0-1.5,0.2-2.3,0.3c-1.6,0.2-3.3,0.3-5,0.5c-0.8,0.1-1.7,0.1-2.5,0.1
					c-0.8,0-1.7,0.3-2.5,0.1c-0.9,0.2-1.8,0.2-2.7,0c-0.9,0-1.8,0-2.7,0c-1.8,0-3.6-0.1-5.4-0.2c-1.7-0.1-3.4-0.2-5-0.4
					c-0.8-0.1-1.7-0.2-2.5-0.3c-0.8-0.2-1.6-0.1-2.5-0.4c-0.5,0-1-0.2-1.5-0.3c-0.5,0.2-1-0.3-1.5-0.4c-0.4-0.3-0.9-0.3-1.3-0.5
					c-0.4-0.2-0.7-0.5-0.7-0.8c0,0.1-1,1.4-0.2,3.8c0.1,0.2,0.4,0.3,0.6,0.7c0.3,0.1,0.6,0.3,0.9,0.6c0.3,0,0.7,0.2,1,0.2
					c0.4-0.1,0.8,0,1.2,0.3c0.4,0,0.8,0,1.2,0.1c0.4,0.1,0.8,0.2,1.1,0.2c0.7,0.3,1.4-0.1,2.2,0.4c0.7,0,1.4,0.2,2.1,0.4
					c1.4,0.2,2.9,0.4,4.4,0.5c1.2,0.1,2.3,0.1,3.4,0.1c1.1,0,2.1-0.5,3.1,0c1,0.1,2,0.1,2.9-0.1c0.9-0.1,1.8,0,2.6-0.1
					c0.8,0.1,1.6,0.1,2.4-0.2c0.7,0,1.4-0.3,2.1-0.2c0.7-0.2,1.3-0.1,1.8-0.2c0.8-0.1,1.7-0.1,2.5-0.2c0.8-0.2,1.6-0.2,2.5-0.3
					c0.8,0.1,1.6-0.4,2.4-0.5c0.4-0.2,0.9,0,1.3-0.4c0.4-0.1,0.8-0.5,1.1-0.6c0.3-0.2,0.2-0.3,0.4-0.7c0.3-0.5,0.7-1.3,0.7-2.2
					c0-0.6-0.3-1.5-0.6-1.7C-226,421.7-226,421.8-226,421.8"/>
				<g>
					<path class="st5" d="M-254.9,418.5c3.7-0.2,7.5-0.2,11.2-0.1c3.5,0.1,7.1,0.4,10.5,0.8c1.6,0.2,3.1,0.5,4.6,0.9
						c0.7,0.2,1.3,0.4,1.9,0.7c0.4,0.2,0.8,0.5,0.7,0.9c-0.1,0.4-0.7,0.7-1.2,1c-0.6,0.2-1.2,0.4-1.8,0.6c-1.5,0.4-3,0.6-4.5,0.8
						c-3.5,0.4-7,0.6-10.5,0.7c-3.7,0.1-7.4,0-11.1-0.2c-3.4-0.2-6.8-0.5-10-1.2c-0.7-0.2-1.4-0.3-2-0.6c-0.6-0.2-1.2-0.5-1.6-0.8
						c-0.8-0.8,0.6-1.5,1.6-1.8c1.8-0.6,3.8-0.9,5.8-1.1C-259.3,418.8-257.1,418.7-254.9,418.5"/>
				</g>
			</g>
		</g>
	</g>
	<path class="st6" d="M-240.6,420.5l-0.2,2.6c0,0,6.5,0.8,7.2,1.1c0.7,0.3,2.1,1.6,2.5,2.2c0.5,0.6,2.7-2.4,3-3.9
		c0.4-1.6,0-1.9-0.8-2.6C-229.5,419.2-239.8,419.8-240.6,420.5z"/>
	<path class="st6" d="M-262.3,422.5c0,0,0.7,1.9,2.6,4.4c1.6,2.1,3.4,0.6,4,0c1.7-2,10.7-3.3,11.3-4.1c0.6-0.8-19.1-4.5-19.3-3.1
		C-264,420.9-262.3,422.5-262.3,422.5z"/>
	<g>
		<g>
			<g>
				<linearGradient id="SVGID_5_" gradientUnits="userSpaceOnUse" x1="-251.2728" y1="420.4164" x2="-227.2801" y2="422.2122">
					<stop  offset="3.370800e-002" style="stop-color:#C12C26"/>
					<stop  offset="0.1854" style="stop-color:#C12C26"/>
					<stop  offset="0.4101" style="stop-color:#E43325"/>
					<stop  offset="0.5112" style="stop-color:#E43325"/>
					<stop  offset="0.6011" style="stop-color:#EC7A47"/>
					<stop  offset="0.7584" style="stop-color:#F9AD80"/>
					<stop  offset="0.882" style="stop-color:#EC7A47"/>
					<stop  offset="1" style="stop-color:#E43325"/>
				</linearGradient>
				<path class="st7" d="M-228.2,419.6c-0.1,0.2-0.1,0.3-0.2,0.4c-0.1,0.1-0.2,0.2-0.3,0.3c-0.3,0.2-0.6,0.4-0.9,0.5
					c-0.8,0.3-1.6,0.5-2.4,0.7c-1.7,0.3-3.5,0.4-5.3,0.4c-1.9,0-3.8-0.1-5.7-0.4c-1.8-0.2-3.6-0.6-5.3-1.2c-0.5-0.2-1.1-0.4-1.6-0.8
					c-0.4-0.3-1.1-0.7-1.1-1.4c0,0.6,0,1,0,1.6c0,0.5,0.4,1.1,0.7,1.4c0.7,0.5,1.6,0.7,2.4,1c1.5,0.5,3,1.2,4.6,1.4
					c4.3,0.6,7.6,0.1,9.7-0.1c1.3-0.2,2.6-0.2,3.9-0.8c0.4-0.2,0.9-0.4,1.3-0.9c0.1-0.2,0.1-0.4,0.2-0.6c0.3-0.7,0.1-1.1,0.1-1.7
					C-228.2,419.5-228.2,419.6-228.2,419.6"/>
				<g>
					<path class="st8" d="M-243.4,415.8c2-0.1,4,0,5.9,0.2c1.9,0.2,3.7,0.5,5.5,1c0.8,0.2,1.6,0.5,2.4,1c0.3,0.2,0.7,0.4,1,0.7
						c0.2,0.2,0.4,0.5,0.4,0.9c0,0.4-0.4,0.7-0.6,0.9c-0.3,0.2-0.6,0.4-0.9,0.5c-0.8,0.3-1.6,0.5-2.4,0.6c-1.8,0.3-3.7,0.4-5.6,0.4
						c-2,0-3.9-0.2-5.9-0.5c-1.8-0.3-3.6-0.6-5.3-1.4c-0.4-0.2-0.7-0.3-1.1-0.6c-0.3-0.2-0.6-0.5-0.8-0.8c-0.4-0.8,0.3-1.4,0.9-1.7
						c1-0.5,2-0.8,3.1-0.9C-245.7,416-244.6,415.9-243.4,415.8"/>
				</g>
			</g>
		</g>
	</g>
	<g>
		<g>
			<g>
				<linearGradient id="SVGID_6_" gradientUnits="userSpaceOnUse" x1="-265.7684" y1="420.8639" x2="-241.7757" y2="422.6597">
					<stop  offset="3.370800e-002" style="stop-color:#C12C26"/>
					<stop  offset="0.1854" style="stop-color:#C12C26"/>
					<stop  offset="0.4101" style="stop-color:#E43325"/>
					<stop  offset="0.5112" style="stop-color:#E43325"/>
					<stop  offset="0.6011" style="stop-color:#EC7A47"/>
					<stop  offset="0.7584" style="stop-color:#F9AD80"/>
					<stop  offset="0.882" style="stop-color:#EC7A47"/>
					<stop  offset="1" style="stop-color:#E43325"/>
				</linearGradient>
				<path class="st9" d="M-242.7,420.1c-0.1,0.2-0.1,0.3-0.2,0.4c-0.1,0.1-0.2,0.2-0.3,0.3c-0.3,0.2-0.6,0.4-0.9,0.5
					c-0.8,0.3-1.6,0.5-2.4,0.7c-1.7,0.3-3.5,0.4-5.3,0.4c-1.9,0-3.8-0.1-5.7-0.4c-1.8-0.2-3.6-0.6-5.3-1.2c-0.5-0.2-1.1-0.4-1.6-0.8
					c-0.4-0.3-1.1-0.7-1.1-1.4c0,0.6,0,1,0,1.6c0,0.5,0.4,1.1,0.7,1.4c0.7,0.5,1.6,0.7,2.4,1c1.5,0.5,3,1.2,4.6,1.4
					c4.3,0.6,7.6,0.1,9.7-0.1c1.3-0.2,2.6-0.2,3.9-0.8c0.4-0.2,0.9-0.4,1.3-0.9c0.1-0.2,0.1-0.4,0.2-0.6c0.3-0.7,0.1-1.1,0.1-1.7
					C-242.7,420-242.7,420-242.7,420.1"/>
				<g>
					<path class="st8" d="M-257.9,416.2c2-0.1,4,0,5.9,0.2c1.9,0.2,3.7,0.5,5.5,1c0.8,0.2,1.7,0.5,2.4,1c0.3,0.2,0.7,0.4,1,0.7
						c0.2,0.2,0.4,0.5,0.4,0.9c0,0.4-0.4,0.7-0.6,0.9c-0.3,0.2-0.6,0.4-0.9,0.5c-0.8,0.3-1.6,0.5-2.4,0.7c-1.8,0.3-3.7,0.4-5.6,0.4
						c-2,0-3.9-0.2-5.9-0.5c-1.8-0.3-3.6-0.6-5.3-1.4c-0.4-0.2-0.7-0.3-1.1-0.6c-0.3-0.2-0.6-0.5-0.8-0.8c-0.4-0.8,0.3-1.4,0.9-1.7
						c1-0.5,2-0.8,3.1-0.9C-260.2,416.4-259.1,416.3-257.9,416.2"/>
				</g>
			</g>
		</g>
	</g>
	<g>
		<path class="st1" d="M-245.1,421c0,0-0.6,1.3-1,1.3c-0.4,0-4.1-1.3-4.7-1.3c-0.6,0,3.4-1.3,4-1.4
			C-246.3,419.5-245.1,421-245.1,421z"/>
		<path class="st1" d="M-262.6,422.9c0,0,1.7-2.8,2.7-2.2c1,0.6-2.4-1.6-2.4-1.6l-1.2,1.3L-262.6,422.9z"/>
		<path class="st1" d="M-268.4,417.4c0,0-0.4,2.4-0.1,2.5c0.4,0.1,2.1-0.4,3,0.7c0.9,1.1,1.5,2,1.4,0.6c-0.1-1.3-2-4.8-2.6-4.8
			C-267.3,416.5-268.4,417.4-268.4,417.4z"/>
		<linearGradient id="SVGID_7_" gradientUnits="userSpaceOnUse" x1="-257.1733" y1="422.8012" x2="-257.1733" y2="416.0691">
			<stop  offset="1.648350e-002" style="stop-color:#C6DB61"/>
			<stop  offset="0.5659" style="stop-color:#81A03F"/>
		</linearGradient>
		<path class="st10" d="M-268.8,415.6c0,0-2.6,1.2-2.1,2.3c0.5,1,1.2,2.4,1.7,1c0.4-1.3,0.2-1.7,0.4-1.3c0.2,0.3,0,2.2,0.4,2.4
			c0.4,0.2,0.2-0.9,0.8-1.1s1.7-0.5,1.5,0c-0.1,0.5,0.3,5.8,1.1,5.6c0.8-0.2,1.5,0.3,1.9-0.3c0.4-0.6,0.9-0.7,0.9-1.5
			c-0.1-0.7-0.9-1.7-0.6-2c0.3-0.3,0.7-0.7,1.1-0.1c0.4,0.6,0.8,1.9,1.3,1.8c0.5-0.1,0.8,0.1,1.4,0c0.6-0.1,1.7,0.6,2.1-0.1
			c0.4-0.7,1.5-1.6,1.7-1c0.2,0.5,0.5,2.4,0.5,2.4s1.5,0.7,2.6-0.2c1.1-0.9,0.6-2.2,1.9-2.1c1.3,0.1,0.9,0.2,1.9-0.1
			c1-0.3,1.2-0.5,1.5,0.2c0.3,0.7,0.7,1.3,1.2,1.1c0.5-0.2,1.8,0.4,2-1.1c0.1-1.6,1.3-2.7-0.6-3.9c-1.9-1.2-7.8-2.4-9.1-2.7
			C-254.7,414.4-268.2,414.4-268.8,415.6z"/>
	</g>
	<g>
		<g>
			<path class="st1" d="M-250.4,418.8c0,0,0.6,1.3,1,1.3c0.4,0,4.1-1.5,4.6-1.5c0.6,0-3.5-1.3-4-1.3
				C-249.2,417.2-250.4,418.8-250.4,418.8z"/>
			<path class="st1" d="M-232.9,420.2c0,0-1.8-2.7-2.8-2.1c-1,0.6,2.4-1.6,2.4-1.6l1.3,1.3L-232.9,420.2z"/>
			<path class="st1" d="M-227.2,414.6c0,0,0.5,2.4,0.1,2.5c-0.4,0.1-2.1-0.4-3,0.8c-0.9,1.2-1.4,2-1.3,0.7c0.1-1.3,1.8-4.8,2.5-4.8
				C-228.3,413.7-227.2,414.6-227.2,414.6z"/>
			
				<linearGradient id="SVGID_8_" gradientUnits="userSpaceOnUse" x1="-902.5511" y1="430.7239" x2="-902.5511" y2="423.9971" gradientTransform="matrix(-0.9997 2.540000e-002 2.540000e-002 0.9997 -1151.5142 12.5819)">
				<stop  offset="1.648350e-002" style="stop-color:#C6DB61"/>
				<stop  offset="0.5659" style="stop-color:#81A03F"/>
			</linearGradient>
			<path class="st11" d="M-226.8,412.7c0,0,2.6,1.2,2.2,2.2c-0.4,1-1.2,2.4-1.6,1.1c-0.4-1.3-0.3-1.7-0.4-1.3
				c-0.2,0.3,0.1,2.2-0.4,2.4c-0.4,0.2-0.3-0.9-0.9-1.1c-0.6-0.2-1.7-0.5-1.5,0c0.1,0.5-0.2,5.8-0.9,5.6c-0.8-0.2-1.5,0.4-1.9-0.3
				c-0.4-0.6-1-0.7-0.9-1.4c0-0.7,0.8-1.7,0.5-2c-0.3-0.3-0.7-0.7-1.1-0.1c-0.4,0.6-0.7,1.9-1.3,1.8c-0.5-0.1-0.8,0.1-1.4,0
				c-0.6-0.1-1.7,0.7-2.1,0c-0.4-0.7-1.5-1.5-1.7-1c-0.2,0.5-0.4,2.4-0.4,2.4s-1.5,0.8-2.6-0.1c-1.1-0.9-0.6-2.2-1.9-2
				c-1.3,0.1-0.9,0.2-1.9-0.1c-1-0.3-1.2-0.5-1.5,0.2c-0.3,0.7-0.6,1.4-1.2,1.2c-0.5-0.2-1.8,0.5-2-1.1c-0.2-1.5-1.4-2.7,0.5-3.9
				c1.9-1.3,7.8-2.6,9-2.9C-241,411.9-227.5,411.6-226.8,412.7z"/>
		</g>
		
			<radialGradient id="SVGID_9_" cx="-308.3958" cy="98.4631" r="31.4407" gradientTransform="matrix(0.9404 -4.970000e-002 5.150000e-002 1.3596 34.7707 238.4231)" gradientUnits="userSpaceOnUse">
			<stop  offset="0" style="stop-color:#FFDC9D"/>
			<stop  offset="0.6966" style="stop-color:#F2A35D"/>
			<stop  offset="0.9888" style="stop-color:#CE602B"/>
		</radialGradient>
		<path class="st12" d="M-255.7,415.9c8.6,3.5,29.4-0.2,30.3-0.9c2.2-1.6-2.7-11.1-15.8-10.3C-254.3,405.6-263.8,411.8-255.7,415.9z
			"/>
		
			<radialGradient id="SVGID_10_" cx="-222.215" cy="405.3045" r="31.7488" gradientTransform="matrix(0.9164 -4.840000e-002 4.720000e-002 1.2458 -81.8283 -119.0871)" gradientUnits="userSpaceOnUse">
			<stop  offset="0" style="stop-color:#FFDC9D"/>
			<stop  offset="0.6966" style="stop-color:#F2A35D"/>
			<stop  offset="0.9888" style="stop-color:#CE602B"/>
		</radialGradient>
		<path class="st13" d="M-269.7,417.1c8.6,3.7,33,0.6,33.8-0.2c0.8-0.8-2.7-12.8-15.9-12C-264.9,405.8-271.5,412.6-269.7,417.1z"/>
		
			<radialGradient id="SVGID_11_" cx="-17.8778" cy="620.4141" r="1.6635" gradientTransform="matrix(0.4712 -0.3077 0.3643 1.0098 -472.0135 -222.0962)" gradientUnits="userSpaceOnUse">
			<stop  offset="0" style="stop-color:#FFF2DE"/>
			<stop  offset="0.6966" style="stop-color:#FFE3C9"/>
			<stop  offset="0.9888" style="stop-color:#FCD2B8"/>
		</radialGradient>
		<path class="st14" d="M-253.4,410.1c0.1,0.3,0,0.4-0.3,0.6c-0.3,0.2-0.6,0.2-0.6,0c-0.1-0.2,0.1-0.5,0.4-0.6
			C-253.6,409.9-253.5,409.8-253.4,410.1z"/>
		
			<radialGradient id="SVGID_12_" cx="-528.1874" cy="-266.1902" r="1.6636" gradientTransform="matrix(6.100000e-002 0.6702 -0.7721 0.1168 -434.3076 793.6254)" gradientUnits="userSpaceOnUse">
			<stop  offset="0" style="stop-color:#FFF2DE"/>
			<stop  offset="0.6966" style="stop-color:#FFE3C9"/>
			<stop  offset="0.9888" style="stop-color:#FCD2B8"/>
		</radialGradient>
		<path class="st15" d="M-261.4,409.8c-0.2,0-0.3-0.2-0.3-0.5c0-0.4,0-0.7,0.2-0.7c0.1,0,0.3,0.3,0.3,0.7
			C-261.2,409.5-261.2,409.7-261.4,409.8z"/>
		
			<radialGradient id="SVGID_13_" cx="-778.1814" cy="824.9619" r="1.6637" gradientTransform="matrix(6.090000e-002 -0.7677 0.887 0.1449 -943.7943 -308.1804)" gradientUnits="userSpaceOnUse">
			<stop  offset="0" style="stop-color:#FFF2DE"/>
			<stop  offset="0.6966" style="stop-color:#FFE3C9"/>
			<stop  offset="0.9888" style="stop-color:#FCD2B8"/>
		</radialGradient>
		<path class="st16" d="M-258.7,407.6c0.2,0,0.3,0.3,0.2,0.7c0,0.5-0.2,0.8-0.3,0.8c-0.1,0-0.2-0.4-0.2-0.9
			C-259,407.7-259,407.5-258.7,407.6z"/>
		
			<radialGradient id="SVGID_14_" cx="-732.2631" cy="847.6005" r="1.6634" gradientTransform="matrix(8.870000e-002 -0.7522 0.8696 0.2038 -932.5319 -312.5927)" gradientUnits="userSpaceOnUse">
			<stop  offset="0" style="stop-color:#FFF2DE"/>
			<stop  offset="0.6966" style="stop-color:#FFE3C9"/>
			<stop  offset="0.9888" style="stop-color:#FCD2B8"/>
		</radialGradient>
		<path class="st17" d="M-259.7,409.8c0.2,0.1,0.2,0.3,0.2,0.7c-0.1,0.4-0.2,0.8-0.4,0.7c-0.1,0-0.2-0.4-0.2-0.9
			C-259.9,410-259.9,409.8-259.7,409.8z"/>
		
			<radialGradient id="SVGID_15_" cx="138.5439" cy="519.831" r="1.6636" gradientTransform="matrix(0.4788 -0.1191 0.1468 1.0222 -405.6546 -104.4061)" gradientUnits="userSpaceOnUse">
			<stop  offset="0" style="stop-color:#FFF2DE"/>
			<stop  offset="0.6966" style="stop-color:#FFE3C9"/>
			<stop  offset="0.9888" style="stop-color:#FCD2B8"/>
		</radialGradient>
		<path class="st18" d="M-262.1,411c0,0.3-0.1,0.3-0.4,0.4c-0.3,0.1-0.5,0-0.6-0.2c0-0.2,0.2-0.4,0.5-0.4
			C-262.3,410.7-262.1,410.7-262.1,411z"/>
		
			<radialGradient id="SVGID_16_" cx="-319.5478" cy="812.0897" r="1.6635" gradientTransform="matrix(0.3111 -0.5678 0.6612 0.6738 -696.7866 -317.0327)" gradientUnits="userSpaceOnUse">
			<stop  offset="0" style="stop-color:#FFF2DE"/>
			<stop  offset="0.6966" style="stop-color:#FFE3C9"/>
			<stop  offset="0.9888" style="stop-color:#FCD2B8"/>
		</radialGradient>
		<path class="st19" d="M-258.3,411.1c0.2,0.2,0.1,0.4-0.1,0.7c-0.2,0.3-0.4,0.5-0.5,0.4c-0.1-0.1-0.1-0.5,0.1-0.8
			C-258.5,411.1-258.4,410.9-258.3,411.1z"/>
		
			<radialGradient id="SVGID_17_" cx="-15.009" cy="563.1674" r="1.6635" gradientTransform="matrix(0.5196 -0.2488 0.2973 1.1118 -416.5907 -221.3719)" gradientUnits="userSpaceOnUse">
			<stop  offset="0" style="stop-color:#FFF2DE"/>
			<stop  offset="0.6966" style="stop-color:#FFE3C9"/>
			<stop  offset="0.9888" style="stop-color:#FCD2B8"/>
		</radialGradient>
		<path class="st20" d="M-255.9,408.9c0.1,0.3-0.1,0.4-0.4,0.6c-0.3,0.1-0.6,0.1-0.6-0.1c0-0.2,0.2-0.5,0.5-0.6
			C-256.1,408.6-256,408.5-255.9,408.9z"/>
		
			<radialGradient id="SVGID_18_" cx="-315.5879" cy="782.9453" r="1.6634" gradientTransform="matrix(0.3047 -0.5617 0.6541 0.6602 -669.7659 -286.8521)" gradientUnits="userSpaceOnUse">
			<stop  offset="0" style="stop-color:#FFF2DE"/>
			<stop  offset="0.6966" style="stop-color:#FFE3C9"/>
			<stop  offset="0.9888" style="stop-color:#FCD2B8"/>
		</radialGradient>
		<path class="st21" d="M-252.8,406.8c0.2,0.2,0.1,0.4-0.1,0.7c-0.2,0.3-0.4,0.5-0.5,0.4c-0.1-0.1-0.1-0.5,0.1-0.8
			C-253.1,406.8-253,406.6-252.8,406.8z"/>
		
			<radialGradient id="SVGID_19_" cx="170.1408" cy="207.5968" r="1.6637" gradientTransform="matrix(0.4512 0.2562 -0.2867 0.956 -265.9652 166.4198)" gradientUnits="userSpaceOnUse">
			<stop  offset="0" style="stop-color:#FFF2DE"/>
			<stop  offset="0.6966" style="stop-color:#FFE3C9"/>
			<stop  offset="0.9888" style="stop-color:#FCD2B8"/>
		</radialGradient>
		<path class="st22" d="M-248.2,409.6c-0.1,0.3-0.2,0.2-0.5,0.1c-0.3-0.2-0.4-0.4-0.4-0.6c0-0.2,0.3-0.2,0.6,0
			C-248.2,409.2-248.1,409.3-248.2,409.6z"/>
		
			<radialGradient id="SVGID_20_" cx="51.1818" cy="413.0688" r="1.6638" gradientTransform="matrix(0.5729 -2.490000e-002 4.000000e-002 1.2209 -294.9499 -96.4827)" gradientUnits="userSpaceOnUse">
			<stop  offset="0" style="stop-color:#FFF2DE"/>
			<stop  offset="0.6966" style="stop-color:#FFE3C9"/>
			<stop  offset="0.9888" style="stop-color:#FCD2B8"/>
		</radialGradient>
		<path class="st23" d="M-248.1,407.4c0,0.3-0.1,0.4-0.5,0.4c-0.3,0-0.6-0.1-0.6-0.3c0-0.2,0.3-0.4,0.6-0.4
			C-248.3,407-248.1,407-248.1,407.4z"/>
		
			<radialGradient id="SVGID_21_" cx="65.7413" cy="364.6125" r="1.6634" gradientTransform="matrix(0.5678 6.060000e-002 -5.870000e-002 1.2083 -266.8912 -36.5193)" gradientUnits="userSpaceOnUse">
			<stop  offset="0" style="stop-color:#FFF2DE"/>
			<stop  offset="0.6966" style="stop-color:#FFE3C9"/>
			<stop  offset="0.9888" style="stop-color:#FCD2B8"/>
		</radialGradient>
		<path class="st24" d="M-250.1,409c0,0.3-0.2,0.3-0.5,0.3c-0.3,0-0.6-0.2-0.6-0.4c0-0.2,0.3-0.3,0.6-0.3
			C-250.2,408.6-250,408.6-250.1,409z"/>
		
			<radialGradient id="SVGID_22_" cx="-400.6564" cy="845.4569" r="1.6637" gradientTransform="matrix(0.215 -0.5937 0.6893 0.4697 -748.7286 -223.6014)" gradientUnits="userSpaceOnUse">
			<stop  offset="0" style="stop-color:#FFF2DE"/>
			<stop  offset="0.6966" style="stop-color:#FFE3C9"/>
			<stop  offset="0.9888" style="stop-color:#FCD2B8"/>
		</radialGradient>
		<path class="st25" d="M-251.3,410.7c0.2,0.1,0.1,0.3,0,0.7c-0.1,0.3-0.3,0.6-0.4,0.5c-0.1-0.1-0.1-0.4,0-0.8
			C-251.5,410.7-251.4,410.6-251.3,410.7z"/>
		
			<radialGradient id="SVGID_23_" cx="-81.2843" cy="-15.8116" r="1.6639" gradientTransform="matrix(0.3957 0.4995 -0.5685 0.833 -242.6742 464.2349)" gradientUnits="userSpaceOnUse">
			<stop  offset="0" style="stop-color:#FFF2DE"/>
			<stop  offset="0.6966" style="stop-color:#FFE3C9"/>
			<stop  offset="0.9888" style="stop-color:#FCD2B8"/>
		</radialGradient>
		<path class="st26" d="M-265.6,411.9c-0.2,0.2-0.3,0.1-0.5-0.2c-0.2-0.3-0.3-0.6-0.2-0.8c0.1-0.1,0.4,0,0.6,0.3
			C-265.5,411.5-265.4,411.7-265.6,411.9z"/>
		
			<radialGradient id="SVGID_24_" cx="-237.337" cy="-22.2494" r="1.6633" gradientTransform="matrix(0.1946 0.7192 -0.826 0.4004 -213.1591 590.0726)" gradientUnits="userSpaceOnUse">
			<stop  offset="0" style="stop-color:#FFF2DE"/>
			<stop  offset="0.6966" style="stop-color:#FFE3C9"/>
			<stop  offset="0.9888" style="stop-color:#FCD2B8"/>
		</radialGradient>
		<path class="st27" d="M-241.2,412c-0.2,0.1-0.3-0.1-0.4-0.5c-0.1-0.4-0.1-0.8,0-0.9c0.1-0.1,0.3,0.2,0.5,0.6
			C-241,411.6-241,411.8-241.2,412z"/>
		
			<radialGradient id="SVGID_25_" cx="-171.833" cy="25.4921" r="1.6636" gradientTransform="matrix(0.2132 0.7278 -0.8355 0.4397 -176.5431 523.0424)" gradientUnits="userSpaceOnUse">
			<stop  offset="0" style="stop-color:#FFF2DE"/>
			<stop  offset="0.6966" style="stop-color:#FFE3C9"/>
			<stop  offset="0.9888" style="stop-color:#FCD2B8"/>
		</radialGradient>
		<path class="st28" d="M-234.7,410.7c-0.2,0.1-0.3-0.1-0.4-0.5c-0.1-0.4-0.1-0.8,0-0.9c0.1-0.1,0.4,0.2,0.5,0.6
			C-234.5,410.4-234.5,410.6-234.7,410.7z"/>
		
			<radialGradient id="SVGID_26_" cx="87.4392" cy="280.9973" r="1.6632" gradientTransform="matrix(0.5457 0.2338 -0.259 1.1577 -214.8411 59.6735)" gradientUnits="userSpaceOnUse">
			<stop  offset="0" style="stop-color:#FFF2DE"/>
			<stop  offset="0.6966" style="stop-color:#FFE3C9"/>
			<stop  offset="0.9888" style="stop-color:#FCD2B8"/>
		</radialGradient>
		<path class="st29" d="M-239.2,406.6c-0.1,0.3-0.2,0.3-0.5,0.1c-0.3-0.1-0.5-0.4-0.5-0.6c0-0.2,0.3-0.2,0.7-0.1
			C-239.2,406.2-239.1,406.3-239.2,406.6z"/>
		
			<radialGradient id="SVGID_27_" cx="-28.9355" cy="528.9822" r="1.664" gradientTransform="matrix(0.5391 -0.2965 0.3528 1.1542 -408.6744 -212.6886)" gradientUnits="userSpaceOnUse">
			<stop  offset="0" style="stop-color:#FFF2DE"/>
			<stop  offset="0.6966" style="stop-color:#FFE3C9"/>
			<stop  offset="0.9888" style="stop-color:#FCD2B8"/>
		</radialGradient>
		<path class="st30" d="M-236.5,406.8c0.1,0.3,0,0.4-0.4,0.6c-0.3,0.2-0.6,0.2-0.7,0c-0.1-0.2,0.1-0.5,0.5-0.7
			C-236.8,406.5-236.6,406.4-236.5,406.8z"/>
		
			<radialGradient id="SVGID_28_" cx="-71.8771" cy="575.0131" r="1.6638" gradientTransform="matrix(0.5115 -0.3572 0.4223 1.0965 -450.3464 -248.7859)" gradientUnits="userSpaceOnUse">
			<stop  offset="0" style="stop-color:#FFF2DE"/>
			<stop  offset="0.6966" style="stop-color:#FFE3C9"/>
			<stop  offset="0.9888" style="stop-color:#FCD2B8"/>
		</radialGradient>
		<path class="st31" d="M-243.1,407.6c0.1,0.3,0,0.4-0.3,0.6c-0.3,0.2-0.6,0.2-0.7,0c-0.1-0.2,0.1-0.5,0.4-0.7
			C-243.4,407.3-243.2,407.3-243.1,407.6z"/>
		
			<radialGradient id="SVGID_29_" cx="24.9793" cy="519.4635" r="1.6634" gradientTransform="matrix(0.5194 -0.246 0.2941 1.1112 -399.5918 -163.2979)" gradientUnits="userSpaceOnUse">
			<stop  offset="0" style="stop-color:#FFF2DE"/>
			<stop  offset="0.6966" style="stop-color:#FFE3C9"/>
			<stop  offset="0.9888" style="stop-color:#FCD2B8"/>
		</radialGradient>
		<path class="st32" d="M-232.8,408.2c0.1,0.3-0.1,0.4-0.4,0.5c-0.3,0.1-0.6,0.1-0.6-0.1c0-0.2,0.2-0.5,0.5-0.6
			C-233,407.9-232.8,407.8-232.8,408.2z"/>
		
			<radialGradient id="SVGID_30_" cx="85.9078" cy="144.5001" r="1.664" gradientTransform="matrix(0.3859 0.4672 -0.5315 0.8127 -187.1184 250.6866)" gradientUnits="userSpaceOnUse">
			<stop  offset="0" style="stop-color:#FFF2DE"/>
			<stop  offset="0.6966" style="stop-color:#FFE3C9"/>
			<stop  offset="0.9888" style="stop-color:#FCD2B8"/>
		</radialGradient>
		<path class="st33" d="M-230.5,409.6c-0.1,0.2-0.3,0.1-0.5-0.2c-0.2-0.3-0.3-0.6-0.2-0.7c0.1-0.1,0.3,0,0.6,0.3
			C-230.4,409.2-230.3,409.4-230.5,409.6z"/>
		
			<radialGradient id="SVGID_31_" cx="-1.4776" cy="525.1986" r="1.6633" gradientTransform="matrix(0.526 -0.3103 0.3684 1.1265 -421.3877 -181.7133)" gradientUnits="userSpaceOnUse">
			<stop  offset="0" style="stop-color:#FFF2DE"/>
			<stop  offset="0.6966" style="stop-color:#FFE3C9"/>
			<stop  offset="0.9888" style="stop-color:#FCD2B8"/>
		</radialGradient>
		<path class="st34" d="M-227.5,410.6c0.1,0.3,0,0.4-0.3,0.6c-0.3,0.2-0.6,0.2-0.7,0c-0.1-0.2,0.1-0.5,0.4-0.7
			C-227.8,410.4-227.6,410.3-227.5,410.6z"/>
		
			<radialGradient id="SVGID_32_" cx="133.7504" cy="267.2246" r="1.6638" gradientTransform="matrix(0.4825 0.2704 -0.3025 1.0224 -215.4373 101.8805)" gradientUnits="userSpaceOnUse">
			<stop  offset="0" style="stop-color:#FFF2DE"/>
			<stop  offset="0.6966" style="stop-color:#FFE3C9"/>
			<stop  offset="0.9888" style="stop-color:#FCD2B8"/>
		</radialGradient>
		<path class="st35" d="M-231.1,412.4c-0.1,0.3-0.2,0.2-0.5,0.1c-0.3-0.2-0.5-0.4-0.4-0.6c0.1-0.2,0.3-0.2,0.6,0
			C-231.2,412-231.1,412.1-231.1,412.4z"/>
		
			<radialGradient id="SVGID_33_" cx="155.4125" cy="186.6537" r="1.6632" gradientTransform="matrix(0.4257 0.3353 -0.3785 0.9002 -232.5967 187.7097)" gradientUnits="userSpaceOnUse">
			<stop  offset="0" style="stop-color:#FFF2DE"/>
			<stop  offset="0.6966" style="stop-color:#FFE3C9"/>
			<stop  offset="0.9888" style="stop-color:#FCD2B8"/>
		</radialGradient>
		<path class="st36" d="M-236.6,409c-0.1,0.3-0.2,0.2-0.5,0c-0.2-0.2-0.4-0.5-0.3-0.6c0.1-0.2,0.3-0.1,0.6,0.1
			C-236.6,408.7-236.5,408.8-236.6,409z"/>
		
			<radialGradient id="SVGID_34_" cx="126.4046" cy="411.3409" r="1.6638" gradientTransform="matrix(0.5262 -8.000000e-004 1.130000e-002 1.1209 -305.6282 -54.8725)" gradientUnits="userSpaceOnUse">
			<stop  offset="0" style="stop-color:#FFF2DE"/>
			<stop  offset="0.6966" style="stop-color:#FFE3C9"/>
			<stop  offset="0.9888" style="stop-color:#FCD2B8"/>
		</radialGradient>
		<path class="st37" d="M-233.6,406.9c0,0.3-0.1,0.3-0.5,0.3c-0.3,0-0.6-0.2-0.6-0.3c0-0.2,0.2-0.3,0.6-0.3
			C-233.7,406.5-233.6,406.6-233.6,406.9z"/>
		
			<radialGradient id="SVGID_35_" cx="-438.7008" cy="-116.0321" r="1.6633" gradientTransform="matrix(5.810000e-002 0.7306 -0.8418 0.1094 -319.1082 744.0668)" gradientUnits="userSpaceOnUse">
			<stop  offset="0" style="stop-color:#FFF2DE"/>
			<stop  offset="0.6966" style="stop-color:#FFE3C9"/>
			<stop  offset="0.9888" style="stop-color:#FCD2B8"/>
		</radialGradient>
		<path class="st38" d="M-247.4,412.2c-0.2,0-0.3-0.2-0.3-0.6c0-0.4,0.1-0.8,0.2-0.8c0.1,0,0.3,0.3,0.3,0.7
			C-247.2,411.9-247.2,412.1-247.4,412.2z"/>
		
			<radialGradient id="SVGID_36_" cx="-410.4223" cy="766.7146" r="1.6635" gradientTransform="matrix(0.2266 -0.6556 0.7609 0.4956 -736.9206 -239.3661)" gradientUnits="userSpaceOnUse">
			<stop  offset="0" style="stop-color:#FFF2DE"/>
			<stop  offset="0.6966" style="stop-color:#FFE3C9"/>
			<stop  offset="0.9888" style="stop-color:#FCD2B8"/>
		</radialGradient>
		<path class="st39" d="M-245.6,408.9c0.2,0.1,0.2,0.3,0,0.7c-0.1,0.4-0.3,0.6-0.5,0.5c-0.1-0.1-0.1-0.5,0-0.8
			C-245.9,409-245.8,408.8-245.6,408.9z"/>
		
			<radialGradient id="SVGID_37_" cx="-496.0523" cy="749.4587" r="1.6633" gradientTransform="matrix(0.1969 -0.7079 0.8207 0.4334 -764.832 -269.2477)" gradientUnits="userSpaceOnUse">
			<stop  offset="0" style="stop-color:#FFF2DE"/>
			<stop  offset="0.6966" style="stop-color:#FFE3C9"/>
			<stop  offset="0.9888" style="stop-color:#FCD2B8"/>
		</radialGradient>
		<path class="st40" d="M-246.5,405.8c0.2,0.1,0.2,0.3,0.1,0.7c-0.1,0.4-0.3,0.7-0.5,0.6c-0.1-0.1-0.2-0.5,0-0.9
			C-246.8,405.9-246.7,405.7-246.5,405.8z"/>
		
			<radialGradient id="SVGID_38_" cx="66.4255" cy="277.9789" r="1.6636" gradientTransform="matrix(0.5548 0.1971 -0.2164 1.1779 -228.5981 64.645)" gradientUnits="userSpaceOnUse">
			<stop  offset="0" style="stop-color:#FFF2DE"/>
			<stop  offset="0.6966" style="stop-color:#FFE3C9"/>
			<stop  offset="0.9888" style="stop-color:#FCD2B8"/>
		</radialGradient>
		<path class="st41" d="M-251.1,406.3c-0.1,0.3-0.2,0.3-0.5,0.2c-0.3-0.1-0.6-0.4-0.5-0.6c0-0.2,0.3-0.3,0.7-0.1
			C-251.2,405.9-251.1,406-251.1,406.3z"/>
		
			<radialGradient id="SVGID_39_" cx="22.1261" cy="174.3938" r="1.6633" gradientTransform="matrix(0.5194 0.3541 -0.3983 1.0993 -196.9719 206.379)" gradientUnits="userSpaceOnUse">
			<stop  offset="0" style="stop-color:#FFF2DE"/>
			<stop  offset="0.6966" style="stop-color:#FFE3C9"/>
			<stop  offset="0.9888" style="stop-color:#FCD2B8"/>
		</radialGradient>
		<path class="st42" d="M-254.3,407.3c-0.1,0.3-0.3,0.2-0.6,0c-0.3-0.2-0.5-0.5-0.4-0.7c0.1-0.2,0.4-0.2,0.7,0
			C-254.4,406.9-254.2,407-254.3,407.3z"/>
		
			<radialGradient id="SVGID_40_" cx="-520.6539" cy="890.1954" r="1.6636" gradientTransform="matrix(0.1632 -0.6235 0.7226 0.3599 -814.5217 -233.054)" gradientUnits="userSpaceOnUse">
			<stop  offset="0" style="stop-color:#FFF2DE"/>
			<stop  offset="0.6966" style="stop-color:#FFE3C9"/>
			<stop  offset="0.9888" style="stop-color:#FCD2B8"/>
		</radialGradient>
		<path class="st43" d="M-255.5,411.2c0.2,0.1,0.2,0.3,0.1,0.6c-0.1,0.4-0.3,0.6-0.4,0.6c-0.1-0.1-0.1-0.4,0-0.8
			C-255.7,411.2-255.7,411.1-255.5,411.2z"/>
		
			<radialGradient id="SVGID_41_" cx="-35.5093" cy="650.9865" r="1.6636" gradientTransform="matrix(0.465 -0.3261 0.3854 0.9969 -495.1993 -248.1065)" gradientUnits="userSpaceOnUse">
			<stop  offset="0" style="stop-color:#FFF2DE"/>
			<stop  offset="0.6966" style="stop-color:#FFE3C9"/>
			<stop  offset="0.9888" style="stop-color:#FCD2B8"/>
		</radialGradient>
		<path class="st44" d="M-259.8,412.6c0.1,0.3,0,0.4-0.3,0.6c-0.3,0.2-0.5,0.2-0.6,0c-0.1-0.2,0.1-0.5,0.4-0.6
			C-260,412.4-259.9,412.3-259.8,412.6z"/>
		
			<radialGradient id="SVGID_42_" cx="-702.3208" cy="866.6479" r="1.6632" gradientTransform="matrix(0.1365 -0.771 0.8923 0.3059 -943.48 -392.6962)" gradientUnits="userSpaceOnUse">
			<stop  offset="0" style="stop-color:#FFF2DE"/>
			<stop  offset="0.6966" style="stop-color:#FFE3C9"/>
			<stop  offset="0.9888" style="stop-color:#FCD2B8"/>
		</radialGradient>
		<path class="st45" d="M-265.2,412.8c0.2,0.1,0.2,0.3,0.2,0.8c-0.1,0.5-0.3,0.8-0.4,0.7c-0.1-0.1-0.2-0.5-0.1-0.9
			C-265.5,412.9-265.4,412.7-265.2,412.8z"/>
		
			<radialGradient id="SVGID_43_" cx="-90.72" cy="609.0092" r="1.6637" gradientTransform="matrix(0.5195 -0.3214 0.3811 1.1129 -449.341 -297.3472)" gradientUnits="userSpaceOnUse">
			<stop  offset="0" style="stop-color:#FFF2DE"/>
			<stop  offset="0.6966" style="stop-color:#FFE3C9"/>
			<stop  offset="0.9888" style="stop-color:#FCD2B8"/>
		</radialGradient>
		<path class="st46" d="M-263.2,409.8c0.1,0.3,0,0.4-0.3,0.6c-0.3,0.2-0.6,0.2-0.7,0c-0.1-0.2,0.1-0.5,0.4-0.7
			C-263.5,409.6-263.3,409.5-263.2,409.8z"/>
		
			<radialGradient id="SVGID_44_" cx="122.4561" cy="310.4236" r="1.6634" gradientTransform="matrix(0.5179 0.1262 -0.1354 1.1006 -278.1892 52.2931)" gradientUnits="userSpaceOnUse">
			<stop  offset="0" style="stop-color:#FFF2DE"/>
			<stop  offset="0.6966" style="stop-color:#FFE3C9"/>
			<stop  offset="0.9888" style="stop-color:#FCD2B8"/>
		</radialGradient>
		<path class="st47" d="M-256,410.4c0,0.3-0.2,0.3-0.5,0.2c-0.3-0.1-0.5-0.3-0.5-0.5c0-0.2,0.3-0.3,0.6-0.2
			C-256.1,410-256,410.1-256,410.4z"/>
		
			<radialGradient id="SVGID_45_" cx="85.3526" cy="380.9221" r="1.6636" gradientTransform="matrix(0.5515 4.160000e-002 -3.710000e-002 1.1739 -280.8046 -38.3027)" gradientUnits="userSpaceOnUse">
			<stop  offset="0" style="stop-color:#FFF2DE"/>
			<stop  offset="0.6966" style="stop-color:#FFE3C9"/>
			<stop  offset="0.9888" style="stop-color:#FCD2B8"/>
		</radialGradient>
		<path class="st48" d="M-247,413.3c0,0.3-0.2,0.3-0.5,0.3c-0.3,0-0.6-0.2-0.6-0.4c0-0.2,0.3-0.3,0.6-0.3
			C-247.1,412.9-247,413-247,413.3z"/>
		
			<radialGradient id="SVGID_46_" cx="150.8965" cy="236.5007" r="1.6631" gradientTransform="matrix(0.4699 0.247 -0.2758 0.9961 -250.2781 137.1874)" gradientUnits="userSpaceOnUse">
			<stop  offset="0" style="stop-color:#FFF2DE"/>
			<stop  offset="0.6966" style="stop-color:#FFE3C9"/>
			<stop  offset="0.9888" style="stop-color:#FCD2B8"/>
		</radialGradient>
		<path class="st49" d="M-244,411.2c-0.1,0.3-0.2,0.2-0.5,0.1c-0.3-0.1-0.5-0.4-0.4-0.6c0-0.2,0.3-0.2,0.6,0
			C-244,410.8-243.9,410.9-244,411.2z"/>
		
			<radialGradient id="SVGID_47_" cx="126.5058" cy="222.3663" r="1.664" gradientTransform="matrix(0.4531 0.3193 -0.3595 0.9588 -212.0606 158.4716)" gradientUnits="userSpaceOnUse">
			<stop  offset="0" style="stop-color:#FFF2DE"/>
			<stop  offset="0.6966" style="stop-color:#FFE3C9"/>
			<stop  offset="0.9888" style="stop-color:#FCD2B8"/>
		</radialGradient>
		<path class="st50" d="M-234.2,413.3c-0.1,0.3-0.2,0.2-0.5,0c-0.3-0.2-0.4-0.5-0.4-0.6c0.1-0.2,0.3-0.1,0.6,0
			C-234.2,412.9-234.1,413-234.2,413.3z"/>
		
			<radialGradient id="SVGID_48_" cx="-122.5305" cy="-7.0393" r="1.6636" gradientTransform="matrix(0.2717 0.6667 -0.7638 0.5656 -213.7249 490.9383)" gradientUnits="userSpaceOnUse">
			<stop  offset="0" style="stop-color:#FFF2DE"/>
			<stop  offset="0.6966" style="stop-color:#FFE3C9"/>
			<stop  offset="0.9888" style="stop-color:#FCD2B8"/>
		</radialGradient>
		<path class="st51" d="M-241.7,406.8c-0.2,0.2-0.3,0-0.5-0.4c-0.2-0.4-0.2-0.8-0.1-0.9c0.1-0.1,0.4,0.1,0.5,0.5
			C-241.6,406.4-241.5,406.6-241.7,406.8z"/>
		
			<radialGradient id="SVGID_49_" cx="-507.6715" cy="743.5532" r="1.6635" gradientTransform="matrix(0.1248 -0.6927 0.8017 0.2795 -772.8519 -151.3748)" gradientUnits="userSpaceOnUse">
			<stop  offset="0" style="stop-color:#FFF2DE"/>
			<stop  offset="0.6966" style="stop-color:#FFE3C9"/>
			<stop  offset="0.9888" style="stop-color:#FCD2B8"/>
		</radialGradient>
		<path class="st52" d="M-239.3,407.1c0.2,0.1,0.2,0.3,0.1,0.7c-0.1,0.4-0.2,0.7-0.4,0.7c-0.1,0-0.2-0.4-0.1-0.8
			C-239.6,407.3-239.6,407.1-239.3,407.1z"/>
		
			<radialGradient id="SVGID_50_" cx="57.5135" cy="577.1425" r="1.6636" gradientTransform="matrix(0.4561 -0.2497 0.2971 0.9765 -439.7668 -140.5942)" gradientUnits="userSpaceOnUse">
			<stop  offset="0" style="stop-color:#FFF2DE"/>
			<stop  offset="0.6966" style="stop-color:#FFE3C9"/>
			<stop  offset="0.9888" style="stop-color:#FCD2B8"/>
		</radialGradient>
		<path class="st53" d="M-241.1,408.9c0.1,0.3,0,0.4-0.3,0.5c-0.3,0.1-0.5,0.1-0.6,0c0-0.2,0.1-0.4,0.4-0.6
			C-241.3,408.7-241.2,408.6-241.1,408.9z"/>
		
			<radialGradient id="SVGID_51_" cx="-65.7208" cy="677.3864" r="1.6633" gradientTransform="matrix(0.3974 -0.3863 0.4535 0.854 -526.8588 -197.3723)" gradientUnits="userSpaceOnUse">
			<stop  offset="0" style="stop-color:#FFF2DE"/>
			<stop  offset="0.6966" style="stop-color:#FFE3C9"/>
			<stop  offset="0.9888" style="stop-color:#FCD2B8"/>
		</radialGradient>
		<path class="st54" d="M-244.8,406.5c0.1,0.2,0,0.4-0.2,0.6c-0.2,0.2-0.5,0.3-0.6,0.2c-0.1-0.1,0.1-0.4,0.3-0.7
			C-245,406.3-244.9,406.2-244.8,406.5z"/>
	</g>
</g>
</svg>
