<?xml version="1.0" encoding="utf-8"?>
<!-- Generator: Adobe Illustrator 19.0.0, SVG Export Plug-In . SVG Version: 6.00 Build 0)  -->
<svg version="1.1" id="Layer_1" xmlns="http://www.w3.org/2000/svg" xmlns:xlink="http://www.w3.org/1999/xlink" x="0px" y="0px"
	 viewBox="-272 395.9 50 50" style="enable-background:new -272 395.9 50 50;" xml:space="preserve">
<style type="text/css">
	.st0{fill:#FDEEA0;}
	.st1{fill:#EE7A23;}
	.st2{fill:url(#SVGID_1_);}
	.st3{fill-rule:evenodd;clip-rule:evenodd;fill:url(#SVGID_2_);}
	.st4{fill-rule:evenodd;clip-rule:evenodd;fill:#F1F2F2;}
	.st5{fill-rule:evenodd;clip-rule:evenodd;fill:#FCCBA0;}
	.st6{fill-rule:evenodd;clip-rule:evenodd;fill:#F3C28A;}
	.st7{fill-rule:evenodd;clip-rule:evenodd;fill:#FADDBE;}
	.st8{fill-rule:evenodd;clip-rule:evenodd;fill:url(#SVGID_3_);}
	.st9{fill-rule:evenodd;clip-rule:evenodd;fill:url(#SVGID_4_);}
	.st10{fill-rule:evenodd;clip-rule:evenodd;fill:#FDCF9D;}
	.st11{fill-rule:evenodd;clip-rule:evenodd;fill:url(#SVGID_5_);}
	.st12{fill-rule:evenodd;clip-rule:evenodd;fill:url(#SVGID_6_);}
	.st13{fill-rule:evenodd;clip-rule:evenodd;fill:#231F20;}
</style>
<g id="Layer_3">
	<g id="XMLID_1_">
		<path id="XMLID_2_" class="st0" d="M-240.6,436.2l-2.6-4.4l3.6-2.1l2.7,4.6c1.2-0.4,2.5,0.1,3.2,1.2c0.7,1.3,0.3,2.9-1,3.7
			c-0.2,0.1-0.4,0.2-0.6,0.3c-0.3,0.5-0.7,1-1.2,1.4c-1.5,0.9-3.4,0.4-4.3-1.1C-241.5,438.5-241.4,437.1-240.6,436.2z"/>
	</g>
</g>
<g id="Layer_2">
	<g id="XMLID_9_">
		<path id="XMLID_10_" class="st0" d="M-240.6,436.2l-2.6-4.4l3.6-2.1l2.7,4.6c1.2-0.4,2.5,0.1,3.2,1.2c0.7,1.3,0.3,2.9-1,3.7
			c-0.2,0.1-0.4,0.2-0.6,0.3c-0.3,0.5-0.7,1-1.2,1.4c-1.5,0.9-3.4,0.4-4.3-1.1C-241.5,438.5-241.4,437.1-240.6,436.2z"/>
	</g>
	<path id="XMLID_5_" class="st1" d="M-258,401.9c0,0-13.7,8,4.3,24.8c0,0,3,2.7,6,1.8c0,0,3.1,0.2,3.1,4.3c0,0,2.3,1.5,4.2-0.8
		c2.9-0.5,2.8-3.3,2.8-3.3c-3.6-2-2.2-4.8-2.2-4.8c2.3-2.2,1.4-6.1,1.4-6.1C-244.2,393.9-258,401.9-258,401.9z"/>
</g>
<g id="Layer_1_1_">
</g>
<linearGradient id="SVGID_1_" gradientUnits="userSpaceOnUse" x1="103.4372" y1="397.8724" x2="103.4372" y2="397.8724">
	<stop  offset="0" style="stop-color:#FFB300"/>
	<stop  offset="0.3585" style="stop-color:#FC6C00"/>
	<stop  offset="0.8909" style="stop-color:#F80500"/>
</linearGradient>
<path class="st2" d="M103.4,397.9"/>
<g>
	
		<radialGradient id="SVGID_2_" cx="80.3967" cy="178.0146" r="39.8713" gradientTransform="matrix(0.9851 0.1718 -0.1718 0.9851 92.8849 114.9081)" gradientUnits="userSpaceOnUse">
		<stop  offset="0" style="stop-color:#F89938"/>
		<stop  offset="0.456" style="stop-color:#D96D2E"/>
		<stop  offset="0.7692" style="stop-color:#C44F27"/>
	</radialGradient>
	<path class="st3" d="M175.5,349.3c-0.5-4.5-10.5-3.4,1.5-13.7c12-10.2,18.5-22.1,17.3-31.4c-0.4-2.9-7.1-10.3-7.6-9.7
		c-1.3,1.6,0.8,2.7,0.2,3.3c-0.9,0.7-17.5-19.5-21.7-24.5c-5.6-6.8-10.7-12.4-10.7-12.4s-6.1,10-1.4,20.5
		c7.7,17,23.3,19.6,11.4,27.3c-11.6,7.5-36.7,15-40,35.5C122.9,355.3,176.8,359.8,175.5,349.3z"/>
	<path class="st4" d="M156.7,263.2c-1.3-1.5-2.2-2.4-2.2-2.4s-6.1,10-1.4,20.5c7.7,17,23.3,19.6,11.4,27.3
		c-11.6,7.5-36.7,15-40,35.5c-0.8,5,9.4,8.7,20.8,10.4c-7.8-9.7-12.5-18.1,4-27.8c19.7-11.7,19.4-11.4,26.5-15.2
		c7.2-3.7,3.1-9.1,0.4-11c-2.7-1.8-17.3-14.4-19.3-21.3C155.8,274.1,157.3,266.9,156.7,263.2z"/>
	<g>
		<path class="st5" d="M3.4,288.4c0,0-21-3-37.7-6.9c-16.7-3.9-16.3-6-22.1-10.4c-5.8-4.5-13-0.2-12,7.2c0.7,4.6-8.3,4.3-4.7,14.1
			c2.4,6.5,6.5,4.6,11.7,2.8c3-1,6.4-2,10-1.5c10.1,1.5,31.9,7.4,44.2,11.3c10.3,3.3,18.5,6.3,18.5,6.3L3.4,288.4z"/>
		<path class="st6" d="M-70.4,282c-2.2,1.9-4.9,4.1-2.6,10.3c2.4,6.5,6.5,4.6,11.7,2.8c3-1,6.4-2,10-1.5c9.5,1.4,29.2,6.7,41.8,10.6
			c0.5-2.9,0.4-5.7,0.6-6.7c0.5-2.3-39.2-6.1-40.4-7.4c-1.2-1.4,0.1-6.9,1.1-8c0.9-1.1-7.1,7.5-7.2,8.1c-0.1,0.7-9.6,4.1-13.9,0
			c-4.3-4.1,0.3-8.2,1.2-9.3C-67.8,280.7-68.9,281.2-70.4,282z"/>
		<path class="st7" d="M-58.6,271.7c-2.7-1.6-3.9-2.6-5.8-0.1c-2,2.6-2.7,5.9-1.2,7.2c1.5,1.2,4.1-2.4,8.6-0.9
			c4.5,1.4,10.1,4.2,7.7,1.1C-51.7,275.9-58.6,271.7-58.6,271.7z"/>
	</g>
	
		<radialGradient id="SVGID_3_" cx="56.6" cy="270.8679" r="64.6294" gradientTransform="matrix(0.9971 -7.650000e-002 7.650000e-002 0.9971 -20.691 46.827)" gradientUnits="userSpaceOnUse">
		<stop  offset="0" style="stop-color:#F89938"/>
		<stop  offset="0.456" style="stop-color:#D96D2E"/>
		<stop  offset="0.7692" style="stop-color:#C44F27"/>
	</radialGradient>
	<path class="st8" d="M82.7,260.8c38.9,4.7,50,35.4,50.6,58.6c0.6,23.2-8.7,32.5-28.8,39.1c-20.1,6.6-62-3.8-87.8-23.4
		c-25.9-19.6-36.8-25.8-37.6-35.7c-0.8-10-0.7-13.8,5-18c9.4-6.9,30.8-3.7,43.9-7.2C49.6,268.3,64.4,258.6,82.7,260.8z"/>
	<path class="st4" d="M112.9,272.9c14.9,12.2,20,31,20.4,46.5c0.2,6.2-0.4,11.4-1.6,15.8c-10.3,5.9-22.7,11.3-37.7,16
		c-8.6,2.7-17.9,4.8-27.6,6.3c-17.3-4-35.8-11.9-49.7-22.4c-25.9-19.6-36.8-25.8-37.6-35.7c-0.8-10-0.7-13.8,5-18
		c0.4-0.3,0.9-0.6,1.4-0.9c12,15.3,49.5,29.5,62.7,28.8c24.8-1.4,32.7-5.8,52.5-19.9C106.7,285.2,110.9,279.4,112.9,272.9z"/>
	
		<radialGradient id="SVGID_4_" cx="99.4748" cy="2487.8735" r="161.2604" gradientTransform="matrix(0.9971 -7.647400e-002 5.970200e-002 0.7784 -153.1129 -1653.0654)" gradientUnits="userSpaceOnUse">
		<stop  offset="0" style="stop-color:#F89938"/>
		<stop  offset="7.598418e-002" style="stop-color:#F29136"/>
		<stop  offset="0.456" style="stop-color:#D96D2E"/>
		<stop  offset="0.7692" style="stop-color:#C44F27"/>
	</radialGradient>
	<path class="st9" d="M99.5,268.5c-64,4-141.3,51.9-133.3,80.9c17.5,63.3,110.4,73.6,152.5,74.4c58,1,93.7-19,103.6-36.9
		c9.9-18-10.7-24.5-3.3-43.2C235.1,302.5,164.2,264.4,99.5,268.5z"/>
	<g>
		<path class="st10" d="M-16.9,361.1c0,0-21-3-37.7-6.9c-16.7-3.9-16.3-6-22.1-10.4c-5.8-4.5-13-0.2-12,7.2
			c0.7,4.6-8.3,4.3-4.7,14.1c2.4,6.5,6.5,4.6,11.7,2.8c3-1,6.4-2,10-1.5c10.1,1.5,31.9,7.4,44.2,11.3c10.3,3.3,18.5,6.3,18.5,6.3
			L-16.9,361.1z"/>
		<path class="st6" d="M-90.8,354.7c-2.2,1.9-4.9,4.1-2.6,10.3c2.4,6.5,6.5,4.6,11.7,2.8c3-1,6.4-2,10-1.5
			c9.5,1.4,29.2,6.7,41.8,10.6c0.5-2.9,0.4-5.7,0.6-6.7c0.5-2.3-39.2-6.1-40.4-7.4c-1.2-1.4,0.1-6.9,1.1-8c0.9-1.1-7.1,7.5-7.2,8.1
			c-0.1,0.7-9.6,4.1-13.9,0c-4.3-4.1,0.3-8.2,1.2-9.3C-88.2,353.4-89.2,353.9-90.8,354.7z"/>
		<path class="st7" d="M-78.9,344.4c-2.7-1.6-3.9-2.6-5.8-0.1c-2,2.6-2.7,5.9-1.2,7.2c1.5,1.2,4.1-2.4,8.6-0.9
			c4.5,1.4,10.1,4.2,7.7,1.1C-72.1,348.6-78.9,344.4-78.9,344.4z"/>
	</g>
	
		<radialGradient id="SVGID_5_" cx="35.5973" cy="1534.8651" r="98.8665" gradientTransform="matrix(0.9971 -7.647400e-002 6.629100e-002 0.8643 -101.9149 -985.5103)" gradientUnits="userSpaceOnUse">
		<stop  offset="0" style="stop-color:#F89938"/>
		<stop  offset="0.456" style="stop-color:#D96D2E"/>
		<stop  offset="0.7692" style="stop-color:#C44F27"/>
	</radialGradient>
	<path class="st11" d="M58.2,322.8c39.1-0.1,53.9,29.1,57.3,52.1c3.4,23-4.7,33.3-23.9,42.3c-19.1,9-62,3.8-90-12.6
		c-28-16.4-39.6-21.1-41.7-30.9c-2-9.8-2.3-13.6,2.8-18.5C-14.6,334,28.6,322.9,58.2,322.8z"/>
	<path class="st4" d="M95.1,335.2c12.4,10.6,18.4,26.2,20.4,39.7c3.4,23-4.7,33.3-23.9,42.3c-19.1,9-62,3.8-90-12.6
		c-28-16.4-39.6-21.1-41.7-30.9c-2-9.8-2.3-13.6,2.8-18.5c2.7-2.5,5.6-4.8,8.8-7.1c-15.6,36.5,112.5,70.1,125.5,25.3
		C101.1,359.6,97.3,342.8,95.1,335.2z"/>
	
		<radialGradient id="SVGID_6_" cx="187.7187" cy="292.3175" r="80.0453" gradientTransform="matrix(0.9971 -7.650000e-002 7.650000e-002 0.9971 -20.691 46.827)" gradientUnits="userSpaceOnUse">
		<stop  offset="0" style="stop-color:#F89938"/>
		<stop  offset="0.456" style="stop-color:#D96D2E"/>
		<stop  offset="0.7692" style="stop-color:#C44F27"/>
	</radialGradient>
	<path class="st12" d="M188.7,381.3c-1.8-4.6-11.9-0.8-2-14.7c9.9-13.9,13.5-28.1,9.8-37.6c-1.2-2.9-10.2-8.9-10.5-8.2
		c-1,2,1.6,2.6,1.1,3.4c-0.8,1-23.5-15.7-29.3-19.9c-7.7-5.6-14.5-10.2-14.5-10.2s-3.8,12.1,4,21.8c12.6,15.8,29.6,14.3,19.3,25.5
		c-10.2,11-34.5,25.5-32.5,47.8C135.1,401.6,192.8,392,188.7,381.3z"/>
	<path class="st4" d="M146.1,296.1c-1.8-1.2-2.9-2-2.9-2s-3.8,12.1,4,21.8c12.6,15.8,29.6,14.3,19.3,25.5
		c-10.2,11-34.5,25.5-32.5,47.8c0.5,5.5,12.2,6.7,24.6,5.3c-10.7-8.1-17.9-15.6-3.2-30.2c17.6-17.5,17.3-17.2,23.8-23
		c6.5-5.8,0.8-10.4-2.5-11.6c-3.3-1.2-22-10.4-25.9-17.2C148,307.7,147.7,299.8,146.1,296.1z"/>
	<path class="st13" d="M-0.2,348.8c61.3-3.9,70.1,30.5,89,14c4.3-3.8,6-7.7,3.8-17.8c-5.1-23.4-34.5-22.5-58-19.6
		C18.9,327.2-57.9,352.4-0.2,348.8z"/>
</g>
</svg>
