<?xml version="1.0" encoding="utf-8"?>
<!-- Generator: Adobe Illustrator 19.0.0, SVG Export Plug-In . SVG Version: 6.00 Build 0)  -->
<svg version="1.1" id="Layer_1" xmlns="http://www.w3.org/2000/svg" xmlns:xlink="http://www.w3.org/1999/xlink" x="0px" y="0px"
	 viewBox="-272 395.9 50 50" style="enable-background:new -272 395.9 50 50;" xml:space="preserve">
<style type="text/css">
	.st0{clip-path:url(#SVGID_2_);}
	.st1{fill:#16479D;}
	.st2{fill:#1E3364;}
	.st3{fill:#04BDD0;}
	.st4{fill:#FFFFFF;}
	.st5{fill:#13C0E6;}
	.st6{fill:#3857A6;}
	.st7{fill:#00ADEE;}
	.st8{clip-path:url(#SVGID_4_);}
	.st9{fill:url(#SVGID_5_);}
	.st10{fill:#AEBDBD;}
	.st11{fill:none;}
	.st12{fill:#D3E4E5;}
	.st13{fill:#CCCFD1;}
	.st14{fill:url(#SVGID_6_);}
	.st15{fill:url(#SVGID_7_);}
	.st16{fill:url(#SVGID_8_);}
	.st17{fill:#E0E2E5;}
	.st18{fill:url(#SVGID_9_);}
	.st19{fill:#7BD0EB;}
	.st20{fill:url(#SVGID_10_);}
</style>
<g id="Layer_3">
</g>
<g id="Layer_1_1_">
</g>
<g>
	<g>
		<g>
			<g>
				<defs>
					<path id="SVGID_1_" d="M-239.8,416.1C-239.8,416-239.8,416-239.8,416.1c-0.1-0.7-3.9-1.3-8.5-1.3c-4.6,0-8.3,0.6-8.2,1.3
						l2.7,26c-0.1-0.5,2.4-0.9,5.6-0.9c3.1,0,5.7,0.4,5.8,0.8c0,0,0,0,0,0C-241.7,434.3-240.6,423.9-239.8,416.1z"/>
				</defs>
				<clipPath id="SVGID_2_">
					<use xlink:href="#SVGID_1_"  style="overflow:visible;"/>
				</clipPath>
				<g class="st0">
					<path class="st1" d="M-251.3,424.4c-0.1,0.3-0.1,0.5,0,0.8c-0.9,0.3-1.6,0.7-2.1,1c0,0-0.1,0.1-0.1,0.1c0,0-0.1,0-0.1,0
						c-0.2,0-0.9,0-1.3,0.2c-0.3,0.1-0.4,0.3-0.4,0.4c0.1-1.2,1.2-1.9,1.2-1.9C-254.1,425-253.7,424.9-251.3,424.4 M-248.8,423
						c0,0.1-0.1,0.2-0.1,0.4c-0.3,0-0.5,0.1-0.6,0.3c-0.5-0.3-1.3-0.2-1.7,0.5c-0.5,0.1-1.2,0.2-2.3,0.3
						C-252.2,423.9-250.8,423.4-248.8,423 M-245,422.6c-0.1,0-0.3,0.1-0.4,0.1c0,0,0-0.1-0.1-0.1
						C-245.3,422.6-245.1,422.6-245,422.6 M-240.8,426.3C-240.8,426.3-240.8,426.2-240.8,426.3c0-0.2,0-0.3-0.3-0.5
						c0,0-0.8-0.5-1.6-0.8c-0.9-0.4-2.2-0.5-2.7-0.6c0.3-0.4,0.3-0.9,0.2-1.3c2.4-0.6,2.4-0.6,3.6-0.3c1,0.3,1,0.5,1,0.8l0,0
						L-240.8,426.3 M-240.5,423.2c0-0.5-0.5-0.7-0.9-0.8c0.8,0,0.9,0.1,0.9,0.2l0,0L-240.5,423.2 M-256.1,416.4
						c0-0.3-0.1-0.6-0.2-0.6c0,0,0,0-0.1,0c0,0,0,0,0,0c-0.1,0.2,0,1.4,0.2,1.3C-256.1,417-256.1,416.7-256.1,416.4 M-255.5,425.7
						L-255.5,425.7C-255.5,425.7-255.5,425.7-255.5,425.7C-255.5,425.7-255.5,425.7-255.5,425.7 M-240.3,421.3L-240.3,421.3
						c-0.1-0.1-0.3-0.1-2.2,0.5c-0.4,0.1-0.4,0.1-3,0.2c0.2-0.5-0.2-0.7-0.3-0.7c-0.4-0.1-0.8,0.2-0.5,0.7c-6.3,0.5-8.2,1.9-8.7,2.5
						c-0.2,0.2-0.2,0.2-0.5,0.3l0,0c-0.2-2.2-0.2-2.2-0.2-2.4c0,0,0.2-3.6-0.3-3.9c-0.2,0.4,0,0.8,0,1.3l0,0l-0.4-3.7
						c-0.1-0.7,3.6-1.3,8.2-1.3c4.6,0,8.4,0.5,8.5,1.2c0,0,0,0,0,0L-240.3,421.3"/>
					<path class="st2" d="M-246.6,439.5c0.4,0.4,0.4,1.1,0.1,1.5c-0.1-0.2-0.3-0.4-0.4-0.5C-247,440.4-247,439.9-246.6,439.5
						 M-247,439.4c0.1,0,0.2,0,0.3,0.1c-0.4,0.4-0.4,0.9-0.4,1c-0.1-0.1-0.4-0.2-0.8-0.2C-247.8,440-247.6,439.4-247,439.4
						 M-245.6,440.5c0,0.3-0.2,0.6-0.4,0.7l0,0c-0.2,0-0.3,0-0.5,0c0,0,0-0.1,0-0.1c0.3-0.4,0.4-1.1-0.1-1.6
						c0.1-0.1,0.2-0.1,0.3-0.1C-245.8,439.4-245.5,440-245.6,440.5 M-244.3,438c0,0.1,0,0.2-0.1,0.3c-0.3,0.6-0.9,0.5-1.1-0.2
						C-245.1,438-244.7,438-244.3,438 M-242.5,442.1C-242.5,442-242.5,442-242.5,442.1c0-0.4-1.4-0.7-3.4-0.8
						c0.1-0.1,0.2-0.2,0.3-0.4c0.3-0.7-0.2-1.8-1-1.3c-0.4-0.3-1.1-0.2-1.2,0.9c-0.4,0.1-0.5,0.2-0.9,0.6l-0.1,0.2
						c-0.2,0-0.5,0-0.7,0c0-0.3,0-0.5-0.1-0.8c0.5-0.2,0.5-0.8,0.3-1.1c-0.2-0.4-0.8-0.5-1,0.2c-0.4-0.2-1.5-0.4-1.5,1.5
						c-0.3,0.1-0.3,0.2-0.5,0.5l0,0c-0.8,0.1-1.3,0.3-1.4,0.5c0.2-1.1,1.5-3.2,8.2-3.9c0,0.1,0.1,0.2,0.1,0.3
						c0.3,0.5,0.9,0.7,1.2-0.3c0.5,0,0.8,0,1.2,0.1c0.8,0.2,0.9,0.5,0.9,0.7l0,0L-242.5,442.1 M-244.9,436.8c0.4,0,0.7,0.6,0.6,1.2
						c-0.4,0-0.8,0-1.3,0C-245.7,437.4-245.4,436.8-244.9,436.8 M-245.1,436.8c-0.3,0.1-0.6,0.6-0.5,1.2c-4.6,0.4-7.6,1.8-8.2,3.7
						c0,0.1,0,0.2,0,0.3c0,0,0,0.1,0,0.1c-0.2-1.8-0.3-2.5,1.5-3.7c2.4-1.6,5.5-1.6,6.8-1.7c0.1,0,0.3,0,0.4,0
						C-245.1,436.7-245.1,436.8-245.1,436.8 M-242.1,438.8c0-0.8-1.6-0.8-2.1-0.8c0-0.2,0.1-1-0.5-1.2c0.5,0,0.8,0,1.3,0.1
						c1.3,0.2,1.4,0.6,1.5,0.8c0,0,0,0.1,0,0.2L-242.1,438.8 M-242,437.7C-242,437.7-242,437.7-242,437.7c-0.1-1.1-3-1.2-5.8-0.9
						c2-0.3,3.4-0.4,4.7-0.3c0.9,0.2,1.1,0.3,1.2,0.7l0,0L-242,437.7 M-242.5,434.8c0.1,0,0.2,0,0.2,0.1c0.2,0.4,0.3,0.7,0.4,0.9
						c-0.8-0.9-5.8-0.9-9.5,0.3C-250.2,435.3-245.1,434.3-242.5,434.8"/>
					<path class="st2" d="M-255.8,421.1c0,0.6,0,1.1,0,1.4c0,0.1,0,0.1,0,0.2l-0.3-2.9c0,0,0,0,0,0c0,0,0,0,0,0
						c0.1,0.4,0.1,0.4,0.1,0.4c0,0,0,0,0,0C-255.8,420.5-255.8,420.8-255.8,421.1"/>
					<path class="st3" d="M-246.7,439.5C-246.6,439.5-246.6,439.5-246.7,439.5c-0.4,0.4-0.4,0.9-0.3,1.1c0,0,0,0,0,0
						C-247,440.4-247.1,439.9-246.7,439.5 M-245.5,440.5c-0.1,0.4-0.3,0.6-0.3,0.7l0,0c0,0,0,0-0.1,0c0.1-0.1,0.3-0.2,0.3-0.5
						c0.2-0.8-0.3-1.6-1-1.2c0,0,0,0,0,0c0.1-0.1,0.2-0.1,0.3-0.1C-245.7,439.4-245.5,440-245.5,440.5"/>
					<path class="st3" d="M-244.3,438c0,0.1-0.1,0.2-0.1,0.4c-0.4,0.6-1,0.3-1.2-0.3c0,0,0,0,0,0c0,0.1,0,0.1,0.1,0.2
						C-245.2,438.9-244.5,438.8-244.3,438C-244.3,438-244.3,438-244.3,438 M-244.8,436.7c0.3,0.1,0.6,0.6,0.5,1.2c0,0,0,0,0,0
						c0.1-0.5,0-0.9-0.3-1.1c-0.2-0.1-0.5-0.2-0.7,0.1c-0.3,0.3-0.2,0.7-0.2,1c0,0,0,0,0,0c-0.1-0.3,0-0.7,0.2-1
						C-245.2,436.7-245,436.7-244.8,436.7"/>
					<path class="st3" d="M-247,439.3c-0.6,0-0.8,0.6-0.8,1.1c0,0,0,0,0,0c0-0.8,0.7-1.3,1.2-0.8c0.3,0.3,0.4,1,0,1.5c0,0,0,0,0,0
						C-246,440.6-246.2,439.3-247,439.3"/>
					<path class="st2" d="M-256.1,418.5c-0.2,0.2,0.1,1.7,0.1,1.7C-255.8,420.1-255.7,418.8-256.1,418.5
						C-256.1,418.5-256.1,418.5-256.1,418.5"/>
					<path class="st2" d="M-256.1,416.4c0,0.4-0.1,0.8-0.2,0.7c-0.1-0.1-0.2-1.1-0.1-1.3c0,0,0,0,0.1,0
						C-256.2,415.8-256.1,416.1-256.1,416.4"/>
					<path class="st2" d="M-251.2,424.2c0,0.1,0,0.1-0.1,0.2c-1.5,0.3-2.1,0.4-2.9,0.6c0.4-0.3,0.7-0.5,0.7-0.5c0,0,0.1,0,0.1,0
						C-252.3,424.4-251.6,424.3-251.2,424.2 M-255.3,424.8c-0.2,0.4-0.2,0.6-0.2,0.8v0c0-0.3-0.1-0.6-0.1-0.9
						C-255.5,424.8-255.4,424.8-255.3,424.8C-255.3,424.8-255.3,424.8-255.3,424.8 M-243,422.6c-0.6,0.1-1.2,0.2-2.3,0.5
						c0-0.1-0.1-0.2-0.2-0.4c0.1,0,0.2-0.1,0.4-0.1C-243.9,422.5-243.2,422.6-243,422.6 M-240.5,422.6
						C-240.5,422.6-240.5,422.6-240.5,422.6c0-0.1-0.1-0.3-0.7-0.2c-0.1,0-0.2,0-0.2,0c-0.1,0-0.3-0.1-0.4-0.1
						c-0.2,0-0.2-0.1-0.3-0.1c-0.4-0.1-0.7-0.1-1.3-0.2c2-0.6,2.6-0.8,3-0.8c0,0,0,0,0,0L-240.5,422.6"/>
					<path class="st3" d="M-251.2,436c-0.1,0.1-0.2,0.2-0.4,0.2c0,0,0,0-0.1,0c-0.2,0.1-0.5,0.2-0.7,0.3
						C-252,436.3-251.6,436.1-251.2,436 M-249.1,427.6c0,0,1,0.5,2.4,1.6c-2.5,0.4-6.2,1.1-7.8,1.7
						C-253.7,429.4-251.9,428.3-249.1,427.6 M-241.6,433.7c0-0.5-1.6-2.5-4.1-4.5c1.7-0.3,2.7-0.5,3.8-0.9c0.1,0,0.2-0.1,0.3-0.1
						c0.4,0.4,0.4,0.6,0.5,0.9l0,0L-241.6,433.7 M-244.7,427.3c1.8,0.2,2.5,0.6,2.9,0.8c-1.3,0.4-4.2,0.9-4.2,0.9
						c-0.1,0-0.1-0.1-0.1-0.1c-1.1-0.8-2.1-1.3-2.4-1.4C-248,427.4-246.6,427.2-244.7,427.3 M-255.1,428.2c-0.1,0.4-0.1,0.7-0.1,0.9
						l0,0C-255.2,428.6-255.2,428.6-255.1,428.2c0-0.1,0.1-0.2,0.1-0.3C-255,428-255,428.1-255.1,428.2 M-244.2,433.4
						c-2.8-0.2-9.9,0.6-10.1,3.5l0,0.1c-0.6-5.4-0.6-5.4-0.4-5.6c0.4-0.3,6.2-1.8,8.3-2c1.8,1.7,2.8,3.1,3.3,4.1
						C-243.9,433.4-244.2,433.4-244.2,433.4 M-240.9,426.9c0-0.5-0.1-0.8-0.5-1.2c0,0-0.1-0.1-0.1-0.1c0.5,0.2,0.7,0.4,0.7,0.6
						l0,0.1L-240.9,426.9"/>
					<path class="st4" d="M-242.4,434.9c-2.3-0.8-11.6,0.6-11.8,3.7l0,0.1c-0.3-2.6-0.3-2.9,1.3-3.8c2-1.1,5.2-1.7,8.7-1.6
						c0.5,0,0.8,0.1,1.1,0.1C-242.8,433.9-242.5,434.6-242.4,434.9"/>
					<path class="st2" d="M-246.3,422.2c-0.5-0.1-0.8,0.1-0.9,0.2c-0.4-0.2-1.2-0.2-1.7,0.7c-4.1,0.8-6.5,2.3-6.5,4l0,0
						c-0.2-1.9-0.2-2.3,1-3.1c2-1.2,4.8-1.6,7.1-1.8c0.3,0,0.6,0,0.9,0C-246.4,422.1-246.4,422.1-246.3,422.2 M-240.6,423.5
						C-240.6,423.5-240.6,423.5-240.6,423.5c0-1-2.5-1.1-4.9-0.9c-0.2-0.2-0.3-0.3-0.5-0.4c0.2,0,0.3-0.1,0.4-0.3
						c1.4,0,2.4,0,3.4,0.2c1.6,0.3,1.7,0.8,1.7,1l0,0L-240.6,423.5"/>
					<path class="st3" d="M-249.2,437.1c-1.5,0.4-4.9,1.5-4.7,3.8l0,0c-0.1-1.2-0.2-1.6,0.7-2.3c1.1-0.9,3.1-1.3,3.8-1.5
						c0.2,0,0.5-0.1,0.7-0.1C-248.9,437.1-249,437.1-249.2,437.1 M-242,437.3C-242,437.3-242,437.3-242,437.3c0-0.1,0-0.2,0-0.2
						c-0.6-1.3-11.3-0.4-12,2.7c0,0.1,0,0.2,0,0.4c-0.2-2.1-0.3-2.6,1.7-3.6c1.6-0.8,4.8-1.5,8.3-1.3c2,0.2,2.1,0.6,2.1,1.2l0,0.1
						L-242,437.3"/>
					<path class="st5" d="M-242.1,438.8l0.1-1c0-0.4-0.4-0.9-2.7-1c-3.2-0.1-9.4,0.8-9.3,3.4l0.2,1.9c0,0,0-0.1,0-0.1
						c0-0.5,0.3-0.9,0.4-1.1C-251.3,438.1-242.3,437.1-242.1,438.8 M-242.1,438.9c0-0.1,0-0.2,0-0.2c-0.6-1.1-10-0.7-11.5,2.9
						c0,0.1-0.1,0.3-0.1,0.4c0,0,0,0.1,0,0.1c-0.3-2.8-0.3-3.1,1.2-3.9c2.4-1.3,6.3-1.7,8.8-1.4c1.3,0.2,1.6,0.4,1.7,0.8
						c0,0,0,0.1,0,0.2L-242.1,438.9"/>
					<path class="st6" d="M-254.8,431.7c0,0.3,0,0.4,0,0.7l0,0.1c0-0.3-0.1-0.6-0.1-0.8c0,0,0,0,0,0v0c0,0,0,0,0,0v0c0,0,0,0,0,0v0
						c0,0,0,0,0,0v0c0,0,0-0.1,0.2-0.2C-254.7,431.5-254.8,431.6-254.8,431.7 M-249.6,427.8c-1.6,0.4-2.7,1-3.1,1.3
						c-0.5,0.3-0.9,0.7-0.9,0.7c-0.4,0.3-0.6,0.8-0.9,1.2c-0.1,0.1-0.3,0.1-0.4,0.2c0,0,0,0,0,0l0,0c-0.3-3.3-0.4-3.7,1.7-4.2
						c1.5-0.3,2.7-0.1,4.2,0.7C-249.2,427.7-249.4,427.7-249.6,427.8 M-241.1,429.2c0-0.4-0.2-0.7-0.4-1c0.5-0.2,0.5-0.3,0.6-0.4
						l0,0L-241.1,429.2 M-241,427.8c0,0.2-0.4,0.3-0.7,0.4c-0.3-0.2-0.8-0.5-2-0.7c-0.1,0-0.3-0.1-0.5-0.1c-1.3-0.2-2.7-0.1-4.1,0.1
						c-0.2,0-0.2,0-1.4-0.4c-1.8-0.7-3.3-0.7-3.8-0.7c0.7-0.5,1.3-0.7,2.2-1.1c0.2,0.6,1.3,1.5,2.3-0.1c0.3,0,0.7,0,1-0.6
						c0.2,0,0.4,0,0.6,0c0.5,0.4,1.3,0.6,1.9,0c0,0,0.1-0.1,0.1-0.1c2.8,0.3,4.4,1.1,4.5,2.4l0,0.1L-241,427.8"/>
					<path class="st4" d="M-246,429.1c-0.2,0-0.4,0.1-0.7,0.1c-4.8-4-8.5-2.3-8.5-0.4l0,0.1c-0.2-2.1-0.2-2.1,0.1-2.3
						C-254.1,426.2-250.6,425.8-246,429.1C-246,429.1-246,429.1-246,429.1 M-241.9,436.5c0-1-1.3-4.1-4.6-7.1c0.3,0,0.5-0.1,0.8-0.1
						c2.6,2.1,3.9,3.8,4.1,4.3c0,0,0,0.1,0,0.2L-241.9,436.5"/>
					<path class="st3" d="M-252.4,441.5c0.2-0.4,0.4-0.5,0.6-0.5c0,0.2,0,0.4,0,0.4C-252,441.4-252.2,441.4-252.4,441.5"/>
					<path class="st3" d="M-249.5,441c0,0.1,0,0.2,0,0.2c-0.8,0-1.6,0.1-2.2,0.2c-0.1-0.8,0-1.9,1-2.1c0.2,0,0.3,0,0.6,0.1
						c-0.1,0.6,0.2,1.1,0.7,0.9C-249.6,440.5-249.5,440.7-249.5,441"/>
					<path class="st3" d="M-248.2,441.2c-0.2,0-0.4,0-0.6,0c0.3-0.5,0.7-0.8,1.2-0.8c0.7,0,1,0.5,1.1,0.8
						C-247,441.2-247.6,441.2-248.2,441.2"/>
					<path class="st3" d="M-249.8,439c-0.6,0.1-0.7,1-0.3,1.3c0.4,0.3,0.9-0.1,0.8-0.7C-249.3,439.3-249.5,439-249.8,439"/>
					<path class="st6" d="M-246.4,422.2c-0.3,0-0.5,0.1-0.8,0.2c1,0.5,0.8,1.8,0,2.1c-0.1,0-0.1,0-0.2,0.1c1,0.9,2.4,0.2,2.3-1.1
						C-245.2,422.7-245.7,422.2-246.4,422.2"/>
					<path class="st6" d="M-247.7,422.3c-0.8,0-1.2,0.6-1.2,1.1c0.7-0.1,1.1,0.5,0.9,1.1c1.1,0.3,1.8-0.9,1.3-1.7
						C-246.9,422.5-247.3,422.3-247.7,422.3"/>
					<path class="st6" d="M-248.8,423.4c-0.3,0-0.5,0.1-0.7,0.3c0.6,0.4,0.6,0.9,0.5,1.4c0.8,0.1,1.4-0.7,0.9-1.3
						C-248.2,423.7-248.4,423.4-248.8,423.4"/>
					<path class="st6" d="M-250.2,423.6c-1.1,0.1-1.4,1.5-0.7,2.2c0.8,0.7,2,0,2-1.1C-249,424-249.6,423.5-250.2,423.6"/>
					<path class="st6" d="M-246,421.3c-0.5,0-0.6,0.5-0.4,0.8c0.3,0.3,0.8,0.1,0.8-0.3C-245.5,421.5-245.8,421.3-246,421.3"/>
					<path class="st6" d="M-241,427.9c-0.2,0.3-1,0.7-5,1.4c-5,1-5.4,1.1-7,1.5c-1.6,0.4-1.8,0.6-1.9,0.8c0,0,0,0,0,0c0,0,0,0,0,0v0
						c0,0,0,0,0,0v0c0,0,0,0,0,0v0c0,0,0,0,0,0l0,0l0-0.5c0.2-0.3,1.9-0.7,2.5-0.9c3.2-0.7,6.4-1.1,9.6-1.8c0.8-0.2,1.9-0.5,1.9-0.7
						L-241,427.9"/>
				</g>
			</g>
			<g>
				<path class="st7" d="M-253.8,442.1c0.1,0.5,2.6,0.8,5.8,0.8c3.1,0,5.6-0.4,5.6-0.9c-0.1-0.5-2.6-0.8-5.8-0.8
					C-251.4,441.2-253.9,441.6-253.8,442.1z"/>
			</g>
			<g>
				<defs>
					<path id="SVGID_3_" d="M-242.5,442.1l2.7-26c-0.1,0.7-3.7,1.2-8.2,1.2c-4.6,0-8.4-0.5-8.5-1.2l2.7,26c0.1,0.5,2.6,0.8,5.8,0.8
						C-245,442.9-242.5,442.5-242.5,442.1z"/>
				</defs>
				<clipPath id="SVGID_4_">
					<use xlink:href="#SVGID_3_"  style="overflow:visible;"/>
				</clipPath>
				<g class="st8">
					<path class="st1" d="M-254.9,431.4c0.1,0.4,0.7,0.4,1,0.4c-0.7-0.6-1-1.1-1.1-1.6l0-0.1L-254.9,431.4 M-245.6,426.5l-1.1,0.4
						c0,0.1,0,0.2,0,0.3c-0.1,0.4-0.8,0.6-1.1,0c-1.9,0.5-3.5,0.8-5.2,1.1c1.1,0.9,2.2,1.6,3.7,2.5c1.8-0.6,1.9-0.7,2-0.8
						c-0.5,0.1-0.9-0.4-0.7-0.8c0.2-0.4,1-0.6,1.2,0.1c0.2-0.1,0.7-0.4,1.2,0.1c0.5-0.2,0.5-0.2,0.5-0.3c0-0.1,0.2-0.5,0.7-0.6
						c0.3-0.8,1.2-1.2,1.6-0.5c0.3-0.2,0.6-0.3,0.8-0.5C-242.7,427.1-243.7,426.9-245.6,426.5 M-250,425.7c-0.1,0-0.3,0.1-0.4,0.1
						c-0.7,0.2-2.6,0.5-4.3,0.8c0.3,0.3,0.6,0.6,1,1c2.8-0.2,6.1-1,7.2-1.3C-249.4,425.8-249.4,425.8-250,425.7 M-255.7,424.2
						c0,0,0.1,0,0.1,0c0,0,0,0,0,0C-255.6,424.2-255.7,424.2-255.7,424.2L-255.7,424.2L-255.7,424.2 M-244.9,426.6
						c2.1,0.4,2.7,0.6,3.1,0.7c0.8-0.6,0.9-0.8,0.9-1l0,0c0.1-0.8,0.2-1.9,0.3-2.7c-0.3,0.9-1.9,1.8-4.9,2.9
						C-245.3,426.5-245.1,426.5-244.9,426.6 M-249.5,425.7c1.1,0.2,3,0.6,3,0.6c1.5-0.4,5.1-1.5,5.9-2.9c0-0.1,0-0.1,0.1-0.2
						l0.1-0.6c-0.1,0.3-1.2,1.3-9.4,3.1C-249.8,425.7-249.6,425.7-249.5,425.7 M-249.4,417.9c-0.8,0.1-1.3,0.6-1.4,1.3
						c0.2,0.2,0.5,0.2,0.7,0.2C-249.2,419.4-248.7,418.5-249.4,417.9 M-249,417.9c0,0-0.1,0-0.3,0c0.1,0.1,0.2,0.2,0.3,0.5
						c0.2,0.8-0.9,1.5-1.7,0.9c0,0,0,0,0,0c0,1.5,2,2.3,3.2,1.1C-246.8,419.5-247.2,418-249,417.9 M-250.2,417.6c0,0-0.1,0-0.1,0
						c-0.9,0-1.2,1-0.5,1.6c0.1-0.7,0.6-1.2,1.4-1.3C-249.7,417.7-249.9,417.6-250.2,417.6 M-249.4,417.8c0.2,0,0.3,0,0.3,0
						c1.8,0.1,2.4,1.6,1.5,2.6c-1.2,1.2-3.3,0.4-3.3-1.2c-0.2-0.2-0.4-0.5-0.4-0.7C-251.3,417.6-250.2,417.2-249.4,417.8
						 M-255.7,424C-255.7,424-255.6,424.1-255.7,424c1,0.6,9.7-0.9,9.8-0.9c-0.2-0.3-0.1-0.6,0.1-0.9c0.2-0.2,1.4-1.1,1.5,0.6
						c2.7-0.7,3.7-1.1,4-1.4l0,0l0.5-5.2c-0.1,0.7-3.7,1.2-8.2,1.2c-4.6,0-8.4-0.5-8.5-1.2L-255.7,424"/>
					<path class="st2" d="M-248,442.9c3.1,0,5.5-0.4,5.6-0.8c0.1-1,0.2-2.2,0.3-3.2c-0.2,1-2.4,2.3-6,3.4c-0.6,0.2-1,0.3-1.8,0.5
						C-249.4,442.9-248.7,442.9-248,442.9 M-250.1,442.8c0.1,0,7-1.8,7.9-3.9l0-0.1c0-0.3,0.1-0.7,0.1-1c-0.3,1.7-3.3,2.5-11.4,4.5
						c0,0-0.1,0-0.1,0C-253.1,442.5-251.8,442.7-250.1,442.8 M-250.5,441.5c7.1-1.6,8.3-3.3,8.4-3.7l0-0.1c0-0.1,0-0.3,0-0.4
						c-0.6,1.9-6.5,3.6-9.1,4.3C-250.9,441.6-250.6,441.6-250.5,441.5 M-243.1,436.9c-0.2,0-0.4,0.2-0.6,0.4
						c-2.7,1.6-9.3,3.2-10.3,3.3c0.7,0.1,8.4-0.9,11.6-3.5C-242.6,437-242.9,436.9-243.1,436.9"/>
					<path class="st3" d="M-249.4,417.9c-0.8,0.2-1.3,0.6-1.4,1.3c0,0,0,0,0.1,0C-250.7,418.5-250.2,418-249.4,417.9
						C-249.4,417.9-249.4,417.9-249.4,417.9 M-249,417.8c0,0-0.2,0-0.3,0c0,0,0,0,0,0C-249.2,417.9-249.1,417.9-249,417.8
						c1.7,0.1,2.4,1.6,1.4,2.6c-1.1,1.2-3.2,0.4-3.2-1.1c0,0,0,0-0.1,0c0,0,0,0,0,0c0,1.6,2.1,2.4,3.3,1.2
						C-246.7,419.5-247.1,417.9-249,417.8"/>
					<path class="st3" d="M-249.4,417.9c0.4,0.3,0.4,0.8,0.2,1.1c-0.5,0.8-1.8,0.5-2-0.4C-251.3,417.7-250.2,417.2-249.4,417.9
						 M-250.2,417.5c-0.6,0-1.1,0.4-1.1,0.9c0,0.9,1.3,1.4,2,0.7C-248.7,418.5-249.2,417.6-250.2,417.5"/>
					<path class="st2" d="M-255.6,424.9c0.1,0.7,0.5,1.2,0.9,1.7c1.7-0.3,3.5-0.6,4.7-0.9c-2.2-0.4-3.7-0.8-4.8-1.2
						c-0.5-0.2-0.8-0.3-0.8-0.3l0,0L-255.6,424.9 M-255.2,424.3c1.5,0.6,5.3,1.4,5.3,1.4c0.4,0,8.5-1.7,9.4-3l0-0.1l0.1-1.2
						c0,0.1-0.5,0.6-4,1.4c-0.3,0.9-1.2,0.9-1.6,0.3c-0.5,0.1-0.5,0.1-0.6,0.2c0.3,0.4-0.1,0.6-0.2,0.6c-0.3,0.1-0.7-0.1-0.5-0.5
						C-249.8,423.8-252.5,424.1-255.2,424.3"/>
					<path class="st3" d="M-254.3,437.4c0.1,0.2,0.1,0.4,0.2,0.5c0,0,0,0,0-0.1c0,0,0,0,0.1,0c0.1,0.1,0.3,0.4,0.4,0.9
						c1.5-0.1,5.9-0.8,9.2-2.3c-0.8-0.3-1.9-0.6-3.6-1.3c-1-0.4-1.9-0.8-1.9-0.8c-0.1-0.1-0.3-0.2-0.5-0.2c0,0-3.8,1-4,1.1l0,0
						L-254.3,437.4 M-254.7,433.8c0-0.2,0.6-0.5,2-0.9c-0.5-0.3-0.9-0.6-1.1-0.9c0,0-0.1-0.1-0.1-0.1c-0.1,0-0.2,0-0.3,0
						c-0.6-0.1-0.7-0.3-0.7-0.4l0-0.1L-254.7,433.8 M-247.2,430c-0.2,0.1-0.9,0.3-2,0.7c0.6,0.4,1.1,0.6,1.1,0.6s0.6-0.2,1.3-0.4
						C-247.2,430.6-247.2,430.2-247.2,430 M-245,432.9c2,0.9,3.2,1.2,3.4,1l0-0.1c0.1-1.3,0.3-3.1,0.5-4.5c-0.3,1.1-1.8,2.2-4.5,3.3
						C-245.5,432.7-245.2,432.8-245,432.9 M-245,429.1c-0.2,0.1-0.4,0.2-0.5,0.2c0.4,0.4,0.2,0.9,0.2,1.1c0.2-0.1,0.3-0.1,0.5-0.2
						C-245.1,429.9-245.2,429.5-245,429.1 M-241.9,427.3c-0.3,0.2-0.5,0.3-0.8,0.5c0.2,0.4,0.1,0.9,0,1.1c0.7-0.5,1.1-0.9,1.5-1.3
						C-241.4,427.5-241.6,427.4-241.9,427.3 M-241.7,427.3c0.3,0.1,0.5,0.2,0.5,0.2c0.2-0.3,0.2-0.4,0.3-0.7l0,0
						c0-0.2,0-0.4,0.1-0.6c-0.1,0.3-0.2,0.5-0.9,1C-241.8,427.3-241.7,427.3-241.7,427.3"/>
					<path class="st4" d="M-254,440.5C-254,440.5-254,440.5-254,440.5c0.1,0,7.2-1.4,10.9-3.6c-0.5-0.1-0.9-0.4-1.4-0.4
						c-0.1,0-0.2,0.1-0.3,0.1c-0.2,0.1-1.3,0.6-3.1,1c-1.3,0.3-3.7,0.9-5.8,1.1c0.1,0.5,0,1-0.1,1.1c-0.1,0-0.1,0-0.2-0.3
						c0,0.2,0,0.2-0.1,0.2l0,0L-254,440.5"/>
					<path class="st2" d="M-247.5,426.5c-1.7,0.4-4.1,0.9-6.3,1c0.3,0.3,0.5,0.5,0.8,0.7c1.8-0.3,4.3-0.9,5.2-1.2
						C-247.8,426.8-247.6,426.6-247.5,426.5 M-246.6,426.3C-246.6,426.3-246.6,426.3-246.6,426.3c-0.3,0.1-0.6,0.1-0.6,0.2
						c0.3,0,0.4,0.1,0.5,0.4c0.4-0.1,0.7-0.2,1.1-0.3C-246,426.4-246.2,426.4-246.6,426.3 M-246.3,426.3c1.1,0.2,1.1,0.2,3.2-0.8
						c2-0.9,2.4-1.6,2.5-1.8c0-0.1,0-0.1,0.1-0.2c0-0.1,0-0.2,0-0.3c-0.2,0.7-1.4,1.8-5.9,3.1C-246.4,426.3-246.4,426.3-246.3,426.3
						"/>
					<path class="st3" d="M-253.8,442.1c0,0.1,0.1,0.2,0.2,0.2c0.3,0,0.5-0.1,1.9-0.5C-252.5,442-253.4,442.1-253.8,442.1
						C-253.8,442-253.8,442-253.8,442.1L-253.8,442.1 M-253.8,442C-253.8,442-253.8,442-253.8,442c1.1,0.4,10.6-2.1,11.8-4.5
						c0,0,0-0.1,0-0.2c0-0.2,0.1-0.6,0.1-0.8c-0.3,1.8-10.7,4.5-12.1,4l0,0L-253.8,442"/>
					<path class="st5" d="M-253.8,442.1L-253.8,442.1c0.3,0.3,5.5-0.9,7.6-1.6c3.4-1.2,4.1-2.2,4.2-2.7l-0.1,1c-0.5,1.8-5.7,3.4-8,4
						C-252.2,442.7-253.8,442.4-253.8,442.1 M-253.8,442.1c0,0.4,1.6,0.7,3.9,0.8c2.1-0.6,7-2.1,7.8-3.8l0-0.1
						c0-0.3,0.1-0.8,0.1-1.2C-242.4,439.9-251.8,442.1-253.8,442.1c0-0.1,0-0.1,0-0.1L-253.8,442.1"/>
					<path class="st3" d="M-243.3,427.5c1-0.1,0.7,1.4,0.7,1.5c0,0-0.3,0.2-0.8,0.5c0.1-0.7-0.2-1.2-0.8-1.1
						C-244,427.6-243.5,427.5-243.3,427.5"/>
					<path class="st3" d="M-244.2,428.4c0.7,0,0.8,0.7,0.7,1.1c-0.5,0.2-0.9,0.4-1.4,0.7C-245.5,429.4-244.9,428.4-244.2,428.4"/>
					<path class="st3" d="M-246.2,429.1c0.7,0,1,0.7,0.8,1.3c-0.2,0.1-0.6,0.2-1.5,0.5c-0.4-0.3-0.4-0.7-0.4-0.9
						c0.5-0.2,0.5-0.5,0.5-0.7C-246.7,429.2-246.5,429.1-246.2,429.1"/>
					<path class="st3" d="M-247.3,428.8c0.6,0,0.8,0.6,0.4,1c-0.4,0.4-1,0.1-1-0.4C-248,429.1-247.7,428.8-247.3,428.8"/>
					<path class="st6" d="M-254.5,435.2C-254.5,435.2-254.5,435.2-254.5,435.2c0,0,0,0,4-1.1c-0.9-0.5-1.4-0.8-2.2-1.3
						c-1.8,0.6-1.9,0.8-2,0.9l0,0L-254.5,435.2 M-247.8,431.5c1.3,0.7,2.2,1.1,2.2,1.1c0,0,3.7-1.3,4.4-3.1c0-0.1,0-0.2,0.1-0.2
						c0.1-1.4,0.1-1.4,0-1.5c0,0-0.1,0-0.1-0.1c-1.4,1.9-5.2,3.1-7,3.7C-248.1,431.4-247.9,431.5-247.8,431.5 M-241.1,427.6
						C-241,427.6-241,427.7-241.1,427.6l0.1,0.1c0-0.3,0.1-0.6,0.1-0.9c-0.1,0.3-0.1,0.4-0.3,0.7
						C-241.1,427.6-241.1,427.6-241.1,427.6"/>
					
						<linearGradient id="SVGID_5_" gradientUnits="userSpaceOnUse" x1="362.0547" y1="430.9196" x2="379.224" y2="430.9196" gradientTransform="matrix(-1 0 0 1 108.1016 0)">
						<stop  offset="0" style="stop-color:#FFFFFF"/>
						<stop  offset="1" style="stop-color:#000000"/>
					</linearGradient>
					<path class="st9" d="M-255,430.2c0,0.1,0.1,0.4,0.3,0.8c1.4,2.2,12.5,7.6,12.8,5.6l0,0c0.1-0.8,0.2-2,0.3-2.8c0,0,0,0.1,0,0.1
						c-0.6,0.8-12.9-4.8-13.9-8.9l0-0.1L-255,430.2"/>
					<path class="st3" d="M-245.1,421.8c0.9,0,1,0.9,0.5,1.4c-0.5,0.6-1.4,0.2-1.4-0.5C-246,422.2-245.6,421.8-245.1,421.8"/>
					<path class="st3" d="M-247.2,426.5c0.5,0,0.7,0.6,0.4,0.9c-0.4,0.4-0.9,0.1-0.9-0.4C-247.8,426.7-247.5,426.5-247.2,426.5"/>
					<path class="st3" d="M-246.8,423.1c0.4,0,0.5,0.4,0.3,0.6c-0.2,0.3-0.7,0.1-0.7-0.2C-247.2,423.3-247.1,423.1-246.8,423.1"/>
					<path class="st4" d="M-254.1,439.8C-254,439.8-254,439.8-254.1,439.8C-254,439.9-254,439.9-254.1,439.8c0.1,0,0.1-0.2,0.1-0.2
						c0-0.2-0.1-0.3-0.1-0.5c-0.1-0.4-0.1-0.9-0.1-1.1c0,0,0,0,0-0.1c0,0-0.1-0.4-0.1-0.6l0,0L-254.1,439.8"/>
					<path class="st4" d="M-254.1,437.8c0.4,0.3,0.5,2,0.2,2C-254,440-254.2,438.1-254.1,437.8
						C-254.1,437.8-254.1,437.8-254.1,437.8"/>
					<path class="st6" d="M-255.7,424.1c0.4,0.4,4.2,1.3,7.8,1.9c4.7,0.9,6.7,1.3,6.9,1.8l0-0.1c-0.2-0.4-1.5-0.8-6.7-1.7
						c-4.2-0.8-6.3-1.3-7.4-1.7c-0.5-0.2-0.5-0.2-0.6-0.3L-255.7,424.1"/>
				</g>
			</g>
			<g>
				<path class="st7" d="M-256.5,416.1c0.1,0.7,3.9,1.2,8.5,1.2c4.6,0,8.3-0.6,8.2-1.3c-0.1-0.7-3.9-1.2-8.5-1.2
					C-252.9,414.8-256.6,415.4-256.5,416.1z"/>
			</g>
		</g>
	</g>
	<g>
		<g>
			<path class="st10" d="M-256.8,416.9c0.1,0.6,4,1.1,8.8,1.1c4.8,0,8.6-0.5,8.5-1.2c-0.1-0.6-4-1.1-8.8-1.1
				C-253,415.8-256.9,416.3-256.8,416.9z"/>
			<path class="st11" d="M-256.8,416.9c0-0.6,3.8-1.1,8.5-1.1c4.8,0,8.8,0.5,8.8,1.1c0,0,0,0,0,0v-0.3c0,0,0,0,0,0
				c-0.1-0.6-4-1.1-8.8-1.1c-4.7,0-8.5,0.5-8.5,1.1C-256.8,416.7-256.8,416.8-256.8,416.9z"/>
			<path class="st12" d="M-256.8,416.9v-0.3c0-0.6,3.8-1.1,8.5-1.1c4.8,0,8.8,0.5,8.8,1.1c0,0,0,0,0,0v0.3c0,0,0,0,0,0
				c-0.1-0.6-4-1.1-8.8-1.1C-253,415.8-256.8,416.3-256.8,416.9"/>
			<path class="st13" d="M-248.2,415.5c4.8,0,8.8,0.5,8.8,1.1c0.1,0.6-3.7,1.1-8.5,1.2c-4.8,0-8.8-0.5-8.8-1.1
				C-256.9,416-253,415.5-248.2,415.5z M-256.5,416.6c0.1,0.6,3.9,1.1,8.6,1.1c4.6,0,8.4-0.5,8.3-1.1c-0.1-0.6-3.9-1.1-8.6-1.1
				C-252.9,415.5-256.6,416-256.5,416.6"/>
			<path class="st11" d="M-256.8,416.6v0.3c0,0,0,0,0,0L-256.8,416.6C-256.8,416.6-256.8,416.6-256.8,416.6z"/>
			<path class="st12" d="M-256.8,416.9v-0.3c0,0,0,0,0,0L-256.8,416.9C-256.8,416.9-256.8,416.9-256.8,416.9"/>
			<path class="st11" d="M-239.4,416.9v-0.3c0,0.6-3.8,1.1-8.5,1.1c-4.8,0-8.8-0.5-8.8-1.1v0.3c0.1,0.6,4,1.1,8.8,1.1
				C-243.2,418-239.4,417.5-239.4,416.9z"/>
			
				<linearGradient id="SVGID_6_" gradientUnits="userSpaceOnUse" x1="347.4979" y1="417.3269" x2="364.8714" y2="417.3269" gradientTransform="matrix(-1 0 0 1 108.1016 0)">
				<stop  offset="5.618000e-003" style="stop-color:#DFE2E5"/>
				<stop  offset="0.2528" style="stop-color:#FCFBE5"/>
				<stop  offset="0.3979" style="stop-color:#EEEAD7"/>
				<stop  offset="0.5955" style="stop-color:#D5CCC0"/>
				<stop  offset="0.7865" style="stop-color:#ECECED"/>
				<stop  offset="1" style="stop-color:#D7D4BA"/>
			</linearGradient>
			<path class="st14" d="M-239.4,416.9v-0.3c0,0.6-3.8,1.1-8.5,1.1c-4.8,0-8.8-0.5-8.8-1.1v0.3c0.1,0.6,4,1.1,8.8,1.1
				C-243.2,418-239.4,417.5-239.4,416.9"/>
		</g>
		<path class="st13" d="M-248.2,415c3.4,0,6.2,0.3,6.3,0.8c0.1,0.4-2.6,0.8-6,0.8c-3.4,0-6.2-0.3-6.3-0.8
			C-254.3,415.4-251.6,415-248.2,415z M-250.6,415.8c0,0.2,1.2,0.3,2.6,0.3c1.4,0,2.5-0.2,2.5-0.3c0-0.2-1.2-0.3-2.6-0.3
			C-249.5,415.5-250.7,415.6-250.6,415.8"/>
		
			<linearGradient id="SVGID_7_" gradientUnits="userSpaceOnUse" x1="349.0905" y1="414.6752" x2="357.4819" y2="415.1614" gradientTransform="matrix(-1 0 0 1 108.1016 0)">
			<stop  offset="5.618000e-003" style="stop-color:#DFE2E5"/>
			<stop  offset="0.2528" style="stop-color:#FCFBE5"/>
			<stop  offset="0.3979" style="stop-color:#EEEAD7"/>
			<stop  offset="0.5955" style="stop-color:#D5CCC0"/>
			<stop  offset="0.7865" style="stop-color:#ECECED"/>
			<stop  offset="1" style="stop-color:#D7D4BA"/>
		</linearGradient>
		<path class="st15" d="M-248.2,414.1c3.4,0,6.2,0.3,6.3,0.8c0,0,0,0,0,0v0.9c0,0,0,0,0,0c-0.1-0.4-2.9-0.8-6.3-0.8
			c-3.4,0-6.1,0.4-6.1,0.8v-0.9C-254.3,414.5-251.6,414.1-248.2,414.1z"/>
		
			<linearGradient id="SVGID_8_" gradientUnits="userSpaceOnUse" x1="353.6725" y1="415.382" x2="358.7295" y2="415.382" gradientTransform="matrix(-1 0 0 1 108.1016 0)">
			<stop  offset="5.618000e-003" style="stop-color:#CDD0D3"/>
			<stop  offset="0.2528" style="stop-color:#EAE8D1"/>
			<stop  offset="0.4063" style="stop-color:#DBD7C5"/>
			<stop  offset="0.5955" style="stop-color:#C3BCB1"/>
			<stop  offset="0.7865" style="stop-color:#D9D9DA"/>
			<stop  offset="1" style="stop-color:#C6C3AB"/>
		</linearGradient>
		<path class="st16" d="M-245.6,415.8v-1.1c0,0.2-1.1,0.3-2.5,0.3c-1.4,0-2.5-0.1-2.6-0.3v1.1c0,0.2,1.2,0.3,2.6,0.3
			C-246.7,416.1-245.6,416-245.6,415.8"/>
		<path class="st17" d="M-250.6,414.7c0,0.2,1.2,0.3,2.6,0.3c1.4,0,2.5-0.2,2.5-0.3c0-0.2-1.2-0.3-2.6-0.3
			C-249.5,414.3-250.7,414.5-250.6,414.7z"/>
		<path class="st17" d="M-256.3,415c0.1,0.6,3.8,1.1,8.4,1.1c4.6,0,8.2-0.5,8.1-1.1c0-0.3-0.9-0.5-2.4-0.7c-3-0.4-6-0.3-6-0.3
			c-4.4,0.1-4.4,0.1-5.7,0.3C-255.5,414.4-256.4,414.7-256.3,415z M-254.3,414.9c-0.1-0.4,2.6-0.8,6-0.8c3.4,0,6.2,0.3,6.3,0.8
			c0.1,0.4-2.6,0.8-6,0.8C-251.5,415.7-254.3,415.4-254.3,414.9z"/>
		
			<linearGradient id="SVGID_9_" gradientUnits="userSpaceOnUse" x1="347.7812" y1="416.2519" x2="364.6197" y2="416.2519" gradientTransform="matrix(-1 0 0 1 108.1016 0)">
			<stop  offset="5.618000e-003" style="stop-color:#DFE2E5"/>
			<stop  offset="0.2528" style="stop-color:#FCFBE5"/>
			<stop  offset="0.3979" style="stop-color:#EEEAD7"/>
			<stop  offset="0.5955" style="stop-color:#D5CCC0"/>
			<stop  offset="0.7865" style="stop-color:#ECECED"/>
			<stop  offset="1" style="stop-color:#D7D4BA"/>
		</linearGradient>
		<path class="st18" d="M-256.5,415.8v0.2v0.5c0.1,0.6,3.9,1.1,8.6,1.1c4.6,0,8.3-0.5,8.3-1.1V416v-0.2c0,0,0,0,0,0l0,0l0,0
			c0-0.1,0-0.2,0-0.3l0-0.1l0-0.1l0-0.1l0-0.1l0-0.1l0-0.1l0-0.1l0-0.1l0-0.1l0-0.1c0.1,0.4-1.1,0.7-2.9,0.9c-0.1,0-0.1,0-0.2,0
			c-0.2,0-0.4,0-0.6,0.1c-1.3,0.1-2.8,0.2-4.4,0.2c-0.8,0-1.6,0-2.3,0c-0.1,0-0.2,0-0.3,0c-0.1,0-0.3,0-0.4,0c-0.1,0-0.2,0-0.3,0
			c-0.1,0-0.3,0-0.4,0c-0.1,0-0.2,0-0.2,0c-0.2,0-0.4,0-0.6,0c-0.1,0-0.1,0-0.2,0c-0.1,0-0.3,0-0.4,0c-0.1,0-0.1,0-0.2,0
			c-0.1,0-0.2,0-0.3,0c-0.1,0-0.1,0-0.2,0c-0.1,0-0.2,0-0.3,0c-0.1,0-0.1,0-0.2,0c-0.1,0-0.2,0-0.3,0c-0.1,0-0.1,0-0.2,0
			c-0.1,0-0.3-0.1-0.4-0.1c0,0,0,0,0,0c-0.1,0-0.2,0-0.3-0.1c0,0-0.1,0-0.1,0c-0.1,0-0.1,0-0.2-0.1c0,0-0.1,0-0.1,0
			c0,0-0.1,0-0.1-0.1c0,0,0,0-0.1,0c0,0-0.1,0-0.1-0.1c0,0,0,0,0,0c0,0,0-0.1-0.1-0.1C-256.5,415.2-256.5,415.8-256.5,415.8z"/>
	</g>
	<g>
		<path class="st19" d="M-257.7,399.8c-0.2-0.2-0.1-0.5,0.1-0.7c0.3-0.3,0.8-0.2,1-0.1c0.2,0.1,7.1,6,7.1,6s0.1,0.1,0.2,0.2l0,0
			c0,0,0.3,0,0.3,0.1c0,0-0.1,0.1-0.1,0.2c0,0,0,0,0,0l0,0c0,0,0.3,0,0.3,0.1c0,0.1-0.1,0.1-0.2,0.2c0,0,0,0,0,0
			c0.1,0,0.2,0,0.3,0.1c0,0-0.1,0.1-0.2,0.2c0,0,0,0,0,0.1c0.1,0,0.2,0,0.2,0.1c0,0-0.1,0.1-0.1,0.2c0,0,0,0.1,0,0.1
			c0.1,0,0.2,0,0.2,0.1c0,0-0.1,0.1-0.2,0.2c0,0,0,0,0,0.1c0.1,0,0.2,0,0.2,0.1c0,0.1-0.1,0.1-0.2,0.2c0,0,0,0,0,0.1
			c0.1,0,0.3,0,0.3,0.1c0,0.1-0.1,0.2-0.2,0.2c0,0,0,0,0,0c0.1,0,0.2,0.1,0.2,0.1c0,0.1-0.2,0.2-0.2,0.2c0,0,0,0,0,0
			c0.2,2.2,1,6.7,1.1,6.9c0,0.1-1.3,0.3-1.4,0.1c0-0.1-1.1-6.8-1.1-6.8c-0.1,0-0.3-0.1-0.3-0.1c0-0.1,0.1-0.1,0.2-0.2l0,0
			c-0.1,0-0.3-0.1-0.3-0.1c0-0.1,0.1-0.1,0.2-0.2l0,0c-0.1,0-0.3-0.1-0.3-0.1c0-0.1,0.2-0.1,0.2-0.2l0,0l0,0c0,0-0.3-0.1-0.3-0.1
			c0-0.1,0.2-0.2,0.3-0.2l0,0l0,0c0,0-0.3-0.1-0.3-0.1c0-0.1,0.2-0.1,0.2-0.2l0,0c-0.1,0-0.3-0.1-0.3-0.1c0,0,0.1-0.1,0.2-0.1l0-0.1
			c-0.1,0-0.2-0.1-0.2-0.1c0,0,0-0.1,0.1-0.1l0-0.1c-0.1,0-0.1-0.1-0.1-0.1c0,0,0,0,0-0.1l0,0L-257.7,399.8z"/>
		<g>
			
				<linearGradient id="SVGID_10_" gradientUnits="userSpaceOnUse" x1="363.3571" y1="399.5813" x2="354.5573" y2="414.8493" gradientTransform="matrix(-1 0 0 1 108.1016 0)">
				<stop  offset="0" style="stop-color:#B8E4FA"/>
				<stop  offset="1" style="stop-color:#7BD0EB"/>
			</linearGradient>
			<path class="st20" d="M-248.1,414.6C-248,414.6-248,414.6-248.1,414.6L-248.1,414.6l-1.1-6.8l0.2-0.3c0,0,0,0,0-0.1l0,0
				c0,0,0,0,0,0l0,0l-0.2-0.1l0.1-0.2c0,0,0-0.1,0-0.1l0,0l-0.3-0.1l0.1-0.2c0,0,0,0,0-0.1l0,0c0,0,0,0-0.1,0l0,0l-0.2-0.1l0.1-0.2
				c0,0,0,0,0-0.1l0,0c0,0,0,0,0-0.1l0,0l-0.2-0.1l0.1-0.2c0,0,0,0,0-0.1l0,0c0,0,0,0,0,0l0,0l-0.2-0.1l0.1-0.2c0,0,0,0,0-0.1l0,0
				c0,0,0,0,0,0l0,0l-0.2-0.1l-7.4-6.4c0,0-0.1,0-0.1,0l0,0c0,0,0,0.1,0,0.1l0,0l7.4,6.4l0,0l0.1,0l-0.1,0.2c0,0,0,0,0,0.1l0,0
				c0,0,0,0,0,0l0,0l0.2,0.1l-0.1,0.2c0,0,0,0,0,0.1l0,0c0,0,0,0,0,0l0,0l0.2,0.1l-0.1,0.2c0,0,0,0,0,0.1l0,0c0,0,0,0,0.1,0.1l0,0
				l0.2,0.1l-0.1,0.2c0,0,0,0,0,0.1l0,0c0,0,0,0,0,0l0,0l0.3,0.1l-0.1,0.2c0,0,0,0.1,0,0.1l0,0l0.2,0.1l-0.1,0.2c0,0,0,0,0,0.1l0,0
				L-248.1,414.6C-248.2,414.6-248.1,414.6-248.1,414.6L-248.1,414.6C-248.1,414.6-248.1,414.6-248.1,414.6L-248.1,414.6z"/>
		</g>
	</g>
</g>
</svg>
