<?xml version="1.0" encoding="utf-8"?>
<!-- Generator: Adobe Illustrator 19.0.0, SVG Export Plug-In . SVG Version: 6.00 Build 0)  -->
<svg version="1.1" xmlns="http://www.w3.org/2000/svg" xmlns:xlink="http://www.w3.org/1999/xlink" x="0px" y="0px"
	 viewBox="0 0 3687.6 712.2" style="enable-background:new 0 0 3687.6 712.2;" xml:space="preserve">
<style type="text/css">
	.st0{fill:#FFFFFF;}
	.st1{fill:#F4C342;}
</style>
<g id="Layer_4">
</g>
<g id="Layer_3">
</g>
<g id="Layer_2">
</g>
<g id="Layer_1">
	<g id="XMLID_22_">
		<polygon id="XMLID_64_" class="st0" points="903.7,552.9 941.1,431.4 1111.3,429.9 1128.4,374.4 958.2,375.8 1008.9,211 
			1195.6,209.4 1212.6,153.9 963,156 963,156.1 836.9,156.1 836.9,162.2 956.3,177.6 916,308.7 813.4,308.7 813.4,314.8 
			907.9,335.1 862.1,483.9 799.1,483.9 799.1,490 855.3,505.9 840.7,553.5 		"/>
		<path id="XMLID_114_" class="st0" d="M1143.5,451.2c-1.4,4.6-2.5,9-3.4,13.4h-102.5v6.1l100.2,21.6c2,38.5,27.4,63.6,67,63.3
			c30.6-0.3,53.3-11,69.9-28.6l-7,22.8l58.9-0.5l61.5-199.9l-58.9,0.5l-7,22.8c-5.8-17.4-22-27.8-52.6-27.5
			C1217.1,345.6,1162.2,390.4,1143.5,451.2z M1204.1,450.7c10.1-32.7,34.8-53.9,64.8-54.2c30-0.3,40.6,20.6,30.6,53.4
			s-33.6,53.9-63.6,54.2C1205.8,504.3,1194.1,483.4,1204.1,450.7z"/>
		<path id="XMLID_115_" class="st0" d="M1414.4,406.9c-2.9,9.5-3.8,17.8-2.8,25h-37.9v6.1l44.3,10.2c8,11.2,22.7,18.6,43.1,23
			c30.8,6.7,35.4,10.8,32.6,20.1c-2.5,8.2-12.7,14.7-33.9,14.9c-20,0.2-35.8-7.9-44.7-24.7l-40.3,28.3h-21v5.2l17.3,4
			c16.5,23.1,43.7,34.9,75.3,34.6c55.3-0.5,92.1-26.4,104.5-66.8c10.1-32.7-4.9-54.8-47.5-63.1c-31.6-6.1-38.2-9.6-35.1-19.5
			c2.3-7.6,12-14.1,27.3-14.2c16.5-0.1,29.2,6.2,36.2,16l42.2-35.9c-14.6-17.4-33.9-27.1-65.7-26.8c-6,0.1-11.7,0.6-17.4,1.5h-86.1
			v4.8l46.8,10.1C1433.6,370.8,1420.4,387.2,1414.4,406.9z"/>
		<path id="XMLID_116_" class="st0" d="M1634.1,347.3l-23.5,0.2l-14.9,48.5l23.5-0.2l-25.4,82.4c-17.1,55.5,4.8,74,43.1,73.7
			c24.7-0.2,43.2-8.5,55.7-16.8l-10.4-40.7c-5.8,3.5-12.8,7.1-19.8,7.2c-10.6,0.1-15.6-4.5-9.3-25l25-81.2l47.1-0.4l14.9-48.5
			l-47.1,0.4l40.1-130.4l-16.7,0.1v-0.1h-142.8v6.1l92.7,20L1634.1,347.3z"/>
		<path id="XMLID_117_" class="st0" d="M1786.7,346l-23.5,0.2l-14.9,48.5l23.5-0.2L1725.1,546l58.9-0.5l46.6-151.4l48.3-0.4
			l14.9-48.5l-48.3,0.4l44.8-145.5c5.4-17.5,14.1-22.9,21.7-22.9c8.8-0.1,13.6,3.4,15.7,8l44.3-37.1c-8-13.9-21.8-22.6-50.1-22.3
			c-33.5,0.3-61.5,16.9-79.3,48.9h-117.5v6.1l105.4,22.7L1786.7,346z"/>
		<path id="XMLID_124_" class="st0" d="M1883.7,444.9c-18.7,60.8,15.9,104.8,77.7,104.3c61.8-0.5,123.8-45.4,142.5-106.2
			c18-58.5-13.4-101.3-70.8-104v-0.3h-133.8v6.1l57.1,13.1C1922.6,376.8,1895.1,407.8,1883.7,444.9z M1944.3,444.4
			c9.9-32.1,35.9-55.7,66.5-56c30.6-0.3,42.3,23,32.4,55.1c-9.9,32.1-35.9,55.7-66.5,56C1946.1,499.8,1934.4,476.5,1944.3,444.4z"/>
		<path id="XMLID_127_" class="st0" d="M2134.5,442.8c-18.7,60.8,15.9,104.8,77.7,104.3c61.8-0.5,123.8-45.4,142.5-106.2
			c18.1-58.7-13.6-101.6-71.4-104v-0.2h-142.8v6.1l65.1,14C2172.6,375.6,2145.8,406.3,2134.5,442.8z M2195.2,442.3
			c9.9-32.1,35.9-55.7,66.5-56c30.6-0.3,42.3,23,32.4,55.1c-9.9,32.1-35.9,55.7-66.5,56C2196.9,497.6,2185.3,474.4,2195.2,442.3z"/>
		<path id="XMLID_130_" class="st0" d="M2570.7,538.8l127.7-415l-58.9,0.5l-29.1,94.7v-2.4h-577.3v6.1l566.9,30.2l-33.6,109.3
			c-5.8-17.4-23.2-27.8-53.8-27.5c-52.4,0.4-108.5,45.2-127.2,106c-18.7,60.8,10,104.9,62.4,104.4c30.6-0.3,54.5-11,71-28.6l-7,22.8
			L2570.7,538.8z M2478.9,493.5c-30,0.3-43-20.6-32.9-53.4s36-53.9,66-54.2c30-0.3,41.8,20.6,31.7,53.4S2509,493.2,2478.9,493.5z"/>
		<polygon id="XMLID_131_" class="st0" points="2809.2,536.7 2846.6,415.2 3016.8,413.7 3033.9,358.2 2863.7,359.6 2914.4,194.8 
			3101.1,193.2 3118.2,137.7 2932.2,139.2 2932.2,139 2789.4,139 2789.4,145.1 2862.1,160.7 2800.9,359.6 2720.9,359.6 
			2720.9,365.7 2794.1,381.5 2762.9,483.1 2666.9,483.1 2666.9,486.1 2758.7,496.7 2746.2,537.3 		"/>
		<path id="XMLID_134_" class="st0" d="M3232,533.1l61.5-199.9l-58.9,0.5l-7,22.8c-5.8-17.4-22-27.8-52.6-27.5
			c-52.4,0.4-107.3,45.2-126,106c-1.2,3.9-2.2,7.7-3,11.4h-43.6v4.4l41.4,8.9c-5.1,47.6,21.4,80,66.4,79.6
			c30.6-0.3,53.3-11,69.9-28.6l-7,22.8L3232,533.1z M3141.4,487.9c-30,0.3-41.8-20.6-31.7-53.4s34.8-53.9,64.8-54.2
			c30-0.3,40.6,20.6,30.6,53.4S3171.4,487.6,3141.4,487.9z"/>
		<path id="XMLID_135_" class="st0" d="M3400.9,373.7c16.5-0.1,29.2,6.2,36.2,16l42.2-35.9c-14.6-17.4-33.9-27.1-65.7-26.8
			c-2.1,0-4.2,0.4-6.2,0.5h-103v5.1l51.8,11.2c-17.3,11.3-30.2,27.5-36.2,47c-2.7,8.6-3.5,16.2-3,23h-33.4v6.1l37.5,8.1
			c7.1,13.5,22.7,22.2,45.5,27.1c30.8,6.7,35.4,10.8,32.6,20.1c-2.5,8.2-12.7,14.7-33.9,14.9c-20,0.2-35.8-7.9-44.7-24.7l-47.2,33.1
			c16,26.1,44.9,39.3,78.4,39c55.3-0.5,92.1-26.4,104.5-66.8c10.1-32.7-4.9-54.8-47.5-63.1c-31.6-6.1-38.2-9.6-35.1-19.5
			C3375.9,380.3,3385.5,373.8,3400.9,373.7z"/>
		<path id="XMLID_136_" class="st0" d="M3583.6,379.1l47.1-0.4l14.9-48.5l-47.1,0.4l40.1-130.4l-16.7,0.1v-0.1h-142.8v6.1l92.7,20
			l-32.2,104.8l-23.5,0.2l-14.9,48.5l23.5-0.2l-25.4,82.4c-17.1,55.5,4.8,74,43.1,73.7c24.7-0.2,43.2-8.5,55.7-16.8l-10.4-40.7
			c-5.8,3.5-12.8,7.1-19.8,7.2c-10.6,0.1-15.6-4.5-9.3-25L3583.6,379.1z"/>
		<polygon id="XMLID_137_" class="st0" points="894.8,627.6 3529,686.2 3529,615.9 894.8,615.9 		"/>
		<polygon id="XMLID_138_" class="st0" points="3579,85.6 1913.4,85.6 1913.4,91.2 3579,119.3 		"/>
	</g>
	<g id="XMLID_8_">
		<path id="XMLID_9_" class="st1" d="M373.5,188.1h-93.8v10.6l80.5,10.4c-8.2,13.7-15.6,28-22.2,42.8h457.5
			c-3.7-121.1-76.8-209.7-185.2-209.7c-36.7,0-73.5,10.3-108.2,28.4H235v10.6l210.6,27.1c-9.7,8.1-19.1,16.6-28.2,25.9H180.9v10.6
			l204.8,26.4C381.5,176.7,377.4,182.3,373.5,188.1z"/>
		<path id="XMLID_38_" class="st1" d="M786.1,344.2H415.4v-17.1h360.8c9.3,0,18.7-9.2,21.1-20.5c2.4-11.3-3.3-20.5-12.6-20.5H334.4
			c-9.3,0-18.7,9.2-21.1,20.5c0,0.1,0,0.2,0,0.3H3v10.6l292.8,37.8c-3.1,4.5-5.6,10-6.9,16.1c-3.1,14.9,2.3,27.1,12.1,27.1h473.8
			c9.8,0,20.2-12.1,23.3-27.1C801.3,356.3,795.9,344.2,786.1,344.2z"/>
		<path id="XMLID_39_" class="st1" d="M299.1,435.8c0,0-11.8,6.4-21.2,15.4H118.3v10.6l151.6,19.5c1.3,1.7,2.9,3.5,5,5.2
			c0,0,2.5,0.2,5.8,0.9l-3.1,14.9H25.8v10.6l243.1,31.3l-0.3,1.4c-5.3,25.6,7.3,46.3,28.3,46.3h401.7c20.9,0,42.2-20.7,47.5-46.3
			l11.6-55.8c18.4-8.5,32.3-30.7,20-54.1H299.1z"/>
	</g>
</g>
</svg>
