<?xml version="1.0" encoding="utf-8"?>
<!-- Generator: Adobe Illustrator 19.0.0, SVG Export Plug-In . SVG Version: 6.00 Build 0)  -->
<svg version="1.1" id="Layer_1" xmlns="http://www.w3.org/2000/svg" xmlns:xlink="http://www.w3.org/1999/xlink" x="0px" y="0px"
	 viewBox="0 0 50 50" style="enable-background:new 0 0 50 50;" xml:space="preserve">
<style type="text/css">
	.st0{fill:#D63D27;}
	.st1{fill:#FBEA4D;}
	.st2{fill:#F04936;}
</style>
<g id="XMLID_11_">
	<path id="XMLID_8_" class="st0" d="M22.1,26.5c0,0-0.5-2.6,2.9-3c3.4,0.4,2.9,3,2.9,3c3.8,0.4,7-3.3,8.4-5.1
		C33.8,15.5,25,15.1,25,15.1s-8.8,0.4-11.3,6.2C15.1,23.2,18.3,26.8,22.1,26.5z"/>
	<path id="XMLID_7_" class="st1" d="M18.6,31.2c0,0.1-0.1,0.2-0.2,0.2l-1.7,0.2c-0.1,0-0.2-0.1-0.2-0.2l-2.6-21.1
		c0-0.1,0.1-0.2,0.2-0.2l1.7-0.2c0.1,0,0.2,0.1,0.2,0.2L18.6,31.2z"/>
	<path id="XMLID_6_" class="st1" d="M19.8,34.5c0,0.1-0.1,0.2-0.2,0.2l-1.8-0.1c-0.1,0-0.2-0.1-0.2-0.2l1.8-21.1
		c0-0.1,0.1-0.2,0.2-0.2l1.7,0.1c0.1,0,0.2,0.1,0.2,0.2L19.8,34.5z"/>
	<path id="XMLID_5_" class="st1" d="M27.1,34.5c0,0.1-0.1,0.2-0.2,0.2l-1.8-0.1c-0.1,0-0.2-0.1-0.2-0.2l1.7-21.1
		c0-0.1,0.1-0.2,0.2-0.2l1.8,0.1c0.1,0,0.2,0.1,0.2,0.2L27.1,34.5z"/>
	<path id="XMLID_4_" class="st1" d="M33.7,32.2c0,0.1-0.1,0.2-0.2,0.2l-1.7,0.2c-0.1,0-0.2-0.1-0.2-0.2l-2-21.1
		c0-0.1,0.1-0.2,0.2-0.2l1.7-0.2c0.1,0,0.2,0.1,0.2,0.2L33.7,32.2z"/>
	<path id="XMLID_3_" class="st1" d="M33.1,29.5c0,0.1-0.1,0.2-0.2,0.2l-1.8-0.1c-0.1,0-0.2-0.1-0.2-0.2l1.8-21.1
		C32.7,8,32.8,8,32.9,8l1.7,0.1c0.1,0,0.2,0.1,0.2,0.2L33.1,29.5z"/>
	<path id="XMLID_2_" class="st1" d="M26.9,30.2c0,0.1-0.1,0.2-0.2,0.2l-1.8,0.1c-0.1,0-0.2-0.1-0.2-0.2L23,9.2C23,9.1,23.1,9,23.2,9
		l1.8-0.1c0.1,0,0.2,0.1,0.2,0.2L26.9,30.2z"/>
	<path id="XMLID_1_" class="st2" d="M27.9,26.5c0,0,0.5-2.6-2.9-3c-3.4,0.4-2.9,3-2.9,3c-3.8,0.4-7-3.3-8.4-5.1
		c-0.1,0.1-0.1,0.3-0.2,0.4l1.6,19.8H25h9.8l1.6-19.8c-0.1-0.2-0.1-0.3-0.2-0.4C34.9,23.2,31.7,26.8,27.9,26.5z"/>
</g>
</svg>
