<?xml version="1.0" encoding="utf-8"?>
<!-- Generator: Adobe Illustrator 19.0.0, SVG Export Plug-In . SVG Version: 6.00 Build 0)  -->
<svg version="1.1" id="Layer_1" xmlns="http://www.w3.org/2000/svg" xmlns:xlink="http://www.w3.org/1999/xlink" x="0px" y="0px"
	 viewBox="-272 395.9 50 50" style="enable-background:new -272 395.9 50 50;" xml:space="preserve">
<style type="text/css">
	.st0{fill:#FDD0A0;}
	.st1{fill:#E8B986;}
	.st2{fill:#B25038;}
	.st3{fill:#9A3724;}
	.st4{fill:url(#SVGID_1_);}
	.st5{fill:#C66C51;}
	.st6{fill:url(#SVGID_2_);}
	.st7{fill:#FFE6C4;}
	.st8{fill:#F8B218;}
	.st9{fill:#FCD704;}
</style>
<g>
	<path class="st0" d="M-264.3,437.4c0,0-3-1.3-3.1-5.2c-0.1-3.9,3.8-6.3,4.8-6.9c1-0.6,7-5.4,9.9-8.8c3-3.4,7.8-10.3,8.5-11.5
		c0.7-1.2,3.7-3.1,7.2,2.5c0,0-6.1,11.7-9.6,15c-3.4,3.3-8.7,9.4-10.2,10.5C-258.1,434.1-260.8,437.6-264.3,437.4z"/>
	<path class="st1" d="M-263.3,435.7c0,0-4.1-3.7,2.1-7.9c6.2-4.2,11.1-9.1,13.4-12c2.3-2.8,5.6-8.1,6.5-9.9c0.8-1.8,3.1-0.5,4.4,1.5
		c0,0-11,16.1-13.4,18.3C-253.3,428.5-261.5,435.8-263.3,435.7z"/>
	<path class="st2" d="M-234.5,404.8c-2-0.6-3.1,0.6-3.6,1.3c-0.5,0.6-0.3,0.9-5.8,8.3c-5.5,7.5-15.7,15.8-15.7,15.8
		c-1,0.8-1.2,0.9-4.1,3.3c-2.9,2.4-1,6,1.9,5.8c3-0.2,9.7-6,13.1-8.7c3.4-2.7,8.1-8,11.5-12.2c3.3-4.2,4.8-9.9,4.9-10.3
		C-232.3,407.9-232.5,405.4-234.5,404.8z"/>
	<g>
		<path class="st3" d="M-248.7,430.7c3.4-2.7,8.1-8,11.5-12.2c3.3-4.2,4.8-9.9,4.9-10.3c0.1-0.3-0.1-2.5-1.8-3.3
			c-0.3,1.1-1,2.6-1.6,3.7c-0.8,1.6-2.5,3.2-9.1,11.8c-6.6,8.6-15.6,14.5-16.3,15c-0.6,0.5-1,1.2,0.1,1.4c0.9,0.2,0.3,1.8-0.5,2.2
			c-0.3,0.1-0.7,0.2-1,0.3c0.3,0,0.5,0.1,0.8,0C-258.9,439.2-252.2,433.4-248.7,430.7z"/>
	</g>
	<g>
		
			<linearGradient id="SVGID_1_" gradientUnits="userSpaceOnUse" x1="-264.2957" y1="414.5902" x2="-227.1373" y2="414.5902" gradientTransform="matrix(0.8486 -0.5291 0.5291 0.8486 -265.1623 -64.7395)">
			<stop  offset="0.2143" style="stop-color:#FCC075"/>
			<stop  offset="1" style="stop-color:#DF9354"/>
		</linearGradient>
		<path class="st4" d="M-244.2,405c-0.7,1.2-5.4,7.8-8.4,11.2c-3,3.4-9,8.5-10,9.1c-0.9,0.6-4.2,2.6-4.7,6c1.4-4.4,8.2-5.8,16-13.6
			c4.7-4.7,5.3-7.5,9-12.5c0.6-0.8,1.1-1.2,1.7-1.3C-242.5,403.1-243.7,404.3-244.2,405z"/>
	</g>
	<path class="st5" d="M-263.8,438.2c0,0-0.6-0.7-0.6-1.3c-0.1-0.7,0-1,0.3-1.3c0.3-0.3,0.8-0.5,0.8-0.5s-0.4,0.5-0.2,0.6
		c0.2,0.1,0.5,0.3,0.7,0.2s-0.5,0.3-0.5,0.6c0.1,0.3-0.3,0.8,0.1,0.9c0.3,0.1,0.4,1.3,1.2,1.1C-261.3,438.2-263.2,438.8-263.8,438.2
		z"/>
	
		<linearGradient id="SVGID_2_" gradientUnits="userSpaceOnUse" x1="-262.7693" y1="425.3955" x2="-218.4071" y2="425.3955" gradientTransform="matrix(0.8486 -0.5291 0.5291 0.8486 -265.1623 -64.7395)">
		<stop  offset="0.2143" style="stop-color:#FCC075"/>
		<stop  offset="1" style="stop-color:#DF9354"/>
	</linearGradient>
	<path class="st6" d="M-260.7,439.1c0,0,1,0,2.7-3.2c1.8-3.5,4.8-5.8,6.8-7.6c2-1.8,12.4-14.3,13.4-15.8c1.1-1.4,3.7-6,4.3-6.7
		c1.3-1.7,3.7-2.8,4.5,1.1c0.7,3.3,0.4,7-4.1,15.3c-4.5,8.4-15.2,16.3-21.3,17.9C-257.7,440.9-260.2,439.9-260.7,439.1z"/>
	<g>
		<path class="st0" d="M-233.5,405.9c-0.5,0.7-3.2,5.3-4.3,6.7c-1.1,1.4-11.5,13.9-13.4,15.8c-2,1.8-5.1,4.1-6.8,7.6
			c-1.6,3.3-2.7,3.2-2.7,3.2c0.4,0.7,2.3,1.5,4.8,1.2c-0.3-0.6-0.4-1.2-0.4-1.4c0.1-0.6,1.9-1.8,2.7-3c0.8-1.2,5.4-5.4,7-6.8
			c1.6-1.4,3.8-2.9,4.5-3.7c0.7-0.7,1.8-2.4,2.4-3.1c0.6-0.7,0.3-0.4,1.7-1.6c1.4-1.3,5.4-10.3,6.7-12.3c0.9-1.4,0.5-3,0.2-4.2
			C-232,404.4-232.8,405.1-233.5,405.9z"/>
	</g>
	<path class="st7" d="M-266,434.5c0,0-0.5-1.5-0.4-2.4s0.4-2,1.2-2.7c0.8-0.7,1-1.2,1.5-1.3c0.5-0.2,1.3-0.5,1.4-0.8
		c0.1-0.3,0.2-0.6,0.4-0.5c0.2,0.1,1,0,1.4-0.4c0.4-0.5,0.6,0.2,0.4,0.3c-0.2,0.1-1.3,0.6-1.6,0.9c-0.2,0.3-1.4,1-1.8,1.5
		s-1.4,1.4-1.4,2.2c0,0.8,0,1.1-0.3,1.3c-0.3,0.1-0.4,0.2-0.4,0.7C-265.5,433.7-265.7,434.6-266,434.5z"/>
	<path class="st7" d="M-259.2,425.5c0,0,0-0.4,0.4-0.5s0.8-0.6,0.8-0.6s0.5-0.3,1-0.7c0.4-0.3,0.8-0.6,1-0.8
		c0.4-0.4,0.9-0.8,1.1-1.1c0.2-0.3,2-1.8,2.8-2.6c0.8-0.8,1.5-1.3,2-2c0.5-0.7,0.5-0.4,1-1.2c0.6-0.8,0.6-0.8,0.8-1.1
		c0.1-0.2,0.2-0.3,0.3-0.4c0.1-0.1,0.5-0.1,0.3,0.2c-0.2,0.2-0.5,0.3-0.6,0.6c-0.2,0.3,0,0.4-0.7,1c-0.7,0.6-0.4,0.6-0.7,0.8
		c-0.2,0.2-0.6,1.1-1,1.3c-0.4,0.3-0.4,0.1-0.6,0.5c-0.3,0.4-0.2,0.2-0.5,0.5c-0.3,0.3-0.2,0.3-0.5,0.5c-0.4,0.2-0.9,0.8-1,1
		c-0.1,0.2-1,0.9-1.2,1c-0.2,0.1-0.3,0.2-0.4,0.3c-0.1,0.1-0.3,0.3-0.5,0.5c-0.2,0.2-0.4,0.5-0.7,0.6c-0.2,0.1-1.6,1.2-1.6,1.2
		l-0.7,0.6C-258.1,425-259.1,425.7-259.2,425.5z"/>
	<path class="st7" d="M-246.3,412.4c0,0,0.5-1,1-2c0.5-1,0.4-0.9,0.6-1.3c0.2-0.3,0.8-0.8,1-1.1c0.2-0.3,0.2-0.4,0.4-0.6
		c0.2-0.2,0.2-0.9,0.7-1.3c0.4-0.5,0.9-1,0.9-0.8c0,0.2,0.2,0.6-0.1,0.7c-0.3,0.1-0.5,0.1-0.5,0.3c0,0.2,0.2-0.3,0,0.2
		c-0.3,0.5-0.1,1.2-0.5,1.4c-0.4,0.3-0.4,0-0.8,0.5c-0.4,0.4-0.6,0.5-0.8,0.8c-0.1,0.4-0.1,0.4-0.2,0.6c-0.1,0.2-0.9,1.6-0.9,1.6
		L-246.3,412.4z"/>
	<path class="st7" d="M-241.1,404.6c0,0,0.9-0.3,1.2,0c0.3,0.3,0.8,0.4,0.8,0.4s-0.2,0-0.4-0.1c-0.2-0.1-0.8-0.2-0.8-0.2l-0.7,0.3
		L-241.1,404.6z"/>
	<path class="st7" d="M-259.6,439c0,0,1.6-1.8,1.9-2.3c0.3-0.5,2-3.2,2.7-3.9c0.7-0.7,1.8-1.7,3-2.7c1.3-1.1,2-1.6,2.5-2.1
		c0.5-0.5,1.2-1.4,1.2-1.4s0.3-0.3,0.7-0.9c0.4-0.5,1.2-1.7,1.9-2.3c0.7-0.6,1.8-2,2.4-2.8c0.6-0.8,8.1-10.4,8.4-11.1
		c0.3-0.7,1.1-2,1.9-3c0.8-1,1.1-0.8,1-0.7c-0.2,0.1-0.1,0.2-0.3,0.5c-0.1,0.2,0.4,0.6-0.2,1c-0.5,0.4-2.5,3.7-2.9,4.7
		c-0.4,1-1.7,1.8-1.5,2.1c0.2,0.3,0.4,0.3-0.1,0.6c-0.5,0.2-1.2,0.7-1.1,0.9c0.1,0.2,0.1,1.3-0.2,1.4c-0.4,0.1-1.9,1.6-2,2.3
		c-0.1,0.7-0.2,1.8-0.5,1.5c-0.3-0.3-1.6,0.3-1.5,0.6c0.1,0.2,1.1,0.8,0.5,0.6c-0.6-0.1-1.6,0.5-1.8,0.6c-0.3,0.2-2.6,2.1-2.9,2.8
		c-0.3,0.7-1.7,2.6-2.4,3.1s-1.8,2.1-2.1,2.4c-0.4,0.3-1.3,0.4-1.2,0.6s-1.5,1.8-1.7,1.9c-0.2,0.1-1.3,1.1-1.5,1.5
		c-0.1,0.4-0.3,0.5-0.4,0.6c-0.2,0.1-1.5,1.9-1.7,2C-257.6,437.5-258.7,438.9-259.6,439z"/>
	<path class="st5" d="M-261.5,434.6c-0.7,0.2-1.1-0.3-0.9-0.5c0.2-0.2,2-2.9,3.8-3.4c1.7-0.5,1.6-0.2,1.9-0.7c0.3-0.5,0-0.3,0.6-0.9
		c0.5-0.6,4.7-4.7,7-7c2.3-2.3,4.4-5.7,5.4-6.4c1-0.7,1.9-1.3,2.2-2c0.3-0.7,0.9-2.4,1.3-2.8c0.3-0.4,1.9-1.5,2.3-2
		c0.3-0.5,1.1-1.5,1.1-2c-0.1-0.5-0.5-0.9,0.1-0.9c0.6,0,1.3,0.5,1,0.6c-0.3,0.2-0.6,1.5-1.3,2.2c-0.7,0.7-1,1.3-1.3,2.1
		c-0.3,0.8-0.8,2.2-1,2.3c-0.2,0.1-1.6,1-2.2,1.3c-0.6,0.4-2.6,1.6-2.9,2.3c-0.2,0.6-1.9,3.3-2.4,3.8c-0.5,0.5-1.9,2.7-2.6,2.7
		c-0.7,0.1-2,1-2.2,1.3c-0.2,0.3-2.1,1.7-2.1,2.4s-0.6,2.3-1,2.6c-0.4,0.4-0.9,1.1-1.3,1.1c-0.4,0-1.6,0.4-2.2,0.8
		c-0.6,0.4-0.9,0.5-2,1.3C-261.2,433.7-261.2,434.5-261.5,434.6z"/>
	<g>
		<path class="st3" d="M-256.9,431.7c-0.8,0.3-1.8,0.6-2.8,1.3l0,0c-0.4,0.3-0.9,0.6-1.3,1l0,0l0,0c-0.2,0.2-0.5,0.1-0.7-0.1l0,0
			c-0.2-0.2-0.1-0.5,0.1-0.7l0,0c0.5-0.4,1-0.7,1.4-1l0,0c1.1-0.7,2.2-1.1,3-1.4l0,0c0.8-0.3,1.5-0.5,1.8-0.7l0,0
			c0.1-0.1,0.2-0.1,0.2-0.2l0,0c0.3-0.3,0.5-1.2,0.8-2.1l0,0c0.3-1,0.7-2.1,1.6-3l0,0c0.3-0.3,0.6-0.5,0.9-0.7l0,0
			c1.3-0.8,2.7-1,3.8-1.7l0,0c0.3-0.2,0.6-0.5,0.9-0.8l0,0c0.7-0.8,0.9-1.6,1.2-2.6l0,0c0.3-1,0.7-2.1,1.9-3.4l0,0
			c0.3-0.4,0.7-0.6,1.1-0.9l0,0c1.1-0.7,2.1-0.9,2.9-1.4l0,0c0.2-0.1,0.4-0.3,0.6-0.4l0,0c0.2-0.2,0.3-0.4,0.3-0.7l0,0
			c0-0.3,0-0.8,0-1.3l0,0c0-1,0.3-2.4,1.7-3.8l0,0c0.2-0.2,0.5-0.2,0.7,0l0,0c0.2,0.2,0.2,0.5,0,0.7l0,0c-1,0.9-1.3,1.7-1.4,2.4l0,0
			c-0.1,0.7,0,1.3,0,2l0,0c0,0.5-0.2,1-0.6,1.4l0,0c-0.2,0.2-0.5,0.4-0.7,0.6l0,0c-1,0.6-2,0.8-2.9,1.4l0,0
			c-0.3,0.2-0.6,0.4-0.9,0.7l0,0c-1.1,1.1-1.4,2-1.7,3l0,0c-0.3,0.9-0.5,1.9-1.3,2.9l0,0c-0.3,0.4-0.7,0.7-1.1,1l0,0
			c-1.3,0.8-2.8,1-3.8,1.7l0,0c-0.2,0.2-0.5,0.3-0.7,0.5l0,0c-0.7,0.7-1,1.7-1.3,2.6l0,0c-0.3,0.9-0.4,1.8-1,2.5l0,0
			c-0.1,0.2-0.3,0.3-0.4,0.4l0,0C-255.4,431.3-256.1,431.5-256.9,431.7L-256.9,431.7z"/>
	</g>
	<g>
		<path class="st8" d="M-257,431.6c-0.8,0.3-1.8,0.6-2.8,1.3l0,0c-0.4,0.3-0.9,0.6-1.3,1l0,0l0,0c-0.2,0.2-0.5,0.1-0.7-0.1l0,0
			c-0.2-0.2-0.1-0.5,0.1-0.7l0,0c0.5-0.4,1-0.7,1.4-1l0,0c1.1-0.7,2.2-1.1,3-1.4l0,0c0.8-0.3,1.5-0.5,1.8-0.7l0,0
			c0.1-0.1,0.2-0.1,0.2-0.2l0,0c0.3-0.3,0.5-1.1,0.8-2.1l0,0c0.3-1,0.7-2.1,1.5-3l0,0c0.3-0.3,0.6-0.5,0.9-0.7l0,0
			c1.3-0.8,2.7-1,3.8-1.6l0,0c0.3-0.2,0.6-0.5,0.9-0.8l0,0c0.7-0.8,0.8-1.6,1.1-2.6l0,0c0.3-1,0.7-2.1,1.9-3.4l0,0
			c0.3-0.4,0.7-0.6,1.1-0.9l0,0c1.1-0.7,2.1-0.9,2.9-1.4l0,0c0.2-0.1,0.4-0.3,0.6-0.4l0,0c0.2-0.2,0.3-0.4,0.3-0.7l0,0
			c0-0.3,0-0.8,0-1.3l0,0c0-1,0.3-2.4,1.7-3.8l0,0c0.2-0.2,0.5-0.2,0.7,0l0,0c0.2,0.2,0.2,0.5,0,0.7l0,0c-1,0.9-1.3,1.7-1.4,2.4l0,0
			c-0.1,0.7,0,1.3,0,2l0,0c0,0.5-0.2,1-0.6,1.4l0,0c-0.2,0.2-0.5,0.4-0.7,0.6l0,0c-1,0.6-2,0.8-2.9,1.4l0,0
			c-0.3,0.2-0.6,0.4-0.9,0.7l0,0c-1.1,1.1-1.4,2-1.7,3l0,0c-0.3,0.9-0.5,1.9-1.3,2.9l0,0c-0.3,0.4-0.7,0.7-1.1,1l0,0
			c-1.3,0.8-2.7,1-3.8,1.6l0,0c-0.2,0.2-0.5,0.3-0.7,0.5l0,0c-0.7,0.7-1,1.7-1.3,2.6l0,0c-0.3,0.9-0.4,1.8-1,2.5l0,0
			c-0.1,0.2-0.3,0.3-0.4,0.4l0,0C-255.5,431.2-256.2,431.3-257,431.6L-257,431.6z"/>
	</g>
	<g>
		<path class="st9" d="M-255.3,430.3c-0.9,0.6-2.7,0.7-4.9,2l0,0c-0.4,0.3-0.9,0.6-1.4,1l0,0c-0.1,0-0.1,0-0.2,0l0,0
			c0-0.1,0-0.1,0-0.2l0,0c0.5-0.4,0.9-0.7,1.4-1l0,0c2.2-1.4,4-1.5,4.9-2l0,0c0.1-0.1,0.2-0.2,0.3-0.3l0,0c0.8-0.9,0.7-3.4,2.3-5.1
			l0,0c0.2-0.3,0.5-0.5,0.8-0.6l0,0c1.2-0.7,2.6-0.9,3.8-1.6l0,0c0.4-0.2,0.7-0.5,1-0.9l0,0c1.5-1.8,0.8-3.5,3.1-6l0,0
			c0.3-0.3,0.7-0.6,1-0.8l0,0c1-0.6,2-0.8,2.9-1.4l0,0c0.2-0.1,0.4-0.3,0.6-0.5l0,0c0.6-0.5,0.4-1.3,0.4-2.3l0,0
			c0-1,0.2-2.2,1.6-3.5l0,0c0,0,0.1,0,0.2,0l0,0c0,0,0,0.1,0,0.2l0,0c-1.3,1.3-1.5,2.4-1.5,3.3l0,0c0,0.9,0.2,1.8-0.5,2.4l0,0
			c-0.2,0.2-0.4,0.4-0.7,0.5l0,0c-0.9,0.6-1.9,0.8-2.9,1.4l0,0c-0.3,0.2-0.6,0.5-1,0.8l0,0c-2.2,2.3-1.5,4-3,5.9l0,0
			c-0.3,0.4-0.7,0.7-1,0.9l0,0c-1.2,0.7-2.6,0.9-3.8,1.6l0,0c-0.3,0.2-0.5,0.4-0.8,0.6l0,0c-1.5,1.6-1.4,4-2.3,5.1l0,0
			C-255,430.1-255.2,430.2-255.3,430.3L-255.3,430.3C-255.3,430.3-255.3,430.3-255.3,430.3L-255.3,430.3z"/>
	</g>
</g>
</svg>
