<?xml version="1.0" encoding="utf-8"?>
<!-- Generator: Adobe Illustrator 19.0.0, SVG Export Plug-In . SVG Version: 6.00 Build 0)  -->
<svg version="1.1" id="Layer_1" xmlns="http://www.w3.org/2000/svg" xmlns:xlink="http://www.w3.org/1999/xlink" x="0px" y="0px"
	 viewBox="-272 395.9 50 50" style="enable-background:new -272 395.9 50 50;" xml:space="preserve">
<style type="text/css">
	.st0{fill:#9D4A9B;}
	.st1{fill:url(#SVGID_1_);}
	.st2{fill:url(#SVGID_2_);}
	.st3{fill:#F5DEEB;}
	.st4{fill:#C8CACB;}
	.st5{fill:#F1F1F2;}
	.st6{fill:#A8ABAD;}
	.st7{clip-path:url(#SVGID_4_);}
	.st8{fill:#613438;}
	.st9{fill:#944B36;}
	.st10{fill:#A65D3E;}
	.st11{fill:#F17277;}
	.st12{fill:#F7ABA6;}
	.st13{fill:#F9B49F;}
	.st14{fill:#FCE8EB;}
	.st15{fill:#DFA16F;}
	.st16{fill:#FFE1B5;}
	.st17{fill:#FFF6DD;}
	.st18{fill:url(#SVGID_5_);}
	.st19{fill:#381217;}
	.st20{fill:#BE6559;}
	.st21{clip-path:url(#SVGID_7_);}
	.st22{fill:#811517;}
	.st23{fill:#E01A2C;}
	.st24{fill:#FFFFFF;}
</style>
<g>
	<ellipse class="st0" cx="-250.1" cy="433.6" rx="9.5" ry="2.6"/>
	<linearGradient id="SVGID_1_" gradientUnits="userSpaceOnUse" x1="-269.0016" y1="426.8416" x2="-231.5518" y2="426.8416">
		<stop  offset="0" style="stop-color:#FFFFFF"/>
		<stop  offset="1" style="stop-color:#9E529F"/>
	</linearGradient>
	<path class="st1" d="M-269,420.3c0,0-1.3,14.5,19.8,14.6c0,0,16.7,0.1,17.6-14.2c0,0-0.8-0.7-4.6-1.2
		C-239.9,419-265.9,417.9-269,420.3z"/>
	<linearGradient id="SVGID_2_" gradientUnits="userSpaceOnUse" x1="-250.644" y1="410.011" x2="-249.8947" y2="427.846">
		<stop  offset="0" style="stop-color:#FFFFFF"/>
		<stop  offset="1.136452e-002" style="stop-color:#FDFAFC"/>
		<stop  offset="8.222646e-002" style="stop-color:#F1DFED"/>
		<stop  offset="0.1637" style="stop-color:#E7C9E0"/>
		<stop  offset="0.2589" style="stop-color:#E0B8D6"/>
		<stop  offset="0.3766" style="stop-color:#DBADCF"/>
		<stop  offset="0.5417" style="stop-color:#D8A6CB"/>
		<stop  offset="1" style="stop-color:#D7A4CA"/>
	</linearGradient>
	<path class="st2" d="M-250.2,413.9c0,0-18.7,0.9-18.6,6.6c0,5.8,13.7,7.1,19,6.9c5.3-0.2,18.4-1.5,18.3-7
		C-231.7,414.8-247.4,413.8-250.2,413.9z"/>
	<path class="st3" d="M-266.9,424.5c-1.2-0.9-2.1-2.2-2.1-3.7l0,0c0,0,0,0,0,0l0,0c0-0.9,0.4-1.6,0.9-2.3l0,0
		c0.6-0.6,1.3-1.2,2.2-1.6l0,0c1.8-0.9,4.1-1.6,6.4-2l0,0c4.6-0.9,9.3-0.9,9.3-0.9l0,0l0.3,0c2.6,0,11.4,0.4,15.8,3l0,0
		c1.5,0.9,2.6,2.1,2.6,3.7l0,0c0,0,0,0,0,0.1l0,0c0,1.6-0.9,2.8-2.3,3.7l0,0c-1.3,0.9-3.1,1.6-5.1,2.1l0,0c-3.9,1-8.4,1.4-11,1.5
		l0,0c-0.4,0-0.8,0-1.2,0l0,0C-255.5,428.1-263.2,427.3-266.9,424.5L-266.9,424.5z M-268.2,420.7c0,1.1,0.6,2.1,1.8,3l0,0
		c1.1,0.9,2.7,1.5,4.5,2.1l0,0c3.6,1,7.9,1.4,10.8,1.4l0,0c0.4,0,0.8,0,1.2,0l0,0c3.9-0.2,12.1-0.9,15.7-3.5l0,0
		c1.2-0.9,1.9-1.8,1.9-3l0,0c0,0,0,0,0-0.1l0,0c0-1.1-0.8-2.1-2.2-2.9l0,0c-1.4-0.8-3.3-1.5-5.3-2l0,0c-4.1-0.9-8.6-1.2-10.2-1.2
		l0,0c-0.1,0-0.2,0-0.2,0l0,0v0c-0.1,0-0.9,0-2.2,0.2l0,0c-1.4,0.1-3.2,0.3-5.2,0.7l0,0c-3.9,0.6-8.3,1.9-9.9,3.7l0,0
		C-268,419.6-268.2,420.1-268.2,420.7L-268.2,420.7L-268.2,420.7L-268.2,420.7L-268.2,420.7z"/>
	<g>
		<path class="st4" d="M-233.8,413.7L-233.8,413.7l-0.9,1.4c0,0-0.7,0.8-1.7,0.8c-1.4,0-3.1,0.4-4.3,2.1c-1.6,2.3-2.3,6.3-0.9,7.8
			c1.5,1.5,4.5,0.1,6.1-2.2c1.2-1.8,1.3-3.9,1-5.6c-0.2-1.2,0.4-2.2,0.4-2.2l1-1.3l0,0c0,0,2.9-3.6,5.4-6c2.5-2.4,3.2-5,2.5-6.2
			c-1.1-0.6-3.1,0.6-4.6,4C-231.4,409.6-233.8,413.7-233.8,413.7z"/>
		<path class="st5" d="M-228.8,405.2c0,0,1.7-2.8,3-2.7c1.3,0.1-0.3,3.9-1.5,4.9c-1.2,1.1-5.2,5.7-5.8,6.5
			C-233.1,413.9-224,402.1-228.8,405.2z"/>
		<path class="st6" d="M-241,425.4c0,0,3.6,1.7,6-4.3c0,0,0.5-1.9-0.2-3.7c0,0,0.6-1.4,0.8-1.9c0.2-0.4-1.1,1.9-1.7,1.3
			c-0.5-0.6-3-0.3-3.6,0.4C-237.4,416.8-234.5,423.5-241,425.4z"/>
	</g>
	<g>
		<defs>
			<path id="SVGID_3_" d="M-251.4,409.5c0,0-16.9,5.2-16.8,11c0,5.8,13.2,7.1,18.4,6.9c5.1-0.2,17.8-1.5,17.7-7
				C-232.3,414.8-248.7,409.4-251.4,409.5z"/>
		</defs>
		<clipPath id="SVGID_4_">
			<use xlink:href="#SVGID_3_"  style="overflow:visible;"/>
		</clipPath>
		<g class="st7">
			<g>
				<path class="st8" d="M-249.9,422C-249.9,422-249.9,422-249.9,422c-0.1-0.2-0.5-0.6-0.7-0.8c0,0,0,0.1-0.1,0.1
					c0-0.4-0.3-0.2-0.7,0.1c-0.1-2.2-0.8-5-2.9-6.6c-0.3-0.2-0.6-0.4-1-0.6c-0.6-0.4-1.3-0.7-2.1-0.8c-0.1,0-0.3-0.1-0.4-0.1
					c0,0-0.1,0-0.1,0c0,0,0,0-0.1,0c0,0,0,0,0,0c0,0,0,0,0,0c-2.7-0.3-4.9,1.8-6.2,4.2c-0.4,0.7-1,2.2-1.2,3.5
					c-0.6,0.2-1,0.4-1.3,0.9c0.1,0.1-0.1,0.1-0.2,0.2c-0.2,0.5,0.4,2.1,0.2,1.8c-0.1,0.3,0.1,0.6,0.1,1c0.1,0.4,0.9,1.1,1.3,1.2
					c0.5,0.2,1.3,0.3,1.9,0.4c0,0,1.8,0.2,1.7,0.2c0,0,1.8,0.6,1.8,0.4c0,1,1.9,0.3,2.2,0.4c1.3,0.5,1.9-0.4,3.2-0.5
					c0.5,0,0.9-0.7,1.4-0.5c0.4,0.1,0.9-0.2,1.3-0.4c0.8-0.2,1.4-1.2,1.8-1.8C-249.2,423.5-249.7,422.7-249.9,422z"/>
				<g>
					<g>
						<path class="st9" d="M-251.7,421.4c0.5-5-2.2-7.6-6.3-8.1c-2.7-0.3-4.8,1.8-6.1,4.2c-0.4,0.7-1,2.2-1.2,3.5
							c-1,0-1.2,0.6-1.4,1.1c0.1,0.1,0.2,0.2,0.2,0.3c0,0.4,0.2,0.9,0.4,1.2c0,0.1,0.8,1.3,0.7,1.2c0.3,0.1,0.6-0.1,1,0.4
							c0.4,0.5,2.4,0.1,2.9,0.4c0.5,0.3,0.4-0.4,1.1,0.1c0.4,0.3,0.8,0.2,1.1,0.4c0.7,0.3,1.7,1.2,2.4,1c0,0,0.5-0.4,0.5-0.4
							c0-0.1,0.9,0,0.9,0c0.4-0.1,1.4-1.2,1.6-1.2c2.3,0.5,0.4-1.7,2.3-2.2c0.3-0.1,0.4-1.3,0.4-1.6
							C-251,420.8-251.3,421-251.7,421.4z"/>
						<path class="st9" d="M-251.5,423.7c-0.1,0.1-0.8,0.6-0.3,0.5c0.3,0,0.1,0.1,0.4,0.1C-251.1,424.3-251.2,423.7-251.5,423.7z"/>
					</g>
					<g>
						<path class="st10" d="M-257.9,418.8C-257.9,418.8-257.9,418.8-257.9,418.8C-257.9,418.8-257.9,418.8-257.9,418.8z"/>
						<path class="st10" d="M-263.3,421.1c0,0,1.6,2,1.7,0.6c0-0.3,1.2,0.1,1.1-0.3c-0.2-0.5-0.7,0-0.8-0.7
							c-0.1-0.8,0.4-0.7,0.9-0.5c0.7,0.3,2.3,0.6,3,0.3c-0.4-0.4-0.7-0.6-1.2-0.7c-0.6-0.1,0.4-0.8,0.7-0.9c-0.3,0-1.7-0.2-1.9-0.2
							c-0.2,0-1.7-0.8-1.3-0.9c0.6-0.2,0.6-0.7,1.4-0.7c0.2,0,0.3-0.2,0.5-0.3c0.5-0.1,1.5,0.5,2,0c0,0-2.7-1.3-2.8-1.1
							c0.5-0.4,1.9-0.1,2.1-0.4c-0.1,0.1-3.7-0.5-0.8-1.2c-0.2,0-0.7-0.1-0.9-0.1c-0.1-0.1,0-0.3,0.1-0.3c-3.2,1.3-5.2,4.7-5.3,8
							C-263.9,422.6-263.7,421-263.3,421.1z"/>
						<path class="st10" d="M-255.5,422.4c-0.8-0.3-1.7-0.4-2.6-0.4c0.4,0.1,0.6,0.5,0.6,0.4c-1-0.2-2.1-0.1-3.1,0.2
							c0.3,0.6,1.3,0.3,1.9,0.6c0.6,0.3,1.6-0.1,2.2-0.3C-257.1,422.5-256.1,422.3-255.5,422.4z"/>
						<path class="st10" d="M-255.1,421.1c-0.9-0.5-1.6-0.1-2.6-0.1C-256.8,421.5-255.9,421-255.1,421.1z"/>
						<path class="st10" d="M-255.2,419.8c-0.7-0.3-1.8-1.5-2.4-0.9C-256.7,419.2-256.1,419.9-255.2,419.8z"/>
						<path class="st10" d="M-265.4,422.7c0,0,0.1-1.3-0.1-1.3c-1.4-0.2-0.7,2.3,0.6,2.7C-264.9,423.9-265.5,422.8-265.4,422.7z"/>
						<path class="st10" d="M-264.5,423.8c-0.1-0.1-0.2-0.1-0.3-0.1C-265.2,424.2-263.9,424.2-264.5,423.8z"/>
						<path class="st10" d="M-262.8,424.2c0.2-0.3-0.9-0.1-0.5,0.1c-0.4-0.2-0.8-0.1-1.1,0.1c0.7,1.3,2.8-0.1,3.9,0.5
							C-261.3,423.8-262,422.9-262.8,424.2z"/>
						<path class="st10" d="M-260.3,424.5c-0.2,0.5,0.4,0.1,0.4,0.1C-260.1,424.5-260.2,424.5-260.3,424.5z"/>
						<path class="st10" d="M-255.9,424.8c-0.1,0.1-1.2,1-1.4,0.5c-0.1-0.4-1.1-0.6-1.5-0.6c-0.2-0.1-1.2,0-0.9,0.3
							c0.2,0.2,0.4-0.1,0.7,0c0.7,0.3,0.2,0.3,0.6,0.6c0,0,1.9,0.7,1.9,0.7c1.1-0.1,1.2-0.7,2-1.2c0.5-0.3,1.1-0.2,1.8-0.3
							C-253,423.4-255.2,424.4-255.9,424.8z"/>
						<path class="st10" d="M-251.5,421.3c-0.3,1-1.7,1.3-1.9,2.5c0.6-0.2,1.1-1.1,1.7-1.2C-251.8,422.6-250.9,421-251.5,421.3z"/>
						<path class="st10" d="M-251.4,423.7c-0.1,0-0.4-0.2-0.4,0C-252,424.3-251.1,423.9-251.4,423.7z"/>
						<path class="st10" d="M-257.3,426.3c-0.1-0.1-0.2-0.1-0.3,0.1c-0.1,0.5,0.5,0.1,0.5,0.1C-257.4,426.4-257.4,426.4-257.3,426.3
							z"/>
					</g>
				</g>
			</g>
			<g>
				<path class="st11" d="M-233.4,422.3C-233.4,422.3-233.4,422.3-233.4,422.3c-0.1-0.2-0.5-0.5-0.6-0.7c0,0,0,0.1-0.1,0.1
					c0-0.4-0.3-0.2-0.6,0.1c-0.1-2-0.8-4.6-2.7-6c-0.3-0.2-0.6-0.4-0.9-0.6c-0.6-0.3-1.2-0.6-2-0.7c-0.1,0-0.3,0-0.4-0.1
					c0,0-0.1,0-0.1,0c0,0,0,0-0.1,0c0,0,0,0,0,0c0,0,0,0,0,0c-2.6-0.2-4.7,1.6-5.9,3.8c-0.4,0.7-1,2-1.2,3.2c-0.5,0.2-1,0.3-1.2,0.8
					c0.1,0.1-0.1,0.1-0.1,0.2c-0.2,0.5,0.4,1.9,0.2,1.6c-0.1,0.3,0.1,0.6,0.1,0.9c0.1,0.4,0.8,1,1.3,1.1c0.5,0.2,1.2,0.3,1.8,0.4
					c0,0,1.7,0.1,1.6,0.2c0,0,1.7,0.6,1.7,0.4c0,0.9,1.8,0.3,2.1,0.3c1.2,0.5,1.8-0.4,3-0.4c0.5,0,0.9-0.6,1.3-0.4
					c0.4,0.1,0.8-0.2,1.2-0.3c0.7-0.2,1.3-1.1,1.7-1.6C-232.7,423.7-233.2,422.9-233.4,422.3z"/>
				<g>
					<g>
						<path class="st12" d="M-235.1,421.8c0.2-4.1-2.1-6.9-6-7.4c-2.5-0.3-4.6,1.6-5.8,3.8c-0.4,0.7-0.9,2-1.1,3.2
							c-0.9,0-1.1,0.5-1.3,1c0.1,0.1,0.2,0.2,0.2,0.3c0,0.3,0.2,0.8,0.3,1.1c0,0.1,0.8,1.2,0.6,1.1c0.3,0.1,0.6-0.1,1,0.3
							c0.4,0.5,2.3,0.1,2.8,0.4c0.5,0.3,0.4-0.3,1,0.1c0.3,0.3,0.7,0.2,1.1,0.3c0.6,0.3,1.6,1.1,2.3,0.9c0,0,0.5-0.4,0.5-0.4
							c0-0.1,0.8,0,0.8,0c0.4-0.1,1.3-1.1,1.6-1.1c2.2,0.5,0.4-1.6,2.2-2c0.3-0.1,0.4-1.1,0.4-1.4
							C-234.4,421.2-234.7,421.4-235.1,421.8z"/>
						<path class="st13" d="M-234.9,423.8c-0.1,0-0.8,0.5-0.3,0.5c0.3,0,0.1,0.1,0.3,0.1C-234.6,424.4-234.6,423.8-234.9,423.8z"/>
					</g>
					<g>
						<path class="st14" d="M-241,419.4C-241,419.4-241,419.4-241,419.4C-241,419.4-241,419.4-241,419.4z"/>
						<path class="st14" d="M-246.1,421.5c0,0,1.5,1.8,1.6,0.5c0-0.3,1.1,0.1,1-0.3c-0.2-0.4-0.7,0-0.8-0.7
							c-0.1-0.7,0.4-0.6,0.8-0.5c0.7,0.3,2.2,0.5,2.9,0.3c-0.4-0.3-0.7-0.5-1.1-0.6c-0.6-0.1,0.4-0.8,0.7-0.9
							c-0.3,0-1.6-0.2-1.8-0.2c-0.2,0-1.6-0.7-1.3-0.8c0.6-0.2,0.6-0.6,1.4-0.6c0.2,0,0.3-0.2,0.5-0.2c0.5-0.1,1.4,0.5,1.9,0
							c0,0-2.6-1.2-2.7-1c0.4-0.4,1.8-0.1,2-0.4c-0.1,0.1-3.5-0.5-0.8-1.1c-0.2,0-0.6,0-0.8-0.1c-0.1-0.1,0-0.2,0.1-0.3
							c-3.1,1.2-5,4.3-5,7.3C-246.7,422.9-246.5,421.4-246.1,421.5z"/>
						<path class="st14" d="M-238.7,422.6c-0.8-0.3-1.7-0.4-2.5-0.4c0.4,0.1,0.6,0.4,0.5,0.4c-0.9-0.2-2-0.1-2.9,0.2
							c0.3,0.5,1.2,0.2,1.8,0.5c0.6,0.3,1.5-0.1,2.1-0.3C-241.2,422.7-239.3,422.6-238.7,422.6z"/>
						<path class="st14" d="M-238.3,421.5c-0.8-0.4-1.5-0.1-2.4,0C-240,421.8-239.1,421.4-238.3,421.5z"/>
						<path class="st14" d="M-238.4,420.3c-0.6-0.3-1.7-1.4-2.2-0.9C-239.9,419.8-239.3,420.4-238.4,420.3z"/>
						<path class="st14" d="M-240.3,416.4c0.6,0.1,1,0.7,1.5,0.8C-238.3,417-239.8,416.3-240.3,416.4z"/>
						<path class="st14" d="M-248.1,422.9c0,0,0.1-1.2-0.1-1.1c-1.3-0.2-0.7,2.1,0.6,2.4C-247.7,424-248.2,423-248.1,422.9z"/>
						<path class="st14" d="M-247.2,423.9c-0.1-0.1-0.2-0.1-0.3-0.1C-248,424.3-246.7,424.3-247.2,423.9z"/>
						<path class="st14" d="M-245.6,424.3c0.2-0.3-0.8-0.1-0.5,0.1c-0.4-0.2-0.8-0.1-1.1,0.1c0.6,1.2,2.7-0.1,3.7,0.4
							C-244.2,424-244.8,423.1-245.6,424.3z"/>
						<path class="st14" d="M-243.3,424.6c-0.2,0.5,0.4,0.1,0.3,0.1C-243,424.6-243.1,424.6-243.3,424.6z"/>
						<path class="st14" d="M-239.1,424.8c-0.1,0.1-1.2,0.9-1.3,0.4c-0.1-0.3-1.1-0.5-1.5-0.5c-0.2-0.1-1.2,0-0.9,0.3
							c0.2,0.2,0.4-0.1,0.6,0c0.6,0.2,0.2,0.2,0.5,0.6c0,0,1.8,0.6,1.8,0.6c1-0.1,1.2-0.7,1.9-1.1c0.4-0.3,1-0.2,1.7-0.2
							C-236.4,423.6-238.4,424.5-239.1,424.8z"/>
						<path class="st14" d="M-234.9,421.7c-0.3,0.9-1.6,1.2-1.8,2.3c0.6-0.2,1.1-1,1.7-1.1C-235.2,422.9-234.4,421.4-234.9,421.7z"
							/>
						<path class="st14" d="M-234.8,423.9c-0.1,0-0.4-0.2-0.4,0C-235.4,424.4-234.6,424-234.8,423.9z"/>
						<path class="st14" d="M-240.4,426.2c-0.1-0.1-0.2,0-0.3,0.1c-0.1,0.4,0.5,0.1,0.5,0.1C-240.5,426.3-240.5,426.3-240.4,426.2z"
							/>
					</g>
				</g>
			</g>
			<g>
				<path class="st15" d="M-240.9,422.6C-241,422.6-241,422.6-240.9,422.6c-0.1-0.3-0.5-0.6-0.7-0.9c0,0-0.1,0.1-0.1,0.1
					c0-0.5-0.3-0.3-0.7,0.1c-0.1-2.4-0.9-5.5-3.1-7.2c-0.3-0.3-0.7-0.5-1-0.7c-0.7-0.4-1.4-0.7-2.2-0.9c-0.1,0-0.3-0.1-0.4-0.1
					c-0.1,0-0.1,0-0.2,0c0,0,0,0-0.1,0c0,0,0,0,0,0c0,0,0,0,0,0c-2.9-0.3-5.3,2-6.6,4.5c-0.4,0.8-1.1,2.4-1.3,3.8
					c-0.6,0.2-1.1,0.4-1.4,0.9c0.1,0.1-0.1,0.1-0.2,0.3c-0.3,0.6,0.5,2.3,0.2,1.9c-0.1,0.4,0.1,0.7,0.2,1.1c0.1,0.4,0.9,1.2,1.4,1.3
					c0.6,0.2,1.4,0.3,2,0.5c0,0,1.9,0.2,1.8,0.2c0,0,2,0.7,2,0.5c0,1.1,2,0.3,2.4,0.4c1.4,0.5,2-0.4,3.4-0.5c0.6-0.1,1-0.7,1.5-0.5
					c0.4,0.2,0.9-0.3,1.4-0.4c0.8-0.3,1.5-1.3,2-1.9C-240.2,424.2-240.8,423.3-240.9,422.6z"/>
				<g>
					<g>
						<path class="st16" d="M-242.9,422c0.3-4.9-2.4-8.2-6.7-8.8c-2.9-0.3-5.2,1.9-6.5,4.5c-0.4,0.8-1.1,2.4-1.3,3.8
							c-1,0-1.2,0.6-1.5,1.2c0.1,0.1,0.2,0.2,0.2,0.3c0,0.4,0.2,0.9,0.4,1.3c0,0.1,0.9,1.4,0.7,1.4c0.3,0.2,0.6-0.1,1.1,0.4
							c0.5,0.6,2.6,0.1,3.2,0.5c0.5,0.3,0.5-0.4,1.1,0.1c0.4,0.3,0.8,0.2,1.2,0.4c0.7,0.4,1.8,1.3,2.6,1.1c0,0,0.5-0.5,0.5-0.5
							c0-0.1,0.9,0,0.9,0c0.4-0.1,1.5-1.3,1.8-1.3c2.4,0.5,0.4-1.9,2.5-2.4c0.4-0.1,0.4-1.4,0.5-1.7
							C-242.1,421.3-242.5,421.5-242.9,422z"/>
						<path class="st16" d="M-242.7,424.4c-0.1,0.1-0.9,0.6-0.3,0.6c0.3,0,0.1,0.1,0.4,0.1C-242.3,425.1-242.3,424.4-242.7,424.4z"
							/>
					</g>
					<g>
						<path class="st17" d="M-249.5,419.2C-249.5,419.1-249.5,419.1-249.5,419.2C-249.5,419.2-249.5,419.2-249.5,419.2z"/>
						<path class="st17" d="M-255.4,421.6c0,0,1.7,2.2,1.9,0.6c0-0.3,1.3,0.1,1.1-0.3c-0.2-0.5-0.8-0.1-0.9-0.8
							c-0.1-0.8,0.4-0.7,0.9-0.5c0.7,0.3,2.5,0.6,3.2,0.4c-0.4-0.4-0.8-0.6-1.3-0.7c-0.7-0.1,0.5-0.9,0.8-1c-0.4,0-1.8-0.2-2-0.2
							c-0.3,0-1.8-0.8-1.4-0.9c0.7-0.2,0.7-0.7,1.5-0.8c0.3,0,0.3-0.2,0.6-0.3c0.6-0.1,1.6,0.6,2.2,0c0,0-2.9-1.4-3-1.2
							c0.5-0.4,2.1-0.2,2.3-0.4c-0.1,0.1-4-0.6-0.9-1.3c-0.2,0-0.7-0.1-1-0.1c-0.1-0.2,0-0.3,0.1-0.4c-3.5,1.4-5.6,5.1-5.7,8.6
							C-256,423.3-255.8,421.5-255.4,421.6z"/>
						<path class="st17" d="M-247,423c-0.9-0.3-1.9-0.5-2.8-0.4c0.4,0.1,0.6,0.5,0.6,0.4c-1.1-0.2-2.2-0.1-3.3,0.2
							c0.3,0.6,1.4,0.3,2,0.6c0.7,0.4,1.7-0.1,2.3-0.4C-248.7,423.2-247.6,422.9-247,423z"/>
						<path class="st17" d="M-246.5,421.6c-0.9-0.5-1.7-0.1-2.8-0.1C-248.4,422-247.5,421.5-246.5,421.6z"/>
						<path class="st17" d="M-246.6,420.2c-0.7-0.4-1.9-1.6-2.5-1C-248.3,419.6-247.6,420.3-246.6,420.2z"/>
						<path class="st17" d="M-248.7,415.5c0.7,0.2,1.1,0.8,1.7,1C-246.5,416.3-248.3,415.4-248.7,415.5z"/>
						<path class="st17" d="M-248.6,417.2c-0.3,0.3,0.9-0.3,0.3-0.2C-248.1,416.9-248.6,417.3-248.6,417.2z"/>
						<path class="st17" d="M-257.6,423.3c0,0,0.1-1.4-0.1-1.4c-1.5-0.2-0.7,2.5,0.7,2.9C-257.1,424.6-257.8,423.4-257.6,423.3z"/>
						<path class="st17" d="M-256.6,424.5c-0.1-0.1-0.2-0.2-0.3-0.1C-257.4,424.9-256,424.9-256.6,424.5z"/>
						<path class="st17" d="M-254.8,424.9c0.2-0.3-0.9-0.1-0.5,0.1c-0.4-0.2-0.9-0.1-1.2,0.1c0.7,1.4,3.1-0.1,4.2,0.5
							C-253.2,424.6-253.9,423.6-254.8,424.9z"/>
						<path class="st17" d="M-252.1,425.3c-0.2,0.6,0.5,0.1,0.4,0.1C-251.9,425.3-252,425.3-252.1,425.3z"/>
						<path class="st17" d="M-247.5,425.6c-0.1,0.1-1.3,1.1-1.5,0.5c-0.1-0.4-1.2-0.6-1.6-0.6c-0.3-0.2-1.3,0-1,0.4
							c0.2,0.2,0.5-0.1,0.7,0c0.7,0.3,0.2,0.3,0.6,0.7c0,0,2.1,0.8,2,0.7c1.2-0.1,1.3-0.8,2.1-1.3c0.5-0.3,1.1-0.2,2-0.3
							C-244.3,424.1-246.6,425.2-247.5,425.6z"/>
						<path class="st17" d="M-242.7,421.9c-0.3,1.1-1.8,1.4-2,2.7c0.7-0.2,1.2-1.2,1.9-1.3C-243,423.3-242.1,421.5-242.7,421.9z"/>
						<path class="st17" d="M-242.6,424.5c-0.1,0-0.4-0.3-0.5,0C-243.2,425.1-242.3,424.6-242.6,424.5z"/>
						<path class="st17" d="M-248.9,427.3c-0.1-0.1-0.2-0.1-0.3,0.1c-0.1,0.5,0.6,0.1,0.5,0.1C-249,427.4-249.1,427.3-248.9,427.3z"
							/>
					</g>
				</g>
			</g>
			<g>
				
					<radialGradient id="SVGID_5_" cx="-641.7057" cy="440.8723" r="3.849" gradientTransform="matrix(2.1913 -0.1577 0.1179 1.6943 1107.271 -432.846)" gradientUnits="userSpaceOnUse">
					<stop  offset="0.4396" style="stop-color:#7E3F35"/>
					<stop  offset="0.6484" style="stop-color:#6A1111"/>
					<stop  offset="0.8297" style="stop-color:#381217"/>
				</radialGradient>
				<path class="st18" d="M-247.7,412.2c0,0-1-0.5-1.5-0.4c-0.5,0.1-2,0.5-2.4,0.7c-0.4,0.2-0.9,0.6-1.5,0.8
					c-0.5,0.3-0.7,0.5-1.2,0.8c-0.5,0.3-0.4,1.1-1,1.7c-0.7,0.6-1,1-1,1.3c0,0.3-0.7,0.5,0,0.7c0.6,0.1,0.8,0.5,1,0.1
					c0.2-0.4-0.6,0,0.2-0.4c0.8-0.4,1.1-0.5,1.1-0.2c0,0.3-0.2,0.3,0,0.8c0.2,0.5,0.2,1.5,0.6,2c0.5,0.5,1,0.6,1.4,0.3
					c0.4-0.4-0.1-0.5,0-1c0.1-0.6,0.1-0.6,0.6-0.8c0.4-0.2,0.7-0.3,1.3-1c0.6-0.7,0.6-0.9,1.3-0.6c0.7,0.3,1.1,0.2,1.8,0.1
					c0.7,0,1.2,0.5,1.3,1.3c0.1,0.8-0.4,1.3,0.5,1.4c1,0.1,1.3-0.3,1.5,0c0.2,0.3-0.1,0.5,0.2,1.1c0.3,0.6,0.3,1,0.3,1
					c0,0,0.8,0.2,0.9-0.8c0.1-1,0-1.1-0.1-1.4c-0.1-0.4,0.3-1,0.1-1.6c-0.2-0.7-0.3-1.5-0.6-2.1c-0.3-0.6-1.2-1.7-1.6-2
					c-0.4-0.3-1.9-1.4-2.3-1.4C-247.1,412.5-247.4,412.6-247.7,412.2z"/>
				<path class="st19" d="M-254.4,414.1c-0.5,0.3-0.4,1.1-1,1.7c-0.7,0.6-1,1-1,1.3c0,0.3-0.7,0.5,0,0.7c0.6,0.1,0.8,0.5,1,0.1
					c0.2-0.4-0.6,0,0.2-0.4c0.8-0.4,1.1-0.5,1.1-0.2c0,0.3-0.2,0.3,0,0.8c0.2,0.5,0.2,1.5,0.6,2c0.5,0.5,1,0.6,1.4,0.3
					c0.4-0.4-0.1-0.5,0-1c0.1-0.6,0.1-0.6,0.6-0.8c0.4-0.2,0.7-0.3,1.3-1c0.6-0.7,0.6-0.9,1.3-0.6c0.7,0.3,1.1,0.2,1.8,0.1
					c0.7,0,1.2,0.5,1.3,1.3c0.1,0.8-0.4,1.3,0.5,1.4c1,0.1,1.3-0.3,1.5,0c0.2,0.3-0.1,0.5,0.2,1.1c0.3,0.6,0.3,1,0.3,1
					c0,0,0.8,0.2,0.9-0.8c0.1-0.6,0.1-0.9,0-1.1c-0.1,0.2-0.2,0.5-0.5,0.5c-0.6,0.1-0.3-0.4-0.3-0.8c0-0.4-0.2-0.8-0.7-0.7
					c-0.5,0.1-0.8-0.5-1.3-0.6c-0.4-0.1-0.3-0.4-0.3-0.8c0-0.4-0.3-0.6-1-0.8c-0.7-0.1-1-0.3-2.5-0.7c-0.7-0.2-1.3,0.8-1.8,1.5
					c-0.5,0.7-1.2,0.5-1.7,1.1c-0.5,0.5-0.6,0.1-0.6-0.8c0-0.9-0.4-2.2-0.7-2.6c-0.3-0.4,0.1-0.6,0.5-1.3c0.2-0.4,0.6-0.8,1-1.2
					c-0.3,0.2-0.6,0.4-0.9,0.5C-253.7,413.6-253.8,413.8-254.4,414.1z"/>
				<path class="st20" d="M-251.9,414.5c-0.2-0.4,0.3-1.1,0.6-0.8c0.3,0.3,0.1,0.3,0.7,0.3c0.6,0,2,0.5,2.4,0.9
					c0.5,0.5,0.8,1,1.4,1.3c0.6,0.2-0.6,0.4-1,0.2c-0.4-0.2-0.7-1.1-1.2-1c-0.5,0.1-0.8-0.4-1.2-0.2c-0.4,0.3-1.2,0.3-1.3-0.1
					C-251.6,414.7-251.9,414.5-251.9,414.5z"/>
				<path class="st20" d="M-245.6,413.9c0,0-0.6-0.7-0.2-0.6c0.4,0.2,0.4,0.4,0.9,1c0.6,0.6,1.6,1.1,1.4,1.7c-0.2,0.6,0.3,1,0.1,1.3
					c-0.2,0.3-1,0.4-0.8-0.2c0.2-0.6,0.4-0.4,0.2-0.9c-0.2-0.5-0.1-1-0.9-1.4C-245.6,414.4-245.6,413.9-245.6,413.9z"/>
			</g>
		</g>
	</g>
	<g>
		<defs>
			<path id="SVGID_6_" d="M-247.2,407.5c0,0-4.1,1.3-4.3,1.9c-0.2,0.6,0.5,2.4,0.5,2.4s0.7,1.3,1.8,1.5l0.3,0.2c0,0,0.5,1.9,3.5,1.1
				c3-0.8,0.5-3.4,0.7-3.7s0.1-2.3,0.1-2.3l-0.9-3.2L-247.2,407.5z"/>
		</defs>
		<clipPath id="SVGID_7_">
			<use xlink:href="#SVGID_6_"  style="overflow:visible;"/>
		</clipPath>
		<g class="st21">
			<path class="st22" d="M-245.8,406.2c-0.1,0-0.2,0.1-0.2,0.2l0,1.5c0,0,0,0,0,0c-0.2,0.7-0.6,1.2-1,1.6c-0.5,0.5-1,0.8-1,0.8
				c0,0-0.1,0.1,0,0.1c0,0.1,0.1,0.1,0.1,0.1l0,0c0,0,1.5-0.8,2.1-2.5c0,0,0,0,0,0c0,1.1-0.2,2.9-0.7,3.5c0,0,0,0.1,0,0.2
				c0,0,0,0,0.1,0c0,0,0,0,0.1,0c0.6-0.8,0.7-2.6,0.7-3.7c0,0,0-0.1,0-0.1l0-1.5C-245.6,406.3-245.7,406.3-245.8,406.2z"/>
			<g>
				<path class="st22" d="M-250.4,411.4c0-0.5,0.1-0.9,0.3-1.3c-0.4,0.4-0.7,1-0.7,1.7c0,1.2,0.8,2.1,1.7,2.1c0.6,0,1.1-0.3,1.4-0.8
					c-0.3,0.3-0.6,0.4-1,0.4C-249.6,413.5-250.4,412.5-250.4,411.4z"/>
				<path class="st23" d="M-249,409.7c-0.4,0-0.7,0.2-1,0.4c-0.2,0.4-0.3,0.8-0.3,1.3c0,1.2,0.8,2.1,1.7,2.1c0.4,0,0.7-0.2,1-0.4
					c0.2-0.4,0.3-0.8,0.3-1.3C-247.3,410.6-248.1,409.7-249,409.7z"/>
			</g>
			<path class="st24" d="M-248.3,410.4c0,0.1-0.2,0.1-0.3,0.1c-0.1-0.1-0.2-0.3-0.2-0.4c0-0.1,0.2-0.1,0.3-0.1
				C-248.3,410.1-248.3,410.2-248.3,410.4z"/>
			<g>
				<path class="st22" d="M-248.5,413.1c0-0.5,0.1-0.9,0.3-1.3c-0.4,0.4-0.7,1-0.7,1.7c0,1.2,0.8,2.1,1.7,2.1c0.6,0,1.1-0.3,1.4-0.8
					c-0.3,0.3-0.6,0.4-1,0.4C-247.8,415.2-248.5,414.3-248.5,413.1z"/>
				<path class="st23" d="M-247.2,411.4c-0.4,0-0.7,0.2-1,0.4c-0.2,0.4-0.3,0.8-0.3,1.3c0,1.2,0.8,2.1,1.7,2.1c0.4,0,0.7-0.2,1-0.4
					c0.2-0.4,0.3-0.8,0.3-1.3C-245.4,412.4-246.2,411.4-247.2,411.4z"/>
			</g>
			<path class="st24" d="M-246.4,412.1c0,0.1-0.2,0.1-0.3,0.1c-0.1-0.1-0.2-0.3-0.2-0.4c0-0.1,0.2-0.1,0.3-0.1
				C-246.5,411.8-246.4,412-246.4,412.1z"/>
		</g>
	</g>
</g>
</svg>
