<?xml version="1.0" encoding="utf-8"?>
<!-- Generator: Adobe Illustrator 19.0.0, SVG Export Plug-In . SVG Version: 6.00 Build 0)  -->
<svg version="1.1" id="Layer_1" xmlns="http://www.w3.org/2000/svg" xmlns:xlink="http://www.w3.org/1999/xlink" x="0px" y="0px"
	 viewBox="-272 395.9 50 50" style="enable-background:new -272 395.9 50 50;" xml:space="preserve">
<style type="text/css">
	.st0{fill:#FDEEA0;}
	.st1{fill:#EE7A23;}
	.st2{fill:#CC210A;}
	.st3{fill:#E5B445;}
	.st4{fill:#FFD066;}
	.st5{fill:#C18711;}
	.st6{fill:#FCDF90;}
	.st7{fill:#AF1A0B;}
	.st8{fill:#E8AB23;}
	.st9{fill:#D89819;}
	.st10{fill:#AA2913;}
	.st11{fill:#BF3713;}
	.st12{fill:#F46447;}
	.st13{fill:#AAA9A9;}
	.st14{clip-path:url(#SVGID_2_);fill:#E2B654;}
	.st15{clip-path:url(#SVGID_2_);}
	.st16{fill:#D6A53A;}
	.st17{fill:#FFEABB;}
	.st18{fill:#BA7334;}
</style>
<g id="Layer_3">
	<g id="XMLID_1_">
		<path id="XMLID_2_" class="st0" d="M-241.3,431.7l-0.5-0.9l0.7-0.4l0.6,1c0.2-0.1,0.5,0,0.7,0.2c0.1,0.3,0.1,0.6-0.2,0.8
			c0,0-0.1,0-0.1,0.1c-0.1,0.1-0.1,0.2-0.2,0.3c-0.3,0.2-0.7,0.1-0.9-0.2C-241.5,432.2-241.5,431.9-241.3,431.7z"/>
	</g>
</g>
<g id="Layer_2">
	<g id="XMLID_9_">
		<path id="XMLID_10_" class="st0" d="M-241.3,431.7l-0.5-0.9l0.7-0.4l0.6,1c0.2-0.1,0.5,0,0.7,0.2c0.1,0.3,0.1,0.6-0.2,0.8
			c0,0-0.1,0-0.1,0.1c-0.1,0.1-0.1,0.2-0.2,0.3c-0.3,0.2-0.7,0.1-0.9-0.2C-241.5,432.2-241.5,431.9-241.3,431.7z"/>
	</g>
	<path id="XMLID_5_" class="st1" d="M-244.9,424.6c0,0-2.8,1.7,0.9,5.1c0,0,0.6,0.6,1.2,0.4c0,0,0.6,0,0.6,0.9c0,0,0.5,0.3,0.9-0.2
		c0.6-0.1,0.6-0.7,0.6-0.7c-0.7-0.4-0.5-1-0.5-1c0.5-0.5,0.3-1.3,0.3-1.3C-242.1,423-244.9,424.6-244.9,424.6z"/>
</g>
<g id="Layer_1_1_">
</g>
<g>
	<g>
		<path class="st2" d="M-248.6,405c-4.9-0.1-7.3,0.4-9.3,1.4c-2.1,1.1-9.5,7.1-9.8,11c-0.3,4,2.1,9.9,7,12.3
			c4.9,2.4,12.3,4,15.2,3.6c2.9-0.4,12.4-2.3,15.5-4.6c3.1-2.3,5-5.6,4.8-8.3c-0.2-2.8-1.6-8.9-7.2-11.7
			C-238.1,405.8-242.3,405.1-248.6,405z"/>
		<path class="st3" d="M-247.5,406.7c-1.2-0.2-2.2-0.5-3.4-0.5c-1.2,0-2.2,0.5-3.3,0.8c-1,0.3-2.2,0.5-3,1.3c-0.4,0.5-0.5,0.8-1.1,1
			c-0.5,0.2-0.9,0.2-1.4,0.4c-1.2,0.5-1.5,1.6-2.5,2.3c-0.9,0.7-1.7,0.8-2.3,1.9c-0.5,0.9-0.9,2-1,3c0,0.6-0.1,1.1-0.2,1.6
			c-0.1,0.5-0.3,1,0,1.5c0.2,0.5,0.8,0.8,1.1,1.3c0.3,0.5,0.1,1.1,0.3,1.7c0.4,1.1,1.7,1.2,2.3,2.1c0.8,1.2,0.7,2.1,2.4,2.1
			c1.7,0,1.4,1,2.4,2c1,1,2,0.6,3.2,0.7c1.3,0.1,2.1,1.2,3.5,1.2c1.4,0,3,0.2,4.4-0.1c1.1-0.2,2.3-0.7,3.4-0.7c1.2,0,2.1,0.4,3-0.5
			c1-1,2-0.6,3.3-0.9c1.1-0.2,2.1-0.9,3.1-1.2c1-0.3,1.4-1.2,2.1-2.1c0.7-0.9,1.6-1.4,2.4-2.1c0.6-0.6,1.6-1.6,1.4-2.5
			c-0.1-0.6-0.4-0.8-0.2-1.4c0.1-0.6,0.3-1,0-1.6c-0.4-0.8-1.3-1.5-1.6-2.4c-0.2-0.7-0.3-1-0.8-1.5c-0.4-0.5-1-0.8-1.4-1.4
			c-0.8-1.1-1.2-1.8-2.5-2.3c-1.2-0.4-2-1.5-3.2-1.8c-1.3-0.3-2.5-0.7-3.8-1.2c-0.6-0.3-1.1-0.4-1.8-0.5c-0.9-0.1-1.6,0.2-2.5,0.3
			C-245.9,407.2-246.7,406.8-247.5,406.7z"/>
		<g>
			<path class="st4" d="M-249.4,407.2c-1-0.2-1.9-0.5-2.9-0.5c-1,0-1.9,0.4-2.8,0.6c-0.8,0.2-1.9,0.4-2.5,1.1
				c-0.4,0.4-0.4,0.6-0.9,0.8c-0.4,0.1-0.8,0.2-1.2,0.4c-1,0.4-1.3,1.4-2.1,2c-0.7,0.6-1.4,0.7-1.9,1.6c-0.4,0.8-0.8,1.7-0.8,2.5
				c0,0.5-0.1,0.9-0.2,1.4c-0.1,0.4-0.2,0.8,0,1.3c0.2,0.4,0.7,0.7,0.9,1.1c0.3,0.4,0.1,0.9,0.2,1.4c0.3,0.9,1.4,1.1,1.9,1.8
				c0.7,1,0.6,1.7,2,1.7c1.4,0,1.2,0.9,2,1.7c0.8,0.9,1.7,0.5,2.7,0.6c1.1,0.1,1.8,1,3,1c1.2,0,2.6,0.1,3.7-0.1
				c0.9-0.2,1.9-0.6,2.8-0.6c1,0,1.7,0.4,2.5-0.4c0.9-0.8,1.7-0.5,2.8-0.8c0.9-0.2,1.7-0.8,2.6-1c0.9-0.3,1.2-1,1.8-1.7
				c0.6-0.7,1.4-1.1,2-1.8c0.5-0.5,1.3-1.4,1.2-2.1c-0.1-0.5-0.3-0.7-0.2-1.2c0.1-0.5,0.2-0.8,0-1.3c-0.4-0.7-1.1-1.3-1.3-2
				c-0.2-0.6-0.3-0.8-0.7-1.3c-0.4-0.4-0.8-0.7-1.2-1.1c-0.7-0.9-1-1.5-2.1-1.9c-1-0.4-1.7-1.2-2.7-1.5c-1.1-0.3-2.1-0.6-3.2-1
				c-0.5-0.2-1-0.4-1.5-0.4c-0.8-0.1-1.4,0.2-2.1,0.3C-248.1,407.7-248.8,407.3-249.4,407.2z"/>
			<path class="st4" d="M-232.4,423.5c0,0,0-0.1,0-0.1c0,0,0,0,0,0c0-0.1-0.1-0.1-0.1-0.2c-0.2-0.2-0.5-0.3-0.8-0.2
				c-0.1,0.1-0.2,0.2-0.2,0.3c0,0.1,0,0.1,0,0.2c0,0.2,0.1,0.4,0.3,0.5c0.1,0.1,0.3,0.1,0.5,0.2c0.2,0,0.3-0.1,0.4-0.2
				C-232.3,423.8-232.4,423.6-232.4,423.5z"/>
			<path class="st4" d="M-231.6,420.1c-0.2-0.1-0.3-0.1-0.5,0c-0.2,0.1-0.2,0.3,0,0.5c0.1,0.1,0.1,0.1,0.2,0c0,0,0,0,0,0
				c0.1,0,0.2-0.1,0.3-0.1C-231.4,420.5-231.4,420.2-231.6,420.1z"/>
			<path class="st4" d="M-235.9,427.8c-0.2-0.1-0.4,0-0.3,0.2c0,0.1,0,0.1,0,0.2c0,0,0,0,0,0.1c0,0.2,0.2,0.3,0.4,0.3
				c0.1,0,0.2-0.1,0.2-0.3C-235.6,428-235.7,427.9-235.9,427.8z"/>
			<path class="st4" d="M-241.2,426.4c-0.1,0-0.2,0.1-0.2,0.2c0,0,0,0.1,0,0.1c0,0,0,0,0,0c0,0.1,0,0.2,0,0.3c0.1,0.1,0.2,0.1,0.3,0
				c0.1-0.1,0.1-0.2,0.1-0.3C-241,426.6-241,426.4-241.2,426.4z"/>
			<path class="st4" d="M-251.1,429.1C-251.1,429.1-251.1,429-251.1,429.1c-0.1-0.2-0.3-0.2-0.4-0.1c-0.1,0-0.1,0.1-0.1,0.1
				c-0.1,0-0.1,0.1-0.2,0.2c-0.1,0.1-0.1,0.2-0.1,0.4c0,0.1,0,0.1,0,0.2c0,0.1,0,0.2,0.1,0.3c0,0,0.1,0.1,0.2,0
				c0.1,0.1,0.2,0.2,0.4,0.1C-251,430-250.8,429.4-251.1,429.1z"/>
			<path class="st4" d="M-254.6,429.1c0,0,0-0.1,0-0.1c0,0,0-0.1,0,0c0-0.1-0.2-0.1-0.2,0c0,0,0,0,0,0c-0.1,0-0.1,0.1-0.2,0.2
				c0,0.1,0,0.1,0,0.2c0,0.3,0.4,0.3,0.4,0C-254.6,429.2-254.6,429.1-254.6,429.1z"/>
			<path class="st4" d="M-228.5,417.7c0-0.2-0.1-0.4-0.2-0.5c-0.2-0.1-0.5-0.2-0.6,0.1c-0.1,0.2,0,0.4,0.1,0.6
				c0.1,0.2,0.3,0.4,0.5,0.4c0.2,0.1,0.3,0,0.3-0.2C-228.4,418-228.4,417.9-228.5,417.7z"/>
			<path class="st4" d="M-265,419.6c0.1-0.1,0-0.3,0-0.4c0-0.1-0.1-0.2-0.2-0.2c-0.1,0-0.2,0.1-0.2,0.2c0,0.2,0,0.4,0.1,0.5
				C-265.2,420-264.9,419.9-265,419.6C-265,419.6-265,419.6-265,419.6z"/>
		</g>
		<g>
			<path class="st5" d="M-259.7,409.3c0,0,0.1,0.1,0.3,0.2c0.2,0.2,0.5,0.4,0.8,0.7c0.2,0.2,0.4,0.3,0.6,0.5
				c0.1,0.1,0.2,0.2,0.3,0.3c0.1,0.1,0.2,0.2,0.4,0.3c0.6,0.3,1.2,0.7,1.8,1.2c0.3,0.3,0.6,0.6,1,0.8c0.1,0.1,0.2,0.1,0.3,0.2
				c0.1,0.1,0.2,0.1,0.3,0.2c0.2,0.1,0.4,0.3,0.5,0.4c0.7,0.5,1.6,1,2.4,1.5c0.9,0.5,1.7,1,2.6,1.6c0.9,0.5,1.8,1.1,2.8,1.5
				c0.5,0.2,1,0.5,1.4,0.7c0.2,0.1,0.5,0.2,0.7,0.4c0.2,0.1,0.5,0.2,0.7,0.4l0.3,0.2c0.1,0.1,0.2,0.1,0.3,0.2l0.2,0.1l0.1,0l0,0l0,0
				c0,0,0,0,0,0c0.1,0.1,0.2,0.1,0.4,0.2c0.5,0.3,0.9,0.6,1.3,0.9c0.2,0.2,0.4,0.4,0.5,0.6l0.1,0.1c0,0,0.1,0.1,0.1,0.1
				c0.1,0.1,0.2,0.1,0.3,0.2c0.4,0.3,0.8,0.5,1.2,0.7c0.4,0.2,0.8,0.4,1.2,0.6c0.4,0.2,0.7,0.4,1.1,0.6c0.7,0.4,1.3,0.8,1.8,1.2
				c0.6,0.3,1,0.6,1.4,0.9c0.8,0.5,1.3,0.7,1.3,0.7l-0.1,0.2c0,0-0.5-0.3-1.3-0.7c-0.2-0.1-0.4-0.2-0.7-0.4
				c-0.2-0.1-0.5-0.3-0.8-0.4c-0.6-0.3-1.2-0.7-1.9-1c-0.3-0.2-0.7-0.4-1.1-0.6c-0.4-0.2-0.7-0.5-1.1-0.8c-0.4-0.3-0.8-0.5-1.2-0.8
				c-0.1-0.1-0.2-0.1-0.3-0.2c0,0-0.1-0.1-0.1-0.1l-0.1-0.1c-0.2-0.2-0.4-0.3-0.6-0.5c-0.4-0.3-0.8-0.6-1.3-0.7
				c-0.1,0-0.2-0.1-0.4-0.1l-0.4-0.1c-0.3-0.1-0.5-0.2-0.7-0.3c-0.5-0.2-0.9-0.5-1.4-0.8c-0.5-0.3-0.9-0.6-1.3-0.9
				c-0.9-0.6-1.8-1.2-2.7-1.7c-0.9-0.5-1.8-1-2.7-1.5c-0.9-0.5-1.7-1-2.5-1.5c-0.1-0.1-0.2-0.1-0.3-0.2c-0.1-0.1-0.2-0.1-0.3-0.2
				c-0.2-0.1-0.4-0.3-0.5-0.4c-0.2-0.2-0.3-0.3-0.5-0.4c-0.2-0.1-0.3-0.3-0.4-0.4c-0.6-0.5-1.2-0.9-1.8-1.2c-0.6-0.3-1-0.8-1.3-1.1
				c-0.3-0.3-0.6-0.6-0.7-0.8C-259.7,409.5-259.8,409.4-259.7,409.3L-259.7,409.3z"/>
			<path class="st5" d="M-245.1,405.1c0,0,0,0.1,0.1,0.3c0,0.2,0.1,0.5,0.1,0.9c0,0.1,0,0.2,0,0.3c0,0.1,0,0.2,0,0.3
				c0,0.1,0,0.2,0,0.4c0,0.1-0.1,0.3-0.1,0.4c-0.1,0.5-0.3,1.1-0.4,1.7c-0.2,0.6-0.3,1.3-0.5,2.1c-0.2,0.7-0.3,1.5-0.5,2.3
				c-0.1,0.4-0.2,0.8-0.3,1.2c-0.1,0.4-0.2,0.8-0.3,1.3c-0.1,0.4-0.2,0.8-0.3,1.3c0,0.2-0.1,0.4-0.1,0.7c0,0.2,0,0.4-0.1,0.7
				c-0.2,0.9-0.4,1.7-0.6,2.6c-0.1,0.4-0.2,0.8-0.3,1.2c-0.1,0.4-0.2,0.8-0.3,1.2c-0.1,0.4-0.1,0.8-0.2,1.2c0,0.4-0.1,0.8-0.2,1.2
				c-0.1,0.4-0.2,0.7-0.3,1.1c-0.1,0.3-0.2,0.7-0.3,1c-0.3,1.3-0.5,2.3-0.6,3.1c0,0.4,0,0.7,0,0.9c0,0.2,0,0.3,0,0.3l-0.2,0
				c0,0,0-0.1,0-0.3c0-0.2,0-0.5,0-0.9c0.1-0.8,0.3-1.9,0.6-3.1c0.1-0.3,0.2-0.7,0.3-1c0.1-0.3,0.2-0.7,0.3-1
				c0.1-0.4,0.2-0.7,0.2-1.1c0.1-0.4,0.1-0.8,0.2-1.2c0.1-0.4,0.2-0.8,0.3-1.2c0.1-0.4,0.2-0.8,0.3-1.3c0.1-0.4,0.2-0.9,0.2-1.3
				c0.1-0.4,0.2-0.9,0.3-1.3c0.1-0.2,0.1-0.4,0.2-0.6c0.1-0.2,0.1-0.4,0.2-0.6c0.1-0.4,0.2-0.9,0.2-1.3c0.1-0.9,0.2-1.7,0.4-2.5
				c0.2-0.8,0.4-1.6,0.5-2.3c0.2-0.7,0.4-1.4,0.5-2.1c0.2-0.6,0.3-1.2,0.5-1.7c0.1-0.5,0.2-1,0.2-1.3c0-0.4,0-0.7-0.1-0.9
				c0-0.2-0.1-0.3-0.1-0.3L-245.1,405.1z"/>
			<path class="st5" d="M-264.5,424.9c0,0,0.1,0,0.4-0.1c0.3-0.1,0.6-0.2,1.1-0.4c0.2-0.1,0.5-0.2,0.8-0.3c0.3-0.1,0.6-0.2,0.9-0.4
				c0.3-0.1,0.7-0.3,1.1-0.4c0.2-0.1,0.4-0.1,0.6-0.1c0.1,0,0.2,0,0.3-0.1c0.1,0,0.2-0.1,0.3-0.1c0.4-0.2,0.8-0.4,1.1-0.7
				c0.4-0.2,0.8-0.5,1.3-0.7c0.5-0.1,1-0.2,1.5-0.3c0.3,0,0.5-0.1,0.8-0.2c0.1,0,0.2-0.1,0.3-0.1l0.1,0l0.1-0.1
				c0.1-0.1,0.1-0.1,0.2-0.1c0.4-0.3,0.9-0.6,1.4-0.8c0.5-0.2,1-0.5,1.5-0.7c0.3-0.1,0.5-0.2,0.8-0.3c0.3-0.1,0.5-0.2,0.8-0.3
				c0.5-0.2,1-0.4,1.6-0.7c0.5-0.2,1-0.5,1.5-0.8c0.1-0.1,0.3-0.1,0.4-0.2c0.1,0,0.3-0.1,0.4-0.1c0.3-0.1,0.6-0.1,0.8-0.2
				c0.1,0,0.3-0.1,0.4-0.1l0.2-0.1c0.1,0,0.1-0.1,0.2-0.1c0.2-0.1,0.5-0.3,0.7-0.4c0.5-0.3,1-0.6,1.5-0.7c0.2-0.1,0.5-0.2,0.7-0.3
				c0.1-0.1,0.2-0.1,0.3-0.2c0.1-0.1,0.2-0.1,0.3-0.2c0.5-0.2,0.9-0.4,1.4-0.6c0.5-0.2,0.9-0.4,1.3-0.6c0.4-0.2,0.8-0.4,1.2-0.6
				c0.1,0,0.2-0.1,0.3-0.1c0.1,0,0.2-0.1,0.3-0.1c0.2-0.1,0.4-0.2,0.5-0.3c0.4-0.2,0.7-0.3,1-0.5c0.6-0.3,1.2-0.5,1.7-0.7
				c0.5-0.2,0.8-0.3,1.1-0.4c0.3-0.1,0.4-0.1,0.4-0.1l0.1,0.2c0,0-0.1,0.1-0.4,0.2c-0.2,0.1-0.6,0.3-1.1,0.4c-0.5,0.2-1,0.4-1.7,0.6
				c-0.3,0.1-0.7,0.2-1,0.4c-0.4,0.1-0.7,0.3-1.1,0.5c-0.4,0.2-0.8,0.4-1.2,0.6c-0.4,0.2-0.8,0.5-1.3,0.7c-0.4,0.2-0.9,0.5-1.4,0.7
				c-0.1,0.1-0.2,0.1-0.4,0.2c-0.1,0-0.3,0.1-0.4,0.1c-0.3,0.1-0.5,0.2-0.8,0.2c-0.5,0.1-1,0.3-1.5,0.6c-0.2,0.1-0.5,0.3-0.7,0.4
				c-0.1,0-0.1,0.1-0.2,0.1l-0.2,0.1c-0.1,0.1-0.3,0.1-0.4,0.1c-0.3,0.1-0.6,0.1-0.8,0.2c-0.1,0-0.3,0.1-0.4,0.1
				c-0.1,0-0.3,0.1-0.4,0.2c-0.5,0.2-1.1,0.4-1.6,0.7c-0.5,0.2-1,0.5-1.6,0.7c-0.3,0.1-0.5,0.2-0.8,0.3c-0.3,0.1-0.5,0.2-0.8,0.3
				c-0.5,0.2-1,0.4-1.5,0.7c-0.5,0.2-1,0.5-1.4,0.8c0,0-0.1,0.1-0.1,0.1l-0.1,0.1c0,0-0.1,0-0.1,0.1c-0.1,0.1-0.3,0.1-0.4,0.2
				c-0.3,0.1-0.5,0.1-0.8,0.2c-0.5,0.1-1,0.2-1.5,0.3c-0.4,0.2-0.8,0.4-1.2,0.7c-0.4,0.3-0.8,0.5-1.2,0.7c-0.1,0-0.2,0.1-0.3,0.1
				c-0.1,0-0.2,0.1-0.3,0.1c-0.2,0-0.4,0-0.6,0.1c-0.4,0.1-0.7,0.2-1,0.4c-0.3,0.1-0.6,0.3-0.9,0.4c-0.3,0.1-0.6,0.2-0.8,0.3
				c-0.5,0.2-0.8,0.3-1.1,0.4c-0.3,0.1-0.4,0.1-0.4,0.1L-264.5,424.9z"/>
		</g>
		<g>
			<path class="st6" d="M-246.6,416.6c0.4-0.8,0.9-1.7,1.1-2.6c0.2-0.9,0.3-1.9,0.4-2.8c0.2-1.6,0.4-3.5,2.4-3.7
				c0.9-0.1,1.5,0.7,2.3,1c0.8,0.3,1.6,0.1,2.4,0.5c0.8,0.3,1.5,0.6,1.6,1.5c0.1,0.9-1,1.1-1.8,1.4c-0.8,0.3-1.7,0.7-2.5,1.3
				c-0.7,0.5-1.2,1.2-1.8,1.8c-0.6,0.6-1.5,0.4-2.2,0.8c-0.5,0.2-1.4,1.5-1.9,1.1L-246.6,416.6z"/>
			<path class="st6" d="M-253.7,413.1c1.1,1,2.3,1.9,3.5,2.8c0.5,0.3,2,1.1,1.4,0c-0.5-0.9-1.1-1.8-1.6-2.7
				c-0.4-0.9-0.2-1.9-0.6-2.7c-0.3-0.5-0.6-0.9-0.8-1.4c-0.2-0.4-0.3-0.8-0.5-1.2c-0.6-1.1-2-0.1-2.9,0.3c-0.5,0.2-1,0.2-1.4,0.6
				c-0.3,0.2-0.5,0.5-0.8,0.7c-0.5,0.2-0.9,0.1-0.4,0.7c0.3,0.4,0.9,0.7,1.4,1C-255.6,411.7-254.6,412.3-253.7,413.1z"/>
			<path class="st6" d="M-261.2,412c-0.2,0.3-0.5,0.7-0.9,0.9c-0.7,0.5-1.4,0.9-1.9,1.7c-0.5,0.8-0.6,1.5-0.7,2.4
				c0,0.8-0.7,1.9,0.5,2.1c0.4,0.1,0.9-0.2,1.2-0.4c0.6-0.3,1.1-0.5,1.7-0.7c1.3-0.4,2.7-0.6,4-0.6c1.2,0,2.2-0.3,3.4-0.3
				c0.6,0,1.3,0.1,2,0.2c0.2,0,1.1,0.3,1.3,0.2c0.6-0.4-1.9-1.3-2.2-1.4c-1-0.4-2-0.9-2.9-1.5c-0.4-0.2-0.8-0.5-1.2-0.7
				c-0.6-0.3-0.8-0.6-1.1-1.1c-0.5-0.6-1.1-1.6-1.8-1.9C-260.6,410.4-260.8,411.4-261.2,412z"/>
			<path class="st6" d="M-249.1,419.1c-1.1,0.7-2.1,1.5-3.2,2.1c-0.9,0.5-1.8,0.7-2.8,0.9c-1,0.3-1.9,0.7-2.9,0.9
				c-0.5,0.1-0.9,0.3-1.4,0.5c-0.4,0.2-0.9,0-1.3,0.3c-0.6,0.5-0.7,1.5-0.1,2c0.8,0.6,1.8,0.3,2.7,0.5c1.1,0.3,1.4,1.8,2.5,0.5
				c0.7-0.8,1-1.7,2.1-2.2c0.8-0.4,1.9-1.1,2.4-1.8c0.3-0.5,0.5-0.9,0.9-1.3c0.4-0.4,1.5-1.6,1.2-2.3L-249.1,419.1z"/>
			<path class="st6" d="M-247.4,421.4c0,0.9,0,1.8-0.2,2.6c-0.2,0.8-0.4,1.7-0.6,2.6c-0.2,0.8-0.7,1.6-0.8,2.5
				c-0.3,2.2,3.5,0.7,4.4,0.5c0.8-0.2,1.6,0.2,2.5,0c0.8-0.2,1.4-1,0.9-1.8c-0.4-0.7-1.1-1.2-1.6-1.8c-0.7-0.9-1.5-2-2-3
				c-0.4-0.7-0.5-1.3-0.8-2c-0.2-0.5-1-2.2-1.6-1.5C-247.5,419.9-247.4,420.9-247.4,421.4z"/>
			<path class="st6" d="M-240.2,415.6c0.5-0.3,1.1-0.7,1.6-0.9c0.4-0.1,0.8-0.2,1.2-0.3c1-0.3,1.9-0.9,2.9-1.2
				c0.8-0.2,2-0.6,2.5,0.2c0.5,0.7,1,1.4,1.5,2.2c0.5,0.7,0.9,1.3,0,1.9c-0.9,0.6-2.1,0.7-3.1,0.8c-1.4,0.1-2.7-0.1-4.1,0
				c-1.2,0.1-2.1,1.1-3.3,1.2c-1,0.1-1.8-0.3-2.7-0.6c-0.7-0.2-1.6,0.1-2.1-0.4c-0.7-0.6,0.3-0.6,0.8-0.7
				C-243.3,417.2-241.7,416.4-240.2,415.6z"/>
			<path class="st6" d="M-242.3,421.7c-0.2-0.2-0.5-0.4-0.8-0.3c0,0-0.1,0.1-0.1,0.1c0,0,0,0,0,0c-0.1,0.1-0.1,0.2-0.1,0.3
				c0.2,0.3,0.6,0.4,0.9,0.2C-242.2,422-242.2,421.8-242.3,421.7z"/>
			<path class="st6" d="M-244.8,420.3C-244.8,420.3-244.8,420.3-244.8,420.3C-244.8,420.3-244.8,420.3-244.8,420.3
				C-244.8,420.3-244.8,420.3-244.8,420.3C-244.8,420.3-244.8,420.3-244.8,420.3c-0.1-0.1-0.1-0.1-0.1-0.1c0,0-0.1,0-0.1,0
				c0-0.1-0.2,0-0.2,0c0,0,0,0,0,0c-0.1,0.1-0.1,0.2,0,0.3c0,0,0.1,0,0.1,0.1C-244.9,420.7-244.7,420.5-244.8,420.3z"/>
			<path class="st6" d="M-250.7,418.4c0-0.2-0.3-0.3-0.4-0.3c-0.1,0-0.2,0-0.3,0.1c-0.2,0-0.4,0.1-0.4,0.3c0,0.2,0.2,0.3,0.4,0.4
				C-251.1,418.9-250.6,418.8-250.7,418.4z"/>
			<path class="st6" d="M-252.7,415.4C-252.7,415.4-252.7,415.4-252.7,415.4C-252.7,415.4-252.7,415.4-252.7,415.4
				C-252.7,415.4-252.7,415.4-252.7,415.4c-0.1-0.1-0.2-0.1-0.2-0.1c0,0-0.1,0-0.1,0c0,0-0.1,0-0.1,0c0,0-0.1-0.1-0.1-0.1
				c-0.1,0-0.2,0-0.2,0.1c0,0.1,0,0.2,0,0.3c0.1,0.1,0.3,0.2,0.5,0.3C-252.7,415.8-252.5,415.5-252.7,415.4z"/>
			<path class="st6" d="M-257.7,420c0-0.2-0.1-0.4-0.3-0.3c-0.2,0-0.3,0.1-0.4,0.1c-0.3,0.1-0.3,0.6,0,0.7c0.3,0.1,0.6,0,0.7-0.2
				C-257.7,420.2-257.7,420.1-257.7,420z"/>
			<path class="st6" d="M-258.4,418.3c0,0-0.1-0.1-0.2,0c-0.2,0-0.2,0.3,0,0.3C-258.4,418.6-258.3,418.5-258.4,418.3z"/>
			<path class="st6" d="M-248.2,410.8c-0.1-0.1-0.2-0.1-0.3-0.1c-0.1,0-0.1,0.1-0.2,0.1c-0.1,0-0.1,0.1-0.1,0.2c0,0.1,0,0.2,0.1,0.3
				c0,0.1,0.1,0.1,0.1,0.1c0.2,0.1,0.3,0.1,0.4,0C-247.9,411.3-248,411-248.2,410.8z"/>
			<path class="st6" d="M-246.4,409.2c0-0.2-0.1-0.3-0.3-0.3c0,0,0,0,0,0c-0.1,0-0.3,0.1-0.3,0.2c-0.1,0.2-0.3,0.5-0.1,0.7
				c0,0,0,0,0,0.1c0.1,0.1,0.2,0.1,0.3,0l0,0c0,0,0.1,0,0.1,0.1c0.2,0.1,0.4-0.2,0.4-0.4C-246.4,409.4-246.4,409.3-246.4,409.2z"/>
			<path class="st6" d="M-247,408.1c0-0.1-0.2-0.2-0.3-0.1l0,0c0,0,0,0,0,0.1c0,0,0,0,0,0c0,0,0,0,0,0c0,0,0,0,0,0
				c-0.1,0.1-0.1,0.1-0.1,0.2c0,0.1,0.1,0.2,0.1,0.2C-247.1,408.6-247,408.2-247,408.1z"/>
			<path class="st6" d="M-248.1,415.7C-248.1,415.7-248.1,415.7-248.1,415.7c0-0.1-0.2-0.2-0.3-0.1c0,0-0.1,0-0.1,0.1
				c-0.1,0.1-0.1,0.2,0,0.3c0,0,0,0,0,0c0.1,0.1,0.2,0.1,0.2,0c0,0,0,0,0,0C-248.1,415.9-248,415.8-248.1,415.7z"/>
			<path class="st6" d="M-246.9,417.1C-246.9,417-246.9,417-246.9,417.1c-0.2,0.1-0.2,0.2-0.3,0.3c0,0.2,0.2,0.3,0.3,0.2
				c0.1-0.1,0.2-0.2,0.2-0.3C-246.5,417.1-246.7,416.9-246.9,417.1z"/>
			<path class="st6" d="M-247.6,417.2C-247.7,417.1-247.7,417.1-247.6,417.2c-0.1-0.2-0.2-0.2-0.3-0.3c-0.1-0.1-0.3,0.1-0.3,0.2
				c0,0.1,0.1,0.2,0.2,0.3C-247.8,417.6-247.5,417.4-247.6,417.2z"/>
			<path class="st6" d="M-243.7,415.5c-0.3,0-0.7,0.2-0.9,0.4c0,0,0,0,0,0c-0.1,0.1-0.2,0.3,0,0.4c0.2,0.1,0.5,0,0.7-0.1
				c0.2-0.1,0.5-0.3,0.5-0.6C-243.4,415.6-243.5,415.6-243.7,415.5z"/>
			<path class="st6" d="M-241.2,414.3c0,0-0.1,0.1-0.1,0.1c-0.1,0.1-0.2,0.2-0.1,0.3c0.1,0.1,0.2,0.1,0.3,0c0.1-0.1,0.2-0.2,0.2-0.3
				C-240.8,414.3-241,414.2-241.2,414.3z"/>
			<path class="st6" d="M-237.1,411.8c-0.2-0.2-0.5-0.2-0.7,0c-0.1,0.1-0.2,0.2-0.3,0.3c0,0.1-0.1,0.2-0.1,0.2c0,0,0,0,0,0
				c0,0.1,0.1,0.3,0.2,0.3c0.2,0,0.4-0.1,0.6-0.2C-237.1,412.3-236.9,412.1-237.1,411.8z"/>
			<path class="st6" d="M-238.5,421.8c-0.1,0-0.2,0.2-0.2,0.3c0,0.2,0.2,0.4,0.5,0.5c0.2,0,0.5-0.1,0.5-0.3
				C-237.6,422-238.2,421.6-238.5,421.8z"/>
			<path class="st6" d="M-240.1,423.8c0,0,0-0.1,0-0.1c0,0,0-0.1-0.1-0.1c-0.1-0.1-0.2-0.1-0.3,0c-0.1,0.1-0.1,0.2,0,0.3
				c0,0,0.1,0.1,0.1,0.1c0,0,0.1,0.1,0.1,0.1C-240.2,424.2-240.1,424-240.1,423.8z"/>
			<path class="st6" d="M-251.3,425.5c-0.2-0.2-0.4-0.2-0.6-0.1c0,0-0.1,0-0.1,0.1c-0.1,0.1-0.2,0.2-0.3,0.4
				c-0.1,0.2-0.1,0.4-0.1,0.5c0,0,0,0.1,0.1,0.1c0,0,0.1,0.1,0.1,0.1c0.1,0.1,0.1,0.1,0.3,0.2c0.3,0,0.5-0.2,0.6-0.5
				C-251.2,426.1-251.1,425.7-251.3,425.5z"/>
			<path class="st6" d="M-248.2,418.8c-0.1,0-0.2,0.1-0.3,0.2c-0.1,0.1-0.1,0.2,0,0.3c0.1,0.1,0.3,0.1,0.4,0
				c0.1-0.1,0.2-0.2,0.2-0.3C-248,418.9-248.1,418.8-248.2,418.8z"/>
			<path class="st6" d="M-259.8,422.1C-259.8,422.1-259.8,422.1-259.8,422.1c-0.2,0-0.3,0-0.4,0.1c0,0,0,0-0.1,0
				c-0.3,0.1-0.6,0.1-0.7,0.5c-0.1,0.5,0.5,0.6,0.8,0.5c0.2,0,0.5-0.2,0.6-0.5c0.1-0.1,0.1-0.1,0.2-0.2
				C-259.3,422.3-259.6,422.1-259.8,422.1z"/>
			<path class="st6" d="M-254.1,420.5c-0.1-0.1-0.2-0.2-0.4-0.1c0,0-0.1,0-0.1,0.1c-0.1,0-0.3,0.1-0.3,0.2c0,0.1,0,0.2,0.2,0.3
				c0.1,0.1,0.3,0.1,0.4,0C-254.1,420.9-254,420.7-254.1,420.5z"/>
			<path class="st6" d="M-259.4,410.3c-0.1-0.2-0.3-0.3-0.5-0.2c-0.1,0-0.2,0.2-0.1,0.3c0,0.1,0,0.2,0.1,0.2c0.2,0.1,0.3,0.1,0.5,0
				C-259.3,410.6-259.3,410.4-259.4,410.3z"/>
		</g>
		<g>
			<path class="st7" d="M-226.8,416.8c-0.2-0.4-0.5-0.7-0.7-1.1c-0.3-0.5-0.4-1-0.7-1.5c-0.4-0.8-1.3-1.2-1.8-1.9
				c-0.4-0.5-0.7-1.1-1.2-1.5c0,0,0,0,0-0.1c-0.4-0.9-1.6-1-2.4-1.3c-1-0.4-1.7-1.7-2.8-1.7c-0.1,0-0.2,0.2-0.1,0.3
				c0.5,0.6,1.3,1.3,2,1.7c0.9,0.6,2,0.8,2.9,1.4c0,0,0,0,0,0c0.3,0.5,0.6,1.1,1,1.6c0.4,0.6,1,1,1.5,1.5c0.6,0.6,0.8,1.7,1.3,2.4
				c0.5,0.7,0.6,1.6,1.1,2.2c0.1,0.1,0.3,0.1,0.4-0.1C-226.1,418.1-226.5,417.4-226.8,416.8z"/>
			<path class="st7" d="M-226.2,420.2c-0.2-0.7-0.2-1.4-0.4-2.1c0-0.1-0.2-0.1-0.2,0c-0.2,0.6-0.4,1.2-0.3,1.9
				c0.1,0.4,0.2,0.9,0.4,1.3c-0.6,0.7-0.9,1.6-1.5,2.3c-0.6,0.6-1.3,1.1-1.9,1.7c-0.5,0.5-0.9,1.2-1.4,1.7c0,0-0.1,0-0.1,0.1
				c-1.3,0.9-2.8,1.3-4.2,1.8c-1.6,0.5-3.1,1.2-4.6,1.8c-0.7,0.3-1.5,0.1-2.2,0.2c-0.8,0.1-1.7,0.4-2.5,0.5
				c-0.8,0.1-1.6-0.1-2.4-0.1c-0.8,0-1.8,0.2-2.6,0.1c-0.3,0-0.4,0.3-0.2,0.4c0.6,0.3,1.1,0.2,1.7,0.2c0.9,0,1.8,0.1,2.8,0.1
				c1,0.1,1.9-0.2,2.9-0.4c0.8-0.1,1.6,0,2.4-0.2c0.8-0.1,1.5-0.6,2.3-0.9c0.9-0.4,1.8-0.6,2.7-1c0.9-0.3,1.8-0.6,2.6-1
				c0.6-0.2,1.2-0.5,1.7-1c0.7-0.4,1.3-1.5,1.8-2c1.2-1.2,3.1-2.3,3.3-4.1c0.1,0.1,0.3,0,0.3-0.1
				C-225.7,421.1-226,420.7-226.2,420.2z"/>
			<path class="st7" d="M-250.2,431.7c-0.5-0.8-1.7-0.8-2.5-1c-0.7-0.2-1.4-0.3-2.1-0.5c-0.8-0.1-1.5-0.2-2.2-0.4
				c-0.3-0.6-1-1.1-1.4-1.5c-0.7-0.6-1.5-0.7-2.3-0.9c-0.4-0.6-1-1.2-1.4-1.6c-0.5-0.6-1.3-1.3-2.1-1.6c-1-0.7-1-1.7-1.2-2.8
				c-0.1-0.8-1.1-1.5-1.7-1.8c-0.1-0.1-0.3,0-0.3,0.2c0.1,0.5,0.3,0.7,0.6,1.1c0.6,0.7,0.5,1.3,0.7,2.2c0.2,0.8,0.7,2,1.7,1.9
				c0,0,0.1,0,0.1,0c0.1,0.1,0.2,0.1,0.3,0.2c0.5,0.4,0.9,0.8,1.3,1.3c0.6,0.7,1.1,1.8,2,2.2c0.2,0.1,0.4-0.1,0.4-0.3c0,0,0,0,0,0
				c0.4,0.1,0.8,0.2,1.1,0.5c0.5,0.3,0.8,0.8,1.2,1.2c0.3,0.3,0.4,0.7,0.8,0.8c0.2,0.1,0.4-0.1,0.4-0.3c0-0.1,0-0.1,0-0.2
				c0.8,0.5,1.9,0.6,2.9,0.9c0.7,0.2,1.4,0.3,2,0.5c0.5,0.1,0.9,0.4,1.4,0.4C-250.2,432.1-250.1,431.8-250.2,431.7z"/>
			<path class="st7" d="M-254.5,405.2c-1.1,0.1-2,0.5-2.9,1.3c-0.8,0.7-1.4,1.6-2.3,2c0.1-0.2,0.2-0.5,0.2-0.7
				c0.1-0.3-0.2-0.5-0.5-0.3c-0.4,0.2-0.6,0.5-0.8,0.9c-0.3,0.5-0.7,0.9-1.1,1.3c-0.9,0.9-1.8,1.4-2.8,2.1c-0.2,0.1-0.1,0.4,0.1,0.4
				c0.9,0.2,2-0.7,2.7-1.3c0.5-0.4,1.1-0.9,1.5-1.5c0.7,0.3,1.8-0.5,2.3-1c0.6-0.5,1.1-1.2,1.7-1.7c0.6-0.5,1.6-0.5,2.1-1.2
				C-254.2,405.5-254.3,405.2-254.5,405.2z"/>
			<path class="st7" d="M-240.2,406c-1.8-1.1-3.8,0.1-5.7-0.3c-0.9-0.2-1.6-0.6-2.5-0.7c-0.9-0.1-1.7-0.1-2.6,0.2
				c-0.1,0.1-0.1,0.2,0,0.3c0.8,0.3,1.7,0.2,2.5,0.4c0.9,0.1,1.8,0.6,2.7,0.8c0.9,0.2,1.8-0.1,2.7-0.2c0.9-0.1,1.9,0.2,2.8,0
				C-240,406.4-240.1,406.1-240.2,406z"/>
			<path class="st7" d="M-263.8,411.2c-1.4,0.7-2.2,2.8-2.6,4.3c-0.2,1-0.3,2.1-0.4,3.1c-0.1,0.8-0.1,1.6,0.2,2.2
				c0.1,0.2,0.4,0.1,0.4-0.1c0.1-0.8,0-1.6,0.1-2.3c0.1-0.8,0.2-1.6,0.3-2.4c0.1-0.9,0.4-1.8,0.9-2.6c0.4-0.7,1-1.3,1.3-2
				C-263.5,411.2-263.7,411.1-263.8,411.2z"/>
			<path class="st7" d="M-234.6,408.5c-1-1-2.6-1.2-3.9-1.5c-1.5-0.4-3-1.2-4.6-1c-0.2,0-0.3,0.3-0.2,0.4c0.3,0.3,0.6,0.3,1.1,0.4
				c0.8,0.1,1.7,0.5,2.4,0.8c0.8,0.3,1.6,0.5,2.5,0.7c0.8,0.2,1.5,0.6,2.2,0.9C-234.6,409.3-234.2,408.8-234.6,408.5z"/>
			<path class="st7" d="M-239.8,430.7c-0.6-0.1-1.3,0-1.9,0c-0.7,0-1.5,0.1-2.2,0.2c-1.6,0.2-3.2,0.5-4.8,0.4
				c-3.2-0.3-6.2-1.5-9.4-1.9c-0.3,0-0.4,0.3-0.2,0.4c1.4,0.7,2.8,1,4.4,1.3c1.7,0.4,3.2,0.8,4.9,1c1.5,0.1,3,0.1,4.6-0.2
				c0.9-0.2,1.9-0.3,2.8-0.3c0.7,0,1.4,0,2-0.3C-239.4,431.1-239.5,430.7-239.8,430.7z"/>
			<path class="st7" d="M-245.7,405.6c-2.5-0.7-5.4-0.7-8,0c-1.3,0.3-2.6,0.8-3.8,1.5c-1.2,0.7-2.3,1.6-3.5,2.2
				c-0.2,0.1-0.1,0.5,0.1,0.5c0.9,0.1,1.7-0.5,2.4-1c1.3-0.9,2.6-1.5,4-2c1.4-0.5,2.8-0.7,4.3-0.7c1.5,0,2.9,0.3,4.3,0.4
				C-245.3,406.4-245.3,405.7-245.7,405.6z"/>
			<path class="st7" d="M-227.3,415.6c-1.3-2.4-3.4-5.2-6-6.4c-0.2-0.1-0.3,0.1-0.2,0.3c1.7,1.9,3.5,3.5,4.9,5.6
				c0.7,1.1,1.3,2.4,1.6,3.7c0.4,1.5-0.2,2.7-0.6,4.1c-0.1,0.5,0.5,0.6,0.8,0.3C-225.2,420.8-226,418-227.3,415.6z"/>
		</g>
	</g>
	<g>
		<path class="st8" d="M-242.1,413.8c0-0.1,0-0.1,0-0.2c-0.1-0.2-0.2-0.3-0.4-0.2c-0.2,0.1-0.3,0.2-0.3,0.4c0,0,0,0,0,0.1
			c0,0,0,0.1,0,0.1c0,0.1,0.1,0.1,0.2,0.2c0,0,0,0,0,0c0.2,0.1,0.4,0,0.5-0.2C-242.1,414-242.1,413.9-242.1,413.8z"/>
		<path class="st8" d="M-246.1,407.2C-246.1,407.2-246.1,407.2-246.1,407.2c-0.1-0.1-0.3-0.1-0.4,0c-0.1,0.1-0.2,0.3-0.1,0.4
			c0.1,0.1,0.2,0.2,0.3,0.3c0.2,0.1,0.7,0.1,0.7-0.3C-245.7,407.4-245.9,407.2-246.1,407.2z"/>
		<path class="st8" d="M-250.1,412.5C-250.1,412.5-250.1,412.5-250.1,412.5c-0.1-0.1-0.4,0-0.4,0.2c0,0,0,0,0,0
			c0,0.1,0.1,0.3,0.2,0.3c0.1,0,0.2-0.1,0.3-0.1C-249.9,412.8-250,412.6-250.1,412.5z"/>
		<path class="st8" d="M-254.6,408.5c0-0.1,0-0.1-0.1-0.2c-0.2-0.2-0.5-0.2-0.8-0.2c-0.1,0-0.2,0.1-0.2,0.2c-0.1,0.6,0.6,0.6,1,0.5
			C-254.4,408.9-254.4,408.6-254.6,408.5z"/>
		<path class="st8" d="M-254.1,412.6c-0.1,0-0.3,0.1-0.2,0.2c0,0.2,0.3,0.2,0.3,0c0,0,0,0,0,0C-253.9,412.8-253.9,412.6-254.1,412.6
			z"/>
		<g>
			<path class="st8" d="M-237.6,415C-237.6,415-237.6,415-237.6,415C-237.7,415-237.7,415-237.6,415c-0.1,0-0.1,0-0.1,0
				c-0.1,0-0.1,0-0.2,0.1c-0.1,0-0.1,0.1-0.1,0.2c-0.2,0.1-0.1,0.3,0.1,0.4c0.1,0,0.1,0.1,0.2,0c0.2-0.1,0.4-0.2,0.4-0.4
				C-237.4,415.1-237.5,415-237.6,415z"/>
			<path class="st8" d="M-237.7,415C-237.7,415-237.7,415-237.7,415C-237.7,415-237.7,415-237.7,415z"/>
		</g>
		<path class="st9" d="M-229.8,414.8c0-0.1,0-0.1-0.1-0.2c0-0.1-0.1-0.2-0.2-0.3c-0.1-0.1-0.2-0.2-0.3-0.2c-0.1,0-0.3,0-0.3,0.2
			c-0.1,0.4,0.2,0.7,0.5,0.8c0.1,0,0.2,0,0.3-0.2C-229.8,415-229.8,414.9-229.8,414.8z"/>
		<path class="st8" d="M-235.5,420.6c-0.1-0.2-0.4-0.2-0.6-0.1c-0.1,0-0.3,0.1-0.4,0.2c-0.1,0.1-0.1,0.3-0.1,0.5c0,0,0,0.1,0,0.1
			c0,0,0,0,0,0c0,0.1,0.1,0.2,0.2,0.2c0.2,0.1,0.5-0.1,0.6-0.3c0.1-0.1,0.1-0.2,0.1-0.2C-235.5,420.8-235.4,420.7-235.5,420.6z"/>
		<path class="st9" d="M-231.3,423.8c-0.1,0-0.2,0.1-0.3,0.2c-0.3,0.1-0.5,0.3-0.4,0.6c0.1,0.2,0.3,0.3,0.5,0.2
			c0.2,0,0.3-0.2,0.4-0.3c0.1-0.1,0.2-0.3,0.2-0.5C-230.8,423.9-231,423.8-231.3,423.8z"/>
		<path class="st8" d="M-233.3,421c-0.1-0.2-0.2-0.2-0.3-0.2c-0.2,0-0.1,0.2,0,0.3c0,0,0,0,0,0c0,0,0.1,0,0.1,0.1
			C-233.3,421.3-233.2,421.1-233.3,421z"/>
		<path class="st8" d="M-243.9,418.2c-0.2-0.1-0.4-0.1-0.5-0.1c-0.2,0-0.3,0.2-0.2,0.3c-0.1,0.4,0.6,0.4,0.8,0.2
			C-243.8,418.5-243.8,418.3-243.9,418.2z"/>
		<path class="st8" d="M-249.4,417.7c-0.1-0.1-0.2-0.2-0.3-0.3c-0.1-0.1-0.2-0.1-0.4-0.1c-0.1,0-0.3,0.2-0.2,0.3
			c0.1,0.3,0.5,0.5,0.8,0.3C-249.4,417.9-249.4,417.8-249.4,417.7z"/>
		<path class="st8" d="M-242.9,424.6c-0.1-0.2-0.4-0.3-0.6-0.2c0,0,0,0-0.1,0c-0.1,0-0.2,0.1-0.2,0.2c0,0.1,0,0.2,0.1,0.3
			c0.2,0.1,0.5,0.2,0.7,0C-242.9,424.8-242.8,424.7-242.9,424.6z"/>
		<path class="st8" d="M-242.4,424c-0.1,0-0.1,0-0.2,0.1c0,0.1,0,0.1,0,0.2l0,0c0,0,0,0,0,0c0,0,0,0,0,0c0,0.1,0.1,0.1,0.2,0.1
			c0.1,0,0.3-0.1,0.3-0.2C-242.1,424-242.3,424-242.4,424z"/>
		<path class="st9" d="M-243.7,429.8c0-0.1,0-0.1-0.1-0.2c-0.1-0.1-0.3-0.2-0.5-0.2c-0.2,0-0.4,0.1-0.4,0.3c-0.1,0.2,0,0.4,0.2,0.4
			c0,0,0,0,0.1,0c0.2,0.1,0.5,0.1,0.6,0c0,0,0,0,0,0c0,0,0.1,0,0.1-0.1C-243.7,430-243.7,429.9-243.7,429.8z"/>
		<path class="st9" d="M-239.5,428.9c-0.1,0-0.2,0-0.3,0c-0.1,0-0.2,0.1-0.2,0.1c-0.1,0.1,0,0.3,0.1,0.3c0.1,0,0.2,0,0.3,0.1
			c0.1,0,0.3-0.1,0.3-0.2C-239.3,429-239.4,428.9-239.5,428.9z"/>
		<path class="st9" d="M-262.5,422.3c-0.1,0-0.3,0-0.5,0c-0.1,0-0.3,0-0.4,0.1c-0.1,0.1-0.2,0.3,0,0.4c0,0,0.1,0.1,0.1,0.1
			c0.1,0.1,0.2,0.1,0.3,0.2c0.1,0,0.1,0,0.2,0c0,0,0.1,0,0.1,0c0.2,0,0.4-0.1,0.5-0.3C-262,422.6-262.2,422.4-262.5,422.3z"/>
		<path class="st8" d="M-260.6,415.7c0,0-0.1-0.1-0.1-0.1c-0.1,0-0.2,0-0.2,0c-0.2,0-0.3,0.3-0.1,0.4c0.1,0.2,0.3,0.2,0.4,0.1
			C-260.5,416.1-260.5,415.9-260.6,415.7z"/>
		<path class="st8" d="M-256.2,420.8c-0.1-0.1-0.2-0.2-0.3-0.2c0,0,0,0,0,0c0,0,0,0,0,0c0,0,0,0-0.1,0c-0.1,0-0.1,0-0.2,0
			c-0.1,0-0.3,0-0.4,0.1c-0.1,0-0.1,0.1-0.1,0.1c0,0,0,0,0,0c-0.1,0.6,0.8,0.8,1.1,0.4C-256.2,421.1-256.2,420.9-256.2,420.8z"/>
		<path class="st8" d="M-253.5,423.3C-253.5,423.3-253.5,423.3-253.5,423.3C-253.6,423.2-253.6,423.2-253.5,423.3
			c-0.1-0.1-0.1-0.2-0.1-0.2c-0.1-0.1-0.2-0.1-0.3,0c-0.1,0.1-0.2,0.2-0.1,0.3c0.1,0.1,0.1,0.2,0.2,0.2
			C-253.6,423.6-253.4,423.5-253.5,423.3z"/>
		<path class="st8" d="M-260.5,425c-0.2-0.3-0.6-0.5-0.9-0.3c-0.2,0.1-0.3,0.3-0.1,0.4c0,0,0,0,0,0c0,0.1,0.1,0.2,0.3,0.3
			c0.1,0,0.3,0,0.4,0c0.1,0,0.1-0.1,0.2-0.1C-260.4,425.2-260.4,425.1-260.5,425z"/>
		<path class="st8" d="M-259.9,411.3c0-0.2-0.1-0.3-0.2-0.3c-0.1-0.1-0.3-0.1-0.3,0c-0.1,0.1-0.2,0.3-0.1,0.5c0,0.1,0.1,0.1,0.2,0.1
			c0.1,0,0.1,0,0.1-0.1C-260,411.5-259.9,411.4-259.9,411.3z"/>
		<path class="st8" d="M-246.5,419.3c0-0.1-0.1-0.2-0.3-0.2c0,0,0,0,0,0c0,0-0.1,0-0.1,0c0,0-0.1,0-0.1,0c0,0,0,0,0,0
			c-0.2,0-0.2,0.2-0.2,0.3c0,0.1,0,0.1,0.1,0.2c0,0,0.1,0.1,0.2,0.1c0,0,0,0,0,0c0,0,0,0,0,0c0.2,0.1,0.3,0,0.3-0.2
			C-246.5,419.4-246.5,419.4-246.5,419.3C-246.5,419.3-246.5,419.3-246.5,419.3z"/>
		<path class="st8" d="M-256.8,415.6c0-0.2-0.2-0.4-0.3-0.5c-0.1,0-0.1,0-0.2,0c0,0-0.1,0-0.1,0c-0.1,0-0.3,0.2-0.2,0.3
			c0.1,0.1,0.1,0.2,0.2,0.3c0,0.1,0.1,0.1,0.2,0.2c0.1,0.1,0.3,0,0.3-0.1C-256.8,415.8-256.8,415.7-256.8,415.6z"/>
	</g>
	<g>
		<path class="st3" d="M-231.2,419.1c-0.6-0.1-1.2,0.1-1.7,0.1c-0.4,0-0.9-0.1-1.3-0.2c-0.5-0.1-0.9-0.3-1.3-0.6
			c-0.4-0.3-0.5-0.7-0.7-1.1c0,0-0.1,0-0.1,0c-0.2,1,0.8,1.6,1.6,1.9c0.5,0.2,1,0.3,1.5,0.3c0.6,0.1,1.4,0.1,2-0.2
			C-231.1,419.3-231.1,419.1-231.2,419.1z"/>
		<path class="st3" d="M-238.5,418.8c-0.2,0.5-0.5,0.7-1,0.8c-0.5,0.1-1.1,0.1-1.6,0c-0.7-0.1-1.7-0.6-1.9-1.3c0-0.1-0.1-0.1-0.1,0
			c-0.1,0.9,1.2,1.4,1.9,1.6c1,0.2,2.6,0.2,2.9-1C-238.2,418.8-238.4,418.7-238.5,418.8z"/>
		<path class="st3" d="M-236.6,418.5c-0.2,0.7-0.5,1.3-1.1,1.8c-0.3,0.3-2.4,1.6-2.5,0.5c0,0-0.1-0.1-0.1,0c-0.2,0.3,0,0.5,0.2,0.7
			c0.4,0.2,1,0,1.4-0.2c1.1-0.5,2.1-1.5,2.3-2.7C-236.4,418.4-236.6,418.4-236.6,418.5z"/>
		<path class="st3" d="M-237,426.3c-0.4,0-0.7,0-1-0.1c-0.3-0.1-0.5-0.4-0.7-0.6c-0.4-0.6-0.2-1.3,0.2-1.9c0,0,0-0.1-0.1-0.1
			c-0.7,0.2-0.8,1.3-0.6,1.8c0.3,0.8,1.3,1.5,2.1,1.1C-236.9,426.5-236.9,426.4-237,426.3z"/>
		<path class="st3" d="M-237.2,428.3c-0.7-0.6-1.8-1.3-2.8-1c-0.6,0.1-1,0.4-1.4,0.8c-0.3,0.3-0.7,0.6-0.8,1.1c0,0,0.1,0.1,0.1,0
			c0.6-0.7,1.2-1.4,2-1.6c1-0.3,1.9,0.4,2.6,1C-237.2,428.7-237,428.5-237.2,428.3z"/>
		<path class="st3" d="M-240.7,424.7c-0.2,0.3-0.3,0.5-0.5,0.8c-0.2,0.2-0.4,0.4-0.5,0.7c0,0.1,0,0.2,0.1,0.1
			c0.6-0.3,0.9-0.9,1.2-1.4C-240.4,424.7-240.7,424.6-240.7,424.7z"/>
		<path class="st3" d="M-241.1,422.4c-0.5,0.4-1.1,0.7-1.8,1c-0.4,0.1-0.8,0.2-1.2,0.2c-0.4,0-0.9,0.1-1.3,0.1c-0.1,0-0.2,0.2,0,0.2
			c0.4,0.1,0.9,0,1.3,0c0.4,0,0.9-0.1,1.3-0.2c0.6-0.2,1.5-0.5,1.8-1.1C-240.9,422.4-241,422.3-241.1,422.4z"/>
		<path class="st3" d="M-244,426c-0.1,0-0.1,0-0.1,0.1c0.1,0.2,0.2,0.5,0.3,0.7c0.2,0.4,0,0.9-0.3,1.2c-0.3,0.5-0.9,0.8-1.5,1
			c-0.5,0.2-1.1,0.3-1.7,0.3c-0.8,0-1.6-0.1-2.4-0.1c-0.1,0-0.1,0.1,0,0.2c0.8,0.3,1.9,0.3,2.8,0.2c0.7,0,1.3-0.2,1.9-0.5
			C-243.8,428.5-242.8,427-244,426z"/>
		<path class="st3" d="M-238.4,418.5c-0.4,1.2-1.3,1.3-2.4,1.2c-0.9-0.1-1.8-0.4-1.9-1.5c0-0.3-0.4-0.2-0.4,0c0.1,1.1,1,1.7,2.1,1.8
			c1.4,0.1,2.6,0,3.1-1.5C-237.9,418.4-238.3,418.3-238.4,418.5z"/>
		<path class="st3" d="M-232.2,419.1c-0.7,0.1-1.5,0.1-2.2-0.1c-0.8-0.1-1.2-0.7-1.6-1.4c-0.1-0.2-0.5,0-0.3,0.2
			c0.3,0.6,0.7,1.3,1.4,1.5c0.9,0.2,1.8,0.3,2.7,0.2C-231.9,419.5-231.9,419.1-232.2,419.1z"/>
		<path class="st3" d="M-232,413.3c-0.8,1.2-3.1,1-4.1,0.2c-0.2-0.2-0.5,0.1-0.3,0.3c1.2,1,3.7,1.2,4.7-0.3
			C-231.5,413.3-231.8,413.1-232,413.3z"/>
		<path class="st3" d="M-238.8,408.4c-0.1-0.2-0.5,0-0.3,0.2c0.5,0.9,0.7,2-0.5,2.5c-0.5,0.2-1.1,0.2-1.6,0.1
			c-1.2-0.2-1.8-1.1-2.1-2.2c-0.1-0.3-0.4-0.1-0.4,0.1c0.3,1.7,1.5,2.5,3.2,2.5c0.7,0,1.6-0.2,2-0.8
			C-238.1,410-238.4,409.1-238.8,408.4z"/>
		<path class="st3" d="M-233.5,410.7c-0.7-0.4-1.3-0.6-2.1-0.7c-0.9-0.1-1.7,0.3-2.5,0.7c-0.2,0.1-0.1,0.5,0.1,0.4
			c0.7-0.3,1.3-0.6,2.1-0.7c0.8,0,1.5,0.3,2.2,0.6C-233.4,411.2-233.2,410.8-233.5,410.7z"/>
		<path class="st3" d="M-247.8,407c0-0.3-0.4-0.2-0.4,0c0.2,1.4,0,2.6-1.5,3.1c-0.6,0.2-1.3,0.1-2,0c-1-0.2-1.4-0.9-1.3-1.8
			c0-0.3-0.4-0.2-0.4,0c-0.1,0.8,0,1.3,0.7,1.8c0.7,0.5,1.7,0.6,2.5,0.5C-248.1,410.4-247.5,408.9-247.8,407z"/>
		<path class="st3" d="M-249.1,411.4c-1.3-0.8-3.2-0.4-3.9,1c-0.1,0.2,0.2,0.4,0.4,0.2c0.6-1.2,2.2-1.5,3.3-0.8
			C-249.1,411.9-248.9,411.5-249.1,411.4z"/>
		<path class="st3" d="M-246.4,410.8c-0.4,0-0.8-0.1-1.1-0.2c-0.1,0-0.4-0.2-0.5-0.1c0,0,0,0.1,0,0.1c0.1,0.1,0.4,0.2,0.6,0.3
			c0.3,0.2,0.7,0.3,1.1,0.3C-246.2,411.2-246.2,410.8-246.4,410.8z"/>
		<path class="st3" d="M-243.7,410.4c-0.3-0.1-0.7,0-0.9,0.1c-0.4,0.1-0.7,0.3-1.1,0.4c-0.1,0-0.1,0.1,0,0.2c0.2,0.2,0.7,0,0.9-0.1
			c0.2-0.1,0.5-0.2,0.7-0.2c0.2-0.1,0.4-0.1,0.5-0.2C-243.7,410.5-243.7,410.4-243.7,410.4z"/>
		<path class="st3" d="M-256.2,412.8c-0.8,0.5-1.6,0.8-2.5,0.6c-0.7-0.1-1-0.8-1-1.5c0.1-0.5,0.5-0.9,0.8-1.3c0.1-0.1,0-0.2-0.1-0.2
			c-1.2,0.6-1.3,2.1-0.5,3c1,1,2.6,0.3,3.5-0.4C-255.8,412.9-256,412.6-256.2,412.8z"/>
		<path class="st3" d="M-255,411.5c0-0.4-0.5-1.2-1-1.1c0,0-0.1,0.1-0.1,0.1c0,0.1,0.1,0.2,0.2,0.3c0.2,0.1,0.3,0.4,0.4,0.6
			c0.1,0.3,0,0.7-0.1,1c0,0.1,0,0.2,0.1,0.2C-255,412.5-255,411.8-255,411.5z"/>
		<path class="st3" d="M-259.5,419.8c-0.5,0.6-0.9,1.1-1.6,1.4c-0.6,0.2-1.4,0.1-2-0.2c-0.9-0.4-1-1.3-0.6-2.1
			c0.4-0.9,1.3-1.2,2.2-1.5c0.1,0,0.1-0.1,0-0.1c-1.8-0.5-3.9,2.2-2.5,3.7c1.5,1.5,4.1,0.9,4.7-1.1
			C-259.2,419.7-259.4,419.7-259.5,419.8z"/>
		<path class="st3" d="M-253.5,417.1c-0.1-0.1-0.2,0-0.2,0.1c0.2,0.5,0.6,1.1,0.1,1.6c-0.3,0.5-1.1,0.6-1.6,0.7
			c-0.6,0.1-1.3-0.1-1.8-0.5c-0.8-0.6-0.7-1.2-0.4-2c0-0.1,0-0.1-0.1-0.1c-0.8,0.3-0.8,1-0.5,1.6c0.3,0.8,1.3,1.4,2.2,1.5
			C-254.2,420.2-251.7,418.8-253.5,417.1z"/>
		<path class="st3" d="M-255.2,423.8c-0.1-0.1-0.3,0-0.3,0.2c0.3,0.9,0.9,1.6,0.4,2.6c-0.3,0.6-1.1,0.8-1.7,0.8
			c-0.6,0-1.3-0.2-1.8-0.6c-1.1-0.9-0.9-2-0.4-3.2c0-0.1-0.1-0.2-0.2-0.1c-1.7,1.8-0.1,4.3,2.2,4.4
			C-254.6,428-253.7,425.6-255.2,423.8z"/>
		<path class="st3" d="M-250,423.4c-0.8-0.2-2,0.4-2.6,0.9c-0.7,0.6-0.9,1.4-0.9,2.2c-0.1,0-0.2,0-0.4,0c-0.1,0-0.1,0.2,0,0.2
			c0.2,0.2,0.4,0.3,0.6,0.3c0.2,0,0.3-0.1,0.3-0.3c0-0.9,0.1-1.7,0.9-2.3c0.6-0.5,1.4-0.6,2.1-1C-249.9,423.6-249.9,423.5-250,423.4
			z"/>
		<path class="st3" d="M-252.7,429c-1.1-1.5-3.3-1.4-4.6-0.3c-0.1,0.1-0.1,0.2,0.1,0.2c0.7-0.1,1.4-0.4,2.1-0.6
			c1-0.2,1.5,0.4,2.2,0.8C-252.8,429.2-252.6,429.1-252.7,429z"/>
		<path class="st3" d="M-244,426.6c-0.1-0.2-0.3,0-0.3,0.1c0.2,0.7,0.5,1.3-0.4,1.9c-0.5,0.3-1.3,0.4-1.9,0.5c-1,0.1-2-0.1-3,0
			c-0.1,0-0.2,0.1-0.1,0.2c1,0.9,3.2,0.3,4.3,0C-243.9,429-243.2,427.9-244,426.6z"/>
		<path class="st3" d="M-245.7,420.9c-0.1-0.1-0.2,0-0.2,0.1c-0.1,0.3,0,0.6-0.1,0.9c-0.1,0.3-0.4,0.5-0.6,0.6
			c-0.3,0.2-0.6,0.2-0.9,0.3c-0.2,0-0.5-0.1-0.7,0c-0.1,0-0.2,0.2-0.1,0.3c0.4,0.6,1.6,0.2,2.1-0.1
			C-245.6,422.5-245,421.5-245.7,420.9z"/>
		<path class="st3" d="M-245.7,416.7c-0.1-0.2-0.4-0.2-0.5-0.3c-0.2-0.1-0.4-0.1-0.6-0.1c-0.1,0-0.1,0.2,0,0.3
			c0.2,0.1,0.3,0.2,0.5,0.3c0.2,0.1,0.3,0.2,0.5,0.2C-245.6,417.1-245.5,416.9-245.7,416.7z"/>
		<path class="st3" d="M-238.3,413.5c-0.8,0-1.7,0-2.4-0.3c-0.8-0.3-1.1-1-1.7-1.5c-0.1-0.1-0.2,0-0.1,0.1c0.5,1.8,2.6,2.3,4.3,2.1
			C-238,413.9-238.1,413.4-238.3,413.5z"/>
		<path class="st3" d="M-244.3,412.7c-0.1,0-0.1,0-0.1,0.1c0,0.3,0.1,0.5,0.2,0.8c0,0.4-0.2,0.8-0.5,1.1c-0.5,0.4-1.1,0.6-1.7,0.5
			c-0.1,0-0.2,0.1-0.1,0.2c0.5,0.7,1.7,0,2.2-0.4C-243.8,414.6-243.4,413.2-244.3,412.7z"/>
		<path class="st3" d="M-247.3,415c-0.4-0.2-0.6-0.3-0.9-0.7c-0.3-0.5-0.4-1-0.3-1.5c0,0,0-0.1-0.1,0c-0.5,0.5-0.3,1.2-0.1,1.7
			c0.2,0.4,0.7,1.2,1.3,1C-247.2,415.3-247.1,415.1-247.3,415z"/>
		<path class="st3" d="M-251.6,415.9c-0.2,0.3-0.5,0.8-0.4,1.2c0,0,0,0-0.1,0c-0.2,0-0.3,0.2-0.1,0.3c0.1,0.1,0.3,0.1,0.4,0
			c0.1,0,0.1-0.2,0.1-0.3c-0.1-0.1,0.1-0.4,0.1-0.6c0.1-0.2,0.2-0.4,0.3-0.6C-251.2,415.8-251.5,415.7-251.6,415.9z"/>
		<path class="st3" d="M-250.3,415c-0.4,0.1-0.8,0.2-1,0.6c0,0,0,0.1,0.1,0.1c0.3,0,0.5-0.2,0.8-0.3c0.2,0,0.3-0.1,0.5-0.1
			c0.1,0,0.2,0,0.4,0c0,0,0.1-0.1,0.1-0.1C-249.6,414.9-250.1,414.9-250.3,415z"/>
		<path class="st3" d="M-261.5,413.5c0-0.1-0.1-0.1-0.1,0c-0.2,0.8-0.6,1.3-1.2,1.8c-0.6,0.5-1.2,0.5-1.9,0.7c-0.1,0-0.1,0.3,0,0.3
			c0.8,0.1,1.7-0.3,2.3-0.8C-261.9,415-261.3,414.2-261.5,413.5z"/>
		<path class="st3" d="M-255.7,414.4c-0.4-0.5-1.2-0.3-1.8-0.2c-0.8,0.2-1.5,1-1.8,1.8c0,0-0.1,0-0.2,0c-0.1,0-0.1,0.1-0.1,0.1
			c0.1,0.1,0.2,0.1,0.3,0.2c0.1,0.1,0.2,0,0.2-0.1c0.6-1.1,1.8-2.4,3.2-1.8C-255.7,414.5-255.6,414.4-255.7,414.4z"/>
		<path class="st3" d="M-236.6,426.5c-0.7-0.1-1.3-0.2-1.9-0.7c-0.3-0.3-0.5-0.7-0.4-1.2c0.1-0.4,0.3-0.6,0.4-1
			c0-0.1-0.1-0.1-0.1-0.1c-0.9,0.4-0.8,1.6-0.4,2.3c0.4,0.7,1.7,1.4,2.5,1C-236.4,426.8-236.4,426.6-236.6,426.5z"/>
		<path class="st3" d="M-239.1,427c-0.5-0.2-1.1,0.2-1.4,0.5c-0.5,0.4-1.2,0.9-1.5,1.5c0,0.1,0.1,0.2,0.2,0.1
			c0.5-0.3,0.9-0.7,1.3-1.1c0.2-0.2,0.4-0.3,0.6-0.5c0.2-0.2,0.5-0.2,0.8-0.3C-239,427.3-238.9,427.1-239.1,427z"/>
	</g>
	<g>
		<g>
			<path class="st10" d="M-238.5,410.3c0.1-0.2,0.1-0.5,0-0.8c0,0,0,0,0,0c0,0,0,0,0,0c0,0,0,0,0,0c0,0,0,0,0,0c0,0,0,0,0,0
				c0,0,0,0,0,0c0,0,0,0,0,0c0,0,0,0,0,0c0,0,0,0,0,0c0,0,0,0,0,0c0,0,0,0,0,0c0,0,0,0,0,0c0,0,0,0,0,0c0,0,0,0,0,0c0,0,0,0,0,0
				c0,0,0,0,0,0c0,0,0,0,0,0c0,0,0,0,0,0c0,0,0,0,0,0c0,0,0,0,0,0c-0.1-0.5-0.6-1.1-1.8-1.5c-1.5-0.5-3-0.5-3.4,0.6
				c-0.1,0.3-0.1,0.6,0,0.8c0,0,0,0,0,0c0,0,0,0,0,0c0,0,0,0,0,0c0,0,0,0,0,0c0,0,0,0,0,0c0,0,0,0,0,0c0,0,0,0,0,0c0,0,0,0,0,0
				c0,0,0,0,0,0c0,0,0,0,0,0c0,0,0,0,0,0c0,0,0,0,0,0c0,0,0,0,0,0s0,0,0,0c0,0,0,0,0,0c0,0,0,0,0,0s0,0,0,0c0,0,0,0,0,0c0,0,0,0,0,0
				c0,0,0,0,0,0c0.2,0.7,1,1.3,2.2,1.8C-240,411.8-238.8,410.9-238.5,410.3z"/>
			<path class="st10" d="M-238,418.2C-238,418.2-238,418.2-238,418.2C-238,418.2-238,418.2-238,418.2
				C-238,418.2-238,418.2-238,418.2C-238,418.1-238,418.1-238,418.2C-238,418.1-238,418.1-238,418.2C-238,418.1-238,418.1-238,418.2
				C-238,418.1-238,418.1-238,418.2C-238,418.1-238,418.1-238,418.2c0-0.1,0-0.1,0-0.1c0,0,0,0,0,0c0,0,0,0,0,0c0,0,0,0,0,0
				c0,0,0,0,0,0c0,0,0,0,0,0c0,0,0,0,0,0c0,0,0,0,0,0c0,0,0,0,0,0c0,0,0,0,0,0c0,0,0,0,0,0c0,0,0,0,0,0c-0.2-0.7-0.9-1.3-2.3-1.6
				c-1.4-0.2-2.9,0.9-2.6,1.9c0,0,0,0,0,0c0,0,0,0,0,0c0,0,0,0,0,0c0,0,0,0,0,0c0,0,0,0,0,0c0,0,0,0,0,0c0,0,0,0,0,0c0,0,0,0,0,0
				c0,0,0,0,0,0c0,0,0,0,0,0c0,0,0,0,0,0c0,0,0,0,0,0c0,0,0,0,0,0c0,0,0,0,0,0c0,0,0,0,0,0c0,0,0,0,0,0c0,0,0,0,0,0c0,0,0,0,0,0
				c0,0,0,0,0,0c0,0,0,0,0,0c0.1,0.5,0.7,1,2.1,1.3C-238.7,420.2-237.7,419.2-238,418.2z"/>
			<path class="st10" d="M-230.2,417.3C-230.2,417.3-230.2,417.3-230.2,417.3C-230.2,417.3-230.2,417.2-230.2,417.3
				C-230.2,417.2-230.2,417.2-230.2,417.3C-230.2,417.2-230.2,417.2-230.2,417.3C-230.2,417.2-230.2,417.2-230.2,417.3
				C-230.2,417.2-230.2,417.2-230.2,417.3C-230.3,417.2-230.3,417.2-230.2,417.3C-230.3,417.2-230.3,417.2-230.2,417.3
				c0-0.1,0-0.1,0-0.1c0,0,0,0,0,0c0,0,0,0,0,0c0,0,0,0,0,0c0,0,0,0,0,0c0,0,0,0,0,0c0,0,0,0,0,0c0,0,0,0,0,0c0,0,0,0,0,0
				c0,0,0,0,0,0c0,0,0,0,0,0c0,0,0,0,0,0c-0.1-0.5-0.7-1.3-2.6-1.4c-2.1-0.2-3.4,0.7-3.4,1.4c0,0.1,0,0.3,0,0.4c0,0,0,0,0,0
				c0,0,0,0,0,0c0,0,0,0,0,0c0,0,0,0,0,0c0,0,0,0,0,0c0,0,0,0,0,0c0,0,0,0,0,0c0,0,0,0,0,0c0,0,0,0,0,0c0,0,0,0,0,0c0,0,0,0,0,0
				c0,0,0,0,0,0c0,0,0,0,0,0c0,0,0,0,0,0c0,0,0,0,0,0c0,0,0,0,0,0c0,0,0,0,0,0c0,0,0,0,0,0c0,0,0,0,0,0c0,0,0,0,0,0
				c0.2,0.6,0.8,1.3,3,1.6c2.7,0.3,2.9-1.4,2.9-1.7C-230.2,417.5-230.2,417.4-230.2,417.3z"/>
			<path class="st10" d="M-249.1,424.7C-249.1,424.7-249.1,424.7-249.1,424.7C-249.1,424.7-249.1,424.7-249.1,424.7
				C-249.1,424.7-249.1,424.7-249.1,424.7C-249.1,424.6-249.1,424.6-249.1,424.7C-249.1,424.6-249.1,424.6-249.1,424.7
				C-249.1,424.6-249.1,424.6-249.1,424.7C-249.1,424.6-249.1,424.6-249.1,424.7C-249.1,424.6-249.1,424.6-249.1,424.7
				C-249.1,424.6-249.1,424.6-249.1,424.7C-249.1,424.6-249.1,424.6-249.1,424.7C-249.1,424.6-249.1,424.6-249.1,424.7
				C-249.1,424.6-249.1,424.6-249.1,424.7C-249.1,424.6-249.1,424.6-249.1,424.7C-249.1,424.6-249.1,424.6-249.1,424.7
				C-249.1,424.6-249.1,424.6-249.1,424.7C-249.1,424.6-249.1,424.6-249.1,424.7C-249.1,424.6-249.1,424.6-249.1,424.7
				c0-0.1,0-0.1,0-0.1C-249.1,424.6-249.1,424.6-249.1,424.7c0-0.1,0-0.1,0-0.1c0,0,0,0,0,0c0,0,0,0,0,0c0,0,0,0,0,0c0,0,0,0,0,0
				c0,0,0,0,0,0c0,0,0,0,0,0c0,0,0,0,0,0c0,0,0,0,0,0c0,0,0,0,0,0c0,0,0,0,0,0c0,0,0,0,0,0c0,0,0,0,0,0c0,0,0,0,0,0c0,0,0,0,0,0
				c0,0,0,0,0,0c0,0,0,0,0,0c0,0,0,0,0,0c0,0,0,0,0,0c0,0,0,0,0,0c0,0,0,0,0,0c0,0,0,0,0,0c0,0,0,0,0,0c-0.8,0.2-1.7,1.2-1.8,2.4
				c0,0.3,0,0.6,0.1,0.8c0,0,0,0,0,0c0,0,0,0,0,0c0,0,0,0,0,0c0,0,0,0,0,0c0,0,0,0,0,0c0,0,0,0,0,0c0,0,0,0,0,0c0,0,0,0,0,0
				c0,0,0,0,0,0c0,0,0,0,0,0c0,0,0,0,0,0c0,0,0,0,0,0c0,0,0,0,0,0c0,0,0,0,0,0c0,0,0,0,0,0c0,0,0,0,0,0c0,0,0,0,0,0c0,0,0,0,0,0
				c0,0,0,0,0,0c0,0,0,0,0,0c0.2,0.7,0.6,1.1,0.6,1.1s0.1-1.3,0.6-2.1C-249.1,426.1-249.1,424.7-249.1,424.7z"/>
			<path class="st10" d="M-245.5,421.6c0-0.2,0-0.4,0-0.5c0,0,0,0,0,0c0,0,0,0,0,0c0,0,0,0,0,0c0,0,0,0,0,0c0,0,0,0,0,0c0,0,0,0,0,0
				c0,0,0,0,0,0c0,0,0,0,0,0c0,0,0,0,0,0c0,0,0,0,0,0c0,0,0,0,0,0c0,0,0,0,0,0c0,0,0,0,0,0c0,0,0,0,0,0c0,0,0,0,0,0c0,0,0,0,0,0
				c0,0,0,0,0,0c0,0,0,0,0,0c0,0,0,0,0,0c0,0,0,0,0,0c-0.3-1.1-2-1.2-2-1.2s-0.2,1.5-0.3,2c-0.2,0.4-0.3,1.1-0.3,1.1s0,0,0,0
				c0,0,0,0,0,0s0,0,0,0c0,0,0,0,0,0s0,0,0,0c0,0,0,0,0,0s0,0,0,0c0,0,0,0,0,0s0,0,0,0c0,0,0,0,0,0s0,0,0,0c0,0,0,0,0,0s0,0,0,0
				c0,0,0,0,0,0s0,0,0,0c0,0,0,0,0,0s0,0,0,0c0,0,0,0,0,0s0,0,0,0c0,0,0,0,0,0s0,0,0,0c0,0,0,0,0,0s0,0,0,0c0,0,0,0,0,0s0,0,0,0
				c0,0,0,0,0,0s0,0,0,0c0,0,0,0,0,0s0,0,0,0c0,0,0,0,0,0s0,0,0,0c0,0,0,0,0,0s0,0,0,0c0,0,0,0,0,0s0,0,0,0c0,0,0,0,0,0s0,0,0,0
				c0,0,0,0,0,0s0,0,0,0c0,0,0,0,0,0s0,0,0,0c0,0,0,0,0,0S-245.7,423.4-245.5,421.6z"/>
			<path class="st10" d="M-258.9,419c0-0.1,0-0.1,0-0.2c0,0,0,0,0,0c0,0,0,0,0,0c0,0,0,0,0,0c0,0,0,0,0,0c0,0,0,0,0,0s0,0,0,0
				c0,0,0,0,0,0c0,0,0,0,0,0c0,0,0,0,0,0c0,0,0,0,0,0c0,0,0,0,0,0c0,0,0,0,0,0c0,0,0,0,0,0c0,0,0,0,0,0c0,0,0,0,0,0c0,0,0,0,0,0
				c0,0,0,0,0,0s0,0,0,0c0,0,0,0,0,0c0,0,0,0,0,0c-0.2-0.8-1.3-1.3-2.6-1.2c-1.9,0.1-2.6,1.5-2.6,2.3c0,0.1,0,0.2,0,0.3c0,0,0,0,0,0
				c0,0,0,0,0,0c0,0,0,0,0,0c0,0,0,0,0,0c0,0,0,0,0,0c0,0,0,0,0,0c0,0,0,0,0,0c0,0,0,0,0,0c0,0,0,0,0,0c0,0,0,0,0,0c0,0,0,0,0,0
				c0,0,0,0,0,0c0,0,0,0,0,0c0,0,0,0,0,0c0,0,0,0,0,0c0,0,0,0,0,0c0,0,0,0,0,0c0,0,0,0,0,0s0,0,0,0c0,0,0,0,0,0
				c0.2,0.7,0.9,1.4,2.8,1.3C-259.1,421.3-258.8,419.8-258.9,419z"/>
			<path class="st10" d="M-234.7,426.2C-234.7,426.2-234.7,426.2-234.7,426.2C-234.7,426.2-234.7,426.2-234.7,426.2
				C-234.7,426.2-234.7,426.2-234.7,426.2C-234.7,426.2-234.7,426.2-234.7,426.2C-234.7,426.2-234.7,426.2-234.7,426.2
				C-234.7,426.2-234.7,426.2-234.7,426.2C-234.7,426.2-234.7,426.2-234.7,426.2C-234.7,426.2-234.7,426.2-234.7,426.2
				C-234.7,426.2-234.7,426.2-234.7,426.2C-234.7,426.2-234.7,426.2-234.7,426.2C-234.7,426.2-234.7,426.1-234.7,426.2
				C-234.7,426.1-234.7,426.1-234.7,426.2C-234.7,426.1-234.7,426.1-234.7,426.2C-234.7,426.1-234.7,426.1-234.7,426.2
				C-234.7,426.1-234.7,426.1-234.7,426.2C-234.7,426.1-234.7,426.1-234.7,426.2C-234.7,426.1-234.7,426.1-234.7,426.2
				c0-0.1,0-0.1,0-0.1c0,0,0,0,0,0c0,0,0,0,0,0c0,0,0,0,0,0c0,0,0,0,0,0c0,0,0,0,0,0c0,0,0,0,0,0c0,0,0,0,0,0c0,0,0,0,0,0
				c0,0,0,0,0,0c0,0,0,0,0,0c0,0,0,0,0,0c0,0,0,0,0,0c0,0,0,0,0,0c0,0,0,0,0,0c0,0,0,0,0,0c0,0,0,0,0,0c0,0,0,0,0,0c0,0,0,0,0,0
				c0,0,0,0,0,0c0,0,0,0,0,0c0,0,0,0,0,0c0,0,0,0,0,0c0,0,0,0,0,0c-0.1-0.2-1.6-1-2.1-1.2c-0.5-0.2-1.7-1.2-1.7-1.2
				s-0.8,0.6-0.5,1.6c0,0,0,0,0,0c0,0,0,0,0,0c0,0,0,0,0,0c0,0,0,0,0,0c0,0,0,0,0,0c0,0,0,0,0,0c0,0,0,0,0,0c0,0,0,0,0,0
				c0,0,0,0,0,0c0,0,0,0,0,0c0,0,0,0,0,0c0,0,0,0,0,0c0,0,0,0,0,0c0,0,0,0,0,0c0,0,0,0,0,0c0,0,0,0,0,0c0,0,0,0,0,0c0,0,0,0,0,0
				c0,0,0,0,0,0c0,0,0,0,0,0c0.1,0.3,0.2,0.6,0.5,0.9C-237.4,427.2-234.6,426.4-234.7,426.2C-234.7,426.2-234.7,426.2-234.7,426.2z"
				/>
			<path class="st10" d="M-243.6,426.6C-243.6,426.6-243.6,426.6-243.6,426.6C-243.6,426.6-243.6,426.6-243.6,426.6
				C-243.6,426.6-243.7,426.6-243.6,426.6C-243.7,426.6-243.7,426.6-243.6,426.6C-243.7,426.6-243.7,426.6-243.6,426.6
				C-243.7,426.6-243.7,426.6-243.6,426.6C-243.7,426.6-243.7,426.6-243.6,426.6C-243.7,426.6-243.7,426.6-243.6,426.6
				c0-0.1,0-0.1,0-0.1c0,0,0,0,0,0c0,0,0,0,0,0c0,0,0,0,0,0c0,0,0,0,0,0c0,0,0,0,0,0c0,0,0,0,0,0c0,0,0,0,0,0c0,0,0,0,0,0
				c0,0,0,0,0,0c0,0,0,0,0,0c-0.6-2.1-5-2-5-2c0.1,0.4-0.2,2.5-0.4,3.1c-0.3,0.6-0.5,1.5-0.5,1.5c0,0,0,0,0,0c0,0,0,0,0,0
				c0,0,0,0,0,0c0,0,0,0,0,0c0,0,0,0,0,0c0,0,0,0,0,0c0,0,0,0,0,0c0,0,0,0,0,0c0,0,0,0,0,0c0,0,0,0,0,0c0,0,0,0,0,0c0,0,0,0,0,0
				c0,0,0,0,0,0c0,0,0,0,0,0c0,0,0,0,0,0c0,0,0,0,0,0c0,0,0,0,0,0c0,0,0,0,0,0c0,0,0,0,0,0c0,0,0,0,0,0c0,0,0,0,0,0c0,0,0,0,0,0
				c0,0,0,0,0,0c0,0,0,0,0,0c0,0,0,0,0,0c0,0,0,0,0,0c0,0,0,0,0,0c0,0,0,0,0,0c0,0,0,0,0,0c0,0,0,0,0,0c0,0,0,0,0,0c0,0,0,0,0,0
				c0,0,0,0,0,0c0,0,0,0,0,0c0,0,0,0,0,0c0,0,0,0,0,0c0,0,0,0,0,0c0,0,0,0,0,0c0,0,0,0,0,0c0,0,0,0,0,0c0,0,0,0,0,0c0,0,0,0,0,0
				c1.3,0.4,6.1,0.5,6-2.1C-243.6,426.9-243.6,426.8-243.6,426.6C-243.6,426.6-243.6,426.6-243.6,426.6z"/>
			<path class="st10" d="M-254.3,424.3C-254.4,424.3-254.4,424.3-254.3,424.3C-254.4,424.3-254.4,424.3-254.3,424.3
				C-254.4,424.3-254.4,424.3-254.3,424.3C-254.4,424.3-254.4,424.3-254.3,424.3C-254.4,424.3-254.4,424.3-254.3,424.3
				C-254.4,424.3-254.4,424.3-254.3,424.3C-254.4,424.3-254.4,424.3-254.3,424.3C-254.4,424.3-254.4,424.3-254.3,424.3
				c0-0.1,0-0.1,0-0.1c0,0,0,0,0,0c0,0,0,0,0,0c0,0,0,0,0,0c0,0,0,0,0,0c0,0,0,0,0,0c0,0,0,0,0,0c0,0,0,0,0,0c0,0,0,0,0,0
				c0,0,0,0,0,0c0,0,0,0,0,0c-0.2-0.7-0.7-1.1-1.4-1.2c-1.7-0.3-3.5-0.4-4,1.6c-0.1,0.4-0.1,0.7,0,1c0,0,0,0,0,0c0,0,0,0,0,0
				c0,0,0,0,0,0c0,0,0,0,0,0c0,0,0,0,0,0c0,0,0,0,0,0s0,0,0,0c0,0,0,0,0,0c0,0,0,0,0,0c0,0,0,0,0,0c0,0,0,0,0,0c0,0,0,0,0,0
				c0,0,0,0,0,0c0,0,0,0,0,0c0,0,0,0,0,0c0,0,0,0,0,0c0,0,0,0,0,0c0,0,0,0,0,0c0,0,0,0,0,0c0,0,0,0,0,0c0.3,1.3,1.9,1.8,2.8,1.9
				c1,0.1,2.4-0.5,2.6-2.2C-254.2,425-254.3,424.7-254.3,424.3C-254.3,424.4-254.3,424.4-254.3,424.3z"/>
			<path class="st10" d="M-252.8,417.4C-252.8,417.4-252.8,417.4-252.8,417.4C-252.9,417.4-252.9,417.4-252.8,417.4
				C-252.9,417.4-252.9,417.4-252.8,417.4C-252.9,417.4-252.9,417.4-252.8,417.4C-252.9,417.4-252.9,417.4-252.8,417.4
				C-252.9,417.4-252.9,417.4-252.8,417.4C-252.9,417.4-252.9,417.4-252.8,417.4C-252.9,417.4-252.9,417.3-252.8,417.4
				c0-0.1,0-0.1,0-0.1c0,0,0,0,0,0c0,0,0,0,0,0c0,0,0,0,0,0s0,0,0,0c0,0,0,0,0,0c0,0,0,0,0,0c0,0,0,0,0,0c0,0,0,0,0,0c0,0,0,0,0,0
				c0,0,0,0,0,0c-0.2-0.8-1.3-1.2-2.5-1.2c-1.4,0-2.7,1-2.6,1.9c0,0.1,0,0.2,0.1,0.4c0,0,0,0,0,0c0,0,0,0,0,0c0,0,0,0,0,0
				c0,0,0,0,0,0c0,0,0,0,0,0c0,0,0,0,0,0c0,0,0,0,0,0c0,0,0,0,0,0c0,0,0,0,0,0c0,0,0,0,0,0c0,0,0,0,0,0c0,0,0,0,0,0c0,0,0,0,0,0
				c0,0,0,0,0,0c0,0,0,0,0,0c0,0,0,0,0,0c0,0,0,0,0,0c0,0,0,0,0,0c0,0,0,0,0,0c0,0,0,0,0,0c0.3,0.8,1.2,1.3,2.7,1.2
				c1.6,0,2.4-1,2.4-2C-252.8,417.7-252.8,417.6-252.8,417.4C-252.8,417.4-252.8,417.4-252.8,417.4z"/>
			<path class="st10" d="M-233.7,424.4C-233.7,424.4-233.7,424.4-233.7,424.4C-233.7,424.4-233.7,424.4-233.7,424.4
				C-233.7,424.4-233.7,424.4-233.7,424.4C-233.7,424.4-233.7,424.4-233.7,424.4C-233.7,424.3-233.7,424.3-233.7,424.4
				C-233.8,424.3-233.8,424.3-233.7,424.4C-233.8,424.3-233.8,424.3-233.7,424.4C-233.8,424.3-233.8,424.3-233.7,424.4
				c0-0.1,0-0.1,0-0.1c0,0,0,0,0,0c0,0,0,0,0,0c0,0,0,0,0,0c0,0,0,0,0,0c0,0,0,0,0,0c0,0,0,0,0,0c0,0,0,0,0,0c0,0,0,0,0,0
				c0,0,0,0,0,0c0,0,0,0,0,0c-0.1-0.4-0.5-0.9-1.3-1.2c-1.7-0.7-3.2,0.3-3.2,0.3s0,0,0,0c0,0,0,0,0,0s0,0,0,0c0,0,0,0,0,0s0,0,0,0
				c0,0,0,0,0,0s0,0,0,0c0,0,0,0,0,0s0,0,0,0c0,0,0,0,0,0s0,0,0,0c0,0,0,0,0,0s0,0,0,0c0,0,0,0,0,0s0,0,0,0c0,0,0,0,0,0s0,0,0,0
				c0,0,0,0,0,0s0,0,0,0c0,0,0,0,0,0s0,0,0,0c0,0,0,0,0,0s0,0,0,0c0,0,0,0,0,0s0,0,0,0c0,0,0,0,0,0s0,0,0,0c0,0,0,0,0,0s0,0,0,0
				c0,0,0,0,0,0s0,0,0,0c0,0,0,0,0,0s0,0,0,0c0,0,0,0,0,0s0,0,0,0c0,0,0,0,0,0s0,0,0,0c0,0,0,0,0,0s0,0,0,0c0,0,0,0,0,0s0,0,0,0
				c0,0,0,0,0,0s1.3,1.1,1.9,1.2c0.5,0.1,2.2,1.3,2.2,1.3C-233.7,425.6-233.5,425-233.7,424.4C-233.7,424.4-233.7,424.4-233.7,424.4
				z"/>
			<path class="st10" d="M-253.3,408.8C-253.3,408.8-253.3,408.8-253.3,408.8C-253.3,408.8-253.3,408.8-253.3,408.8
				C-253.3,408.8-253.3,408.8-253.3,408.8C-253.3,408.8-253.3,408.8-253.3,408.8C-253.3,408.9-253.3,408.9-253.3,408.8
				C-253.3,408.9-253.3,408.9-253.3,408.8C-253.3,408.9-253.3,408.9-253.3,408.8C-253.3,408.9-253.3,408.9-253.3,408.8
				c0,0.1,0,0.1,0,0.1c0,0,0,0,0,0c0,0,0,0,0,0c0,0,0,0,0,0c0,0,0,0,0,0c0,0,0,0,0,0c0,0,0,0,0,0c0,0,0,0,0,0c0,0,0,0,0,0
				c0,0,0,0,0,0c0,0,0,0,0,0c0.2,0.9,1.4,1.4,3.1,1.2c1.9-0.2,2.6-1.4,2.5-2.2c0,0,0-0.1,0-0.1c0,0,0,0,0,0c0,0,0,0,0,0c0,0,0,0,0,0
				c0,0,0,0,0,0c0,0,0,0,0,0c0,0,0,0,0,0c0,0,0,0,0,0c0,0,0,0,0,0c0,0,0,0,0,0c0,0,0,0,0,0c0,0,0,0,0,0c0,0,0,0,0,0c0,0,0,0,0,0
				c0,0,0,0,0,0c0,0,0,0,0,0c0,0,0,0,0,0c0,0,0,0,0,0c0,0,0,0,0,0c0,0,0,0,0,0c0,0,0,0,0,0c-0.2-0.7-1.1-1.1-2.9-1.1
				c-1.6,0.1-2.8,1-2.7,2C-253.4,408.7-253.4,408.7-253.3,408.8C-253.3,408.8-253.3,408.8-253.3,408.8z"/>
			<path class="st10" d="M-259.9,412.6C-259.9,412.6-259.9,412.6-259.9,412.6C-259.9,412.6-259.9,412.6-259.9,412.6
				C-259.9,412.6-259.9,412.6-259.9,412.6C-259.9,412.6-259.9,412.6-259.9,412.6C-259.9,412.6-259.9,412.6-259.9,412.6
				C-259.8,412.6-259.8,412.6-259.9,412.6C-259.8,412.6-259.8,412.7-259.9,412.6C-259.8,412.7-259.8,412.7-259.9,412.6
				c0,0.1,0,0.1,0,0.1c0,0,0,0,0,0c0,0,0,0,0,0c0,0,0,0,0,0c0,0,0,0,0,0c0,0,0,0,0,0c0,0,0,0,0,0c0,0,0,0,0,0c0,0,0,0,0,0
				c0,0,0,0,0,0c0,0,0,0,0,0c0.1,0.2,0.2,0.5,0.5,0.7c1.5,1.1,3.5-0.5,3.5-0.6c0,0,0,0,0,0c0,0,0,0,0,0c0,0,0,0,0,0c0,0,0,0,0,0
				c0,0,0,0,0,0c0,0,0,0,0,0c0,0,0,0,0,0c0,0,0,0,0,0c0,0,0,0,0,0c0,0,0,0,0,0c0,0,0,0,0,0c0,0,0,0,0,0c0,0,0,0,0,0c0,0,0,0,0,0
				c0,0,0,0,0,0c0,0,0,0,0,0c0,0,0,0,0,0c0,0,0,0,0,0c0,0,0,0,0,0c0,0,0,0,0,0c0,0,0,0,0,0c-0.1-0.1-1.1-0.9-1.7-1.1
				c-0.6-0.2-1.3-1.1-1.3-1.1S-260.2,411.6-259.9,412.6C-259.9,412.6-259.9,412.6-259.9,412.6z"/>
			<path class="st10" d="M-258.5,410.2C-258.5,410.2-258.5,410.2-258.5,410.2C-258.5,410.2-258.5,410.2-258.5,410.2
				C-258.5,410.2-258.5,410.2-258.5,410.2C-258.5,410.2-258.5,410.2-258.5,410.2C-258.5,410.2-258.5,410.2-258.5,410.2
				C-258.4,410.2-258.5,410.2-258.5,410.2C-258.5,410.2-258.4,410.2-258.5,410.2C-258.4,410.3-258.4,410.3-258.5,410.2
				C-258.4,410.3-258.4,410.3-258.5,410.2C-258.4,410.3-258.4,410.3-258.5,410.2C-258.4,410.3-258.4,410.3-258.5,410.2
				C-258.4,410.3-258.4,410.3-258.5,410.2C-258.4,410.3-258.4,410.3-258.5,410.2C-258.4,410.3-258.4,410.3-258.5,410.2
				C-258.4,410.3-258.4,410.3-258.5,410.2C-258.4,410.3-258.4,410.3-258.5,410.2C-258.4,410.3-258.4,410.3-258.5,410.2
				c0,0.1,0,0.1,0,0.1s0,0,0,0c0,0,0,0,0,0s0,0,0,0c0,0,0,0,0,0s0,0,0,0c0,0,0,0,0,0s0,0,0,0c0,0,0,0,0,0s0,0,0,0c0,0,0,0,0,0
				s0,0,0,0c0,0,0,0,0,0s0,0,0,0c0,0,0,0,0,0s0,0,0,0c0,0,0,0,0,0s0,0,0,0c0,0,0,0,0,0s0,0,0,0c0,0,0,0,0,0s0,0,0,0c0,0,0,0,0,0
				s0.6,0.8,1.1,1.1c0.5,0.2,1.7,0.8,1.8,1.1c0,0,0.5-0.5,0.3-1.3c0,0,0,0,0,0c0,0,0,0,0,0c0,0,0,0,0,0s0,0,0,0c0,0,0,0,0,0
				c0,0,0,0,0,0c0,0,0,0,0,0c0,0,0,0,0,0c0,0,0,0,0,0c0,0,0,0,0,0c0,0,0,0,0,0c0,0,0,0,0,0c0,0,0,0,0,0c0,0,0,0,0,0c0,0,0,0,0,0
				c0,0,0,0,0,0c0,0,0,0,0,0c0,0,0,0,0,0c0,0,0,0,0,0c0,0,0,0,0,0c-0.1-0.3-0.3-0.6-0.6-1C-257.1,409.1-258.5,410.2-258.5,410.2
				C-258.5,410.2-258.5,410.2-258.5,410.2C-258.5,410.2-258.5,410.2-258.5,410.2z"/>
			<path class="st10" d="M-236.8,412.9C-236.8,412.9-236.8,412.9-236.8,412.9C-236.8,412.9-236.8,412.9-236.8,412.9
				C-236.8,412.9-236.8,412.9-236.8,412.9C-236.8,412.9-236.8,412.9-236.8,412.9C-236.8,412.9-236.8,412.9-236.8,412.9
				C-236.8,412.9-236.8,412.9-236.8,412.9C-236.8,412.9-236.8,412.9-236.8,412.9C-236.7,412.9-236.7,412.9-236.8,412.9
				c0,0.1,0,0.1,0,0.1c0,0,0,0,0,0c0,0,0,0,0,0c0,0,0,0,0,0c0,0,0,0,0,0c0,0,0,0,0,0c0,0,0,0,0,0c0,0,0,0,0,0c0,0,0,0,0,0
				c0,0,0,0,0,0c0,0,0,0,0,0c0,0.1,0.1,0.2,0.1,0.2c0,0,1.1-0.8,1.7-0.9c0.5-0.1,1.8-0.5,1.8-0.5s0,0,0,0c0,0,0,0,0,0s0,0,0,0
				c0,0,0,0,0,0s0,0,0,0c0,0,0,0,0,0s0,0,0,0c0,0,0,0,0,0s0,0,0,0c0,0,0,0,0,0s0,0,0,0c0,0,0,0,0,0s0,0,0,0c0,0,0,0,0,0s0,0,0,0
				c0,0,0,0,0,0s0,0,0,0c0,0,0,0,0,0s0,0,0,0c0,0,0,0,0,0s0,0,0,0c0,0,0,0,0,0s0,0,0,0c0,0,0,0,0,0s0,0,0,0c0,0,0,0,0,0s0,0,0,0
				c0,0,0,0,0,0s0,0,0,0c0,0,0,0,0,0s0,0,0,0c0,0,0,0,0,0s0,0,0,0c0,0,0,0,0,0s0,0,0,0c0,0,0,0,0,0s0,0,0,0c0,0,0,0,0,0s0,0,0,0
				c0,0,0,0,0,0s0,0,0,0c0,0,0,0,0,0s-1.6-0.7-2.8-0.2C-237,411.7-236.9,412.5-236.8,412.9C-236.8,412.8-236.8,412.8-236.8,412.9z"
				/>
			<path class="st10" d="M-250.4,421.2c0,0.3,0,0.5,0.1,0.7c0,0,0,0,0,0c0,0,0,0,0,0c0,0,0,0,0,0c0,0,0,0,0,0c0,0,0,0,0,0
				c0,0,0,0,0,0c0,0,0,0,0,0c0,0,0,0,0,0c0,0,0,0,0,0c0,0,0,0,0,0c0,0,0,0,0,0c0,0,0,0,0,0c0,0,0,0,0,0c0,0,0,0,0,0c0,0,0,0,0,0
				c0,0,0,0,0,0c0,0,0,0,0,0c0,0,0,0,0,0c0,0,0,0,0,0c0,0,0,0,0,0c0.3,1,1.7,0.9,1.7,0.9s0-0.9,0.2-1.4c0.2-0.4,0.4-1.8,0.4-1.8
				c0,0,0,0,0,0c0,0,0,0,0,0c0,0,0,0,0,0c0,0,0,0,0,0c0,0,0,0,0,0c0,0,0,0,0,0c0,0,0,0,0,0c0,0,0,0,0,0c0,0,0,0,0,0c0,0,0,0,0,0
				c0,0,0,0,0,0c0,0,0,0,0,0c0,0,0,0,0,0c0,0,0,0,0,0c0,0,0,0,0,0c0,0,0,0,0,0c0,0,0,0,0,0c0,0,0,0,0,0c0,0,0,0,0,0c0,0,0,0,0,0
				c0,0,0,0,0,0c0,0,0,0,0,0c0,0,0,0,0,0c0,0,0,0,0,0c0,0,0,0,0,0c0,0,0,0,0,0c0,0,0,0,0,0c0,0,0,0,0,0c0,0,0,0,0,0c0,0,0,0,0,0
				c0,0,0,0,0,0c0,0,0,0,0,0c0,0,0,0,0,0c0,0,0,0,0,0c0,0,0,0,0,0c0,0,0,0,0,0c0,0,0,0,0,0c0,0,0,0,0,0c0,0,0,0,0,0c0,0,0,0,0,0
				c0,0,0,0,0,0c0,0,0,0,0,0C-248.6,419.6-250.3,419.8-250.4,421.2z"/>
			<path class="st10" d="M-248.7,412.7c-0.1,0.4-0.1,0.7,0,1c0,0,0,0,0,0c0,0,0,0,0,0c0,0,0,0,0,0c0,0,0,0,0,0c0,0,0,0,0,0
				c0,0,0,0,0,0c0,0,0,0,0,0c0,0,0,0,0,0c0,0,0,0,0,0c0,0,0,0,0,0c0,0,0,0,0,0c0,0,0,0,0,0c0,0,0,0,0,0c0,0,0,0,0,0c0,0,0,0,0,0
				c0,0,0,0,0,0c0,0,0,0,0,0c0,0,0,0,0,0c0,0,0,0,0,0c0,0,0,0,0,0c0.3,1,1.4,1.3,1.4,1.3c0.1-1,0.8-3.4,0.8-3.4c0,0,0,0,0,0
				c0,0,0,0,0,0c0,0,0,0,0,0c0,0,0,0,0,0c0,0,0,0,0,0c0,0,0,0,0,0c0,0,0,0,0,0c0,0,0,0,0,0c0,0,0,0,0,0c0,0,0,0,0,0c0,0,0,0,0,0
				c0,0,0,0,0,0c0,0,0,0,0,0c0,0,0,0,0,0c0,0,0,0,0,0c0,0,0,0,0,0c0,0,0,0,0,0c0,0,0,0,0,0c0,0,0,0,0,0c0,0,0,0,0,0c0,0,0,0,0,0
				c0,0,0,0,0,0c0,0,0,0,0,0c0,0,0,0,0,0c0,0,0,0,0,0c0,0,0,0,0,0c0,0,0,0,0,0c0,0,0,0,0,0c0,0,0,0,0,0c0,0,0,0,0,0c0,0,0,0,0,0
				c0,0,0,0,0,0c0,0,0,0,0,0c0,0,0,0,0,0c0,0,0,0,0,0c0,0,0,0,0,0c0,0,0,0,0,0c0,0,0,0,0,0c0,0,0,0,0,0c0,0,0,0,0,0c0,0,0,0,0,0
				c0,0,0,0,0,0C-246.6,411.6-248.3,411.3-248.7,412.7z"/>
			<path class="st10" d="M-246.6,415.1C-246.6,415.1-246.6,415.2-246.6,415.1C-246.6,415.2-246.6,415.2-246.6,415.1
				C-246.6,415.2-246.6,415.2-246.6,415.1C-246.6,415.2-246.6,415.2-246.6,415.1C-246.6,415.2-246.6,415.2-246.6,415.1
				C-246.6,415.2-246.6,415.2-246.6,415.1C-246.6,415.2-246.6,415.2-246.6,415.1C-246.6,415.2-246.6,415.2-246.6,415.1
				C-246.6,415.2-246.6,415.2-246.6,415.1C-246.6,415.2-246.6,415.2-246.6,415.1C-246.6,415.2-246.6,415.2-246.6,415.1
				C-246.6,415.2-246.6,415.2-246.6,415.1C-246.6,415.2-246.6,415.2-246.6,415.1C-246.6,415.2-246.6,415.2-246.6,415.1
				C-246.6,415.2-246.6,415.2-246.6,415.1C-246.6,415.2-246.6,415.2-246.6,415.1C-246.6,415.2-246.6,415.2-246.6,415.1
				c0,0.1,0,0.1,0,0.1c0,0,0,0,0,0s0,0,0,0c0,0,0,0,0,0s0,0,0,0c0,0,0,0,0,0s0,0,0,0c0,0,0,0,0,0s0,0,0,0c0,0,0,0,0,0s0,0,0,0
				c0,0,0,0,0,0s0,0,0,0c0,0,0,0,0,0s0,0,0,0c0,0,0,0,0,0s0,0,0,0c0,0,0,0,0,0s0,0,0,0c0,0,0,0,0,0s0,0,0,0c0,0,0,0,0,0s0,0,0,0
				c0,0,0,0,0,0s2.2,0.2,2.6-1.3c0.1-0.2,0-0.5,0-0.6c0,0,0,0,0,0c0,0,0,0,0,0c0,0,0,0,0,0c0,0,0,0,0,0c0,0,0,0,0,0c0,0,0,0,0,0
				c0,0,0,0,0,0c0,0,0,0,0,0c0,0,0,0,0,0c0,0,0,0,0,0c0,0,0,0,0,0c0,0,0,0,0,0c0,0,0,0,0,0c0,0,0,0,0,0c0,0,0,0,0,0c0,0,0,0,0,0
				c0,0,0,0,0,0c0,0,0,0,0,0c0,0,0,0,0,0c0,0,0,0,0,0c-0.3-1-1.8-1.5-1.8-1.5s-0.1,1-0.2,1.6C-246.3,413.9-246.6,415.1-246.6,415.1
				C-246.6,415.1-246.6,415.1-246.6,415.1z"/>
			<path class="st10" d="M-236.4,413.4C-236.4,413.4-236.4,413.4-236.4,413.4C-236.4,413.4-236.4,413.4-236.4,413.4
				C-236.4,413.4-236.4,413.4-236.4,413.4C-236.4,413.4-236.4,413.4-236.4,413.4C-236.4,413.4-236.4,413.4-236.4,413.4
				C-236.4,413.4-236.4,413.5-236.4,413.4C-236.4,413.5-236.4,413.5-236.4,413.4C-236.4,413.5-236.4,413.5-236.4,413.4
				C-236.4,413.5-236.4,413.5-236.4,413.4C-236.4,413.5-236.4,413.5-236.4,413.4C-236.4,413.5-236.4,413.5-236.4,413.4
				C-236.4,413.5-236.4,413.5-236.4,413.4C-236.4,413.5-236.4,413.5-236.4,413.4C-236.4,413.5-236.4,413.5-236.4,413.4
				C-236.4,413.5-236.4,413.5-236.4,413.4C-236.4,413.5-236.4,413.5-236.4,413.4C-236.4,413.5-236.4,413.5-236.4,413.4
				c0,0.1,0,0.1,0,0.1c0,0,0,0,0,0c0,0,0,0,0,0c0,0,0,0,0,0c0,0,0,0,0,0c0,0,0,0,0,0c0,0,0,0,0,0c0,0,0,0,0,0c0,0,0,0,0,0
				c0,0,0,0,0,0c0,0,0,0,0,0c0,0,0,0,0,0c0,0,0,0,0,0c0,0,0,0,0,0c0,0,0,0,0,0c0,0,0,0,0,0c0,0,0,0,0,0c0,0,0,0,0,0c0,0,0,0,0,0
				c0,0,0,0,0,0c0,0,0,0,0,0c0,0,0,0,0,0c0,0,0,0,0,0c0,0,0,0,0,0c0,0,0,0,0,0c0.4,0.3,2.9,1.1,4,0.4c0.4-0.3,0.5-0.6,0.4-0.9
				c0,0,0,0,0,0c0,0,0,0,0,0c0,0,0,0,0,0c0,0,0,0,0,0c0,0,0,0,0,0c0,0,0,0,0,0c0,0,0,0,0,0c0,0,0,0,0,0c0,0,0,0,0,0c0,0,0,0,0,0
				c0,0,0,0,0,0c0,0,0,0,0,0c0,0,0,0,0,0c0,0,0,0,0,0c-0.1-0.6-0.8-1.1-0.8-1.1s-1.4,0.3-1.9,0.5
				C-235.1,412.7-236.4,413.4-236.4,413.4z"/>
		</g>
		<g>
			<path class="st11" d="M-250.7,406.6c-1.6,0.1-2.8,1-2.7,2c0.1,1,1.3,1.6,3.2,1.4c1.9-0.2,2.6-1.4,2.5-2.2
				C-247.9,407.1-248.8,406.6-250.7,406.6z"/>
			<path class="st11" d="M-240.3,407.7c-1.5-0.5-3-0.5-3.4,0.6c-0.4,1.2,0.6,2,2.1,2.6c1.5,0.6,2.7-0.3,3-0.9
				C-238.4,409.5-238.5,408.4-240.3,407.7z"/>
			<path class="st11" d="M-240.4,416.4c-2.1-0.3-4.5,2.4-0.5,3.2C-237.3,420.2-237,416.9-240.4,416.4z"/>
			<path class="st11" d="M-232.9,415.6c-2.1-0.2-3.4,0.7-3.4,1.4c0,0.7,0.4,1.7,3.1,2c2.7,0.3,2.9-1.4,2.9-1.7
				C-230.2,416.9-230.6,415.8-232.9,415.6z"/>
			<path class="st11" d="M-248.7,424.4c0,0,5-0.2,5.1,2.4c0.1,2.6-4.8,2.5-6,2.1c0,0,0.2-1,0.5-1.5
				C-248.9,426.9-248.6,424.8-248.7,424.4z"/>
			<path class="st11" d="M-249.1,424.4c0,0-0.1,1.4-0.5,2.2s-0.6,2.1-0.6,2.1s-0.8-0.7-0.7-1.9
				C-250.8,425.6-249.9,424.6-249.1,424.4z"/>
			<path class="st11" d="M-247.7,419.6c0,0-0.2,1.5-0.3,2c-0.2,0.4-0.3,1.1-0.3,1.1s2.5,0.4,2.7-1.4
				C-245.4,419.8-247.7,419.6-247.7,419.6z"/>
			<path class="st11" d="M-248.1,419.6c0,0-0.2,1.3-0.4,1.8c-0.2,0.4-0.2,1.4-0.2,1.4s-1.9,0.2-1.7-1.6
				C-250.3,419.8-248.6,419.6-248.1,419.6z"/>
			<path class="st11" d="M-255.8,422.9c-1.7-0.3-3.5-0.4-4,1.6c-0.5,2,1.8,2.8,2.8,2.9c1,0.1,2.4-0.5,2.6-2.2
				C-254.2,423.9-254.8,423.1-255.8,422.9z"/>
			<path class="st11" d="M-255.5,416c-1.4,0-2.7,1-2.6,1.9s1.1,1.6,2.8,1.6c1.6,0,2.4-1,2.4-2S-254.1,416.1-255.5,416z"/>
			<path class="st11" d="M-261.6,417.3c-1.9,0.1-2.6,1.5-2.6,2.3c0,0.8,0.6,1.7,2.8,1.6c2.2-0.1,2.6-1.6,2.4-2.5
				C-259.1,417.9-260.2,417.2-261.6,417.3z"/>
			<path class="st11" d="M-258.9,410.4c0,0,0.7,0.9,1.3,1.1c0.6,0.2,1.6,1,1.7,1.1c0.1,0.1-2,1.7-3.4,0.6S-258.9,410.4-258.9,410.4z
				"/>
			<path class="st11" d="M-258.5,410.2c0,0,0.6,0.8,1.1,1.1c0.5,0.2,1.7,0.8,1.8,1.1c0,0,1-1-0.3-2.2
				C-257.1,409.1-258.5,410.2-258.5,410.2z"/>
			<path class="st11" d="M-246.4,411.6c0,0-0.7,2.5-0.8,3.4c0,0-1.9-0.6-1.4-2.3C-248.3,411.3-246.6,411.6-246.4,411.6z"/>
			<path class="st11" d="M-246.6,415.1c0,0,0.3-1.3,0.5-1.9c0.2-0.6,0.2-1.6,0.2-1.6s2.2,0.6,1.8,2.1S-246.6,415.1-246.6,415.1z"/>
			<path class="st11" d="M-233.3,411.6c0,0-1.6-0.7-2.8-0.2c-1.2,0.5-0.8,1.5-0.7,1.7c0,0,1.1-0.8,1.7-0.9
				C-234.5,411.9-233.3,411.6-233.3,411.6z"/>
			<path class="st11" d="M-236.4,413.4c0,0,1.3-0.7,1.8-1c0.5-0.3,1.9-0.5,1.9-0.5s1.5,1.2,0.4,1.9
				C-233.5,414.5-236,413.8-236.4,413.4z"/>
			<path class="st11" d="M-238.3,423.2c0,0,1.6-1,3.2-0.3c1.7,0.7,1.5,2.1,0.9,2.7c0,0-1.7-1.2-2.2-1.3
				C-236.9,424.4-238.3,423.2-238.3,423.2z"/>
			<path class="st11" d="M-238.5,423.6c0,0,1.2,1,1.7,1.2c0.5,0.2,2,1.1,2.1,1.2c0.1,0.2-2.8,1-3.7,0
				C-239.9,424.6-238.5,423.6-238.5,423.6z"/>
		</g>
		<path class="st12" d="M-255,418.6c-0.1-0.2-0.4-0.3-0.6-0.3c-0.1-0.1-0.3,0-0.5,0c-0.1,0.1-0.2,0.1-0.2,0.3c0,0,0,0.1,0,0.1
			c0,0.1,0.1,0.3,0.2,0.3c0,0,0.1,0,0.1,0c0.2,0.1,0.4,0.1,0.6,0C-255.1,419.1-254.9,418.9-255,418.6z"/>
		<path class="st12" d="M-254.7,417.7C-254.7,417.7-254.7,417.7-254.7,417.7C-254.7,417.7-254.8,417.7-254.7,417.7
			c0-0.1-0.1-0.1-0.1-0.2c-0.1-0.1-0.2,0-0.4,0c-0.1,0.1-0.1,0.2,0,0.3c0.1,0.1,0.3,0.2,0.5,0.1
			C-254.7,417.9-254.7,417.8-254.7,417.7z"/>
		<path class="st12" d="M-256,417.3c-0.1-0.3-0.5-0.3-0.7-0.3c-0.2,0-0.6,0.1-0.6,0.4c0,0.4,0.7,0.7,1.1,0.5c0.1,0,0.1-0.1,0.1-0.2
			C-256,417.6-255.9,417.5-256,417.3z"/>
		<path class="st12" d="M-254,416.6C-254,416.6-254,416.6-254,416.6C-254.1,416.6-254.1,416.6-254,416.6
			C-254.1,416.6-254.1,416.6-254,416.6c-0.1,0-0.1,0-0.1,0c0,0,0,0,0,0c0-0.1-0.1-0.1-0.2-0.1c-0.1,0-0.1,0.1-0.1,0.2
			c0,0.1,0,0.2,0.1,0.2c0.1,0,0.2,0.1,0.3,0C-253.9,416.9-253.8,416.7-254,416.6z"/>
		<path class="st12" d="M-259.9,418.3c-0.1-0.2-0.3-0.2-0.5-0.3c-0.3-0.1-0.6-0.1-0.9,0.1c-0.4,0.3-0.2,0.8,0.2,1
			c0.3,0.1,0.7,0.1,0.9,0C-259.9,418.9-259.7,418.5-259.9,418.3z"/>
		<path class="st12" d="M-261.7,419.3c-0.1-0.1-0.2-0.1-0.3-0.1c0,0,0,0,0,0c0,0-0.1,0-0.1,0c-0.2,0.1-0.2,0.4,0,0.4
			c0.1,0,0.2,0,0.3-0.1C-261.7,419.5-261.7,419.4-261.7,419.3z"/>
		<path class="st12" d="M-261.8,419.9c-0.2-0.1-0.4-0.1-0.6-0.1c-0.2,0-0.3,0-0.4,0.1c0,0-0.1,0-0.1,0c-0.2,0.1-0.3,0.3-0.2,0.5
			c0.1,0.4,0.7,0.6,1.1,0.6c0.2,0,0.5-0.1,0.5-0.3C-261.5,420.3-261.6,420.1-261.8,419.9z"/>
		<path class="st12" d="M-262.5,418.4c-0.2-0.3-0.6-0.3-0.8,0c-0.1,0.2,0,0.4,0.3,0.4c0.1,0,0.1,0,0.2,0
			C-262.6,418.9-262.4,418.6-262.5,418.4z"/>
		<path class="st12" d="M-257.1,412.3c0,0-0.1,0-0.1,0C-257.2,412.3-257.2,412.3-257.1,412.3c-0.1,0-0.2,0-0.3,0
			c-0.1,0-0.2,0-0.3,0.1c0,0,0,0,0,0c-0.1,0-0.2,0-0.3,0c-0.1,0.1-0.2,0.2-0.2,0.4c0,0.3,0.3,0.5,0.5,0.5c0.3,0.1,0.9-0.1,1-0.5
			C-256.6,412.6-256.8,412.4-257.1,412.3z"/>
		<path class="st12" d="M-258.3,411.5c-0.1-0.1-0.3-0.1-0.4,0c-0.2,0.1-0.1,0.4,0,0.5c0,0,0,0.1,0.1,0.1c0.1,0.1,0.4,0,0.4-0.1
			C-258.1,411.8-258.2,411.6-258.3,411.5z"/>
		<path class="st12" d="M-258.9,412.5c-0.1-0.1-0.2-0.2-0.3-0.2c-0.3,0-0.4,0.3-0.2,0.4c0,0,0.1,0,0.1,0.1
			C-259,413-258.8,412.7-258.9,412.5z"/>
		<path class="st12" d="M-256.1,410.5c0-0.1-0.2-0.2-0.3-0.3c-0.2-0.1-0.5-0.2-0.6-0.1c-0.2,0.1-0.3,0.2-0.3,0.3
			c-0.1,0.2,0.1,0.4,0.3,0.5c0,0,0.1,0.1,0.1,0.1c0.2,0.1,0.5,0.1,0.7-0.1C-256.1,410.9-256.1,410.7-256.1,410.5z"/>
		<path class="st12" d="M-256.1,411.2C-256.1,411.2-256.1,411.2-256.1,411.2c-0.2,0.1-0.1,0.3,0,0.4c0,0,0,0,0,0
			c0.2,0.1,0.4,0,0.4-0.2C-255.7,411.2-255.9,411.1-256.1,411.2z"/>
		<path class="st12" d="M-256.3,426.3c-0.1-0.2-0.4-0.3-0.6-0.3c-0.1-0.1-0.3-0.1-0.5-0.1c-0.2,0-0.3,0.2-0.4,0.4
			c-0.1,0.4,0.2,0.6,0.5,0.7C-256.8,427.2-256,426.9-256.3,426.3z"/>
		<path class="st12" d="M-258,424.4c-0.1-0.1-0.3-0.1-0.5-0.1c-0.1,0-0.3,0.1-0.4,0.2c-0.1,0.1-0.1,0.3,0.1,0.4c0,0,0,0,0,0
			c0,0.1,0.1,0.2,0.2,0.3c0.2,0.1,0.4,0,0.5-0.1C-257.8,424.8-257.9,424.6-258,424.4z"/>
		<path class="st12" d="M-255.7,423.3c-0.3-0.1-0.6,0-0.9,0.2c-0.2,0.1-0.3,0.3-0.2,0.5c0,0.1,0.1,0.2,0.2,0.3
			c0.1,0.1,0.2,0.2,0.3,0.2c0.2,0.1,0.4,0.1,0.6,0c0,0,0,0,0,0c0.2,0,0.4-0.2,0.5-0.4C-255,423.7-255.4,423.4-255.7,423.3z"/>
		<path class="st12" d="M-256.7,424.7c0,0-0.1,0-0.1,0c-0.1,0-0.1,0-0.2,0.1c0,0.1,0,0.2,0.1,0.2c0,0,0.1,0,0.1,0
			c0.1,0,0.2-0.1,0.2-0.2C-256.6,424.8-256.6,424.7-256.7,424.7z"/>
		<path class="st12" d="M-245,426c0-0.1-0.1-0.2-0.2-0.3c-0.1-0.1-0.1-0.1-0.2-0.1c0,0,0,0,0,0c-0.3-0.2-0.8-0.4-1.1-0.1
			c-0.1,0-0.2,0.1-0.3,0.1c0,0-0.1,0-0.1,0c-0.2,0.1-0.3,0.2-0.2,0.4c0,0,0,0.1,0,0.1c0,0.3,0.4,0.6,0.6,0.7c0.2,0.1,0.3,0.1,0.5,0
			c0,0,0,0,0.1,0c0.2,0,0.3,0,0.5,0c0.2-0.1,0.3-0.2,0.4-0.4C-245,426.2-245,426.1-245,426z"/>
		<path class="st12" d="M-247.6,426.9c-0.1-0.1-0.2-0.1-0.4-0.1c-0.1,0-0.2,0.2-0.1,0.3c0,0.1,0.1,0.2,0.2,0.2c0.1,0.1,0.2,0,0.3,0
			c0,0,0,0,0,0C-247.5,427.2-247.5,427-247.6,426.9z"/>
		<path class="st12" d="M-249.6,425.6c0-0.1-0.1-0.1-0.2-0.2c0,0,0,0-0.1-0.1c-0.2-0.1-0.4,0-0.5,0.1c-0.1,0.1-0.1,0.3,0,0.4
			c0.1,0.1,0.3,0.1,0.5,0.2c0.1,0,0.2-0.1,0.3-0.2C-249.5,425.8-249.5,425.7-249.6,425.6z"/>
		<path class="st12" d="M-245.5,427.9c-0.1-0.3-0.5-0.2-0.7-0.2c-0.1,0-0.4,0.1-0.6,0.3c-0.1,0-0.2,0.1-0.2,0.2c0,0.1,0,0.1,0,0.2
			c0.1,0.3,0.3,0.3,0.6,0.3c0.3,0,0.6,0,0.8-0.1C-245.4,428.4-245.4,428.1-245.5,427.9z"/>
		<path class="st12" d="M-248,424.7C-248,424.7-248,424.7-248,424.7c-0.1,0-0.2,0-0.3,0c0,0,0,0-0.1,0c-0.1,0.1-0.1,0.2-0.1,0.3
			c0,0.2,0.3,0.3,0.5,0.2C-247.7,425.1-247.8,424.7-248,424.7z"/>
		<path class="st12" d="M-248.8,422c-0.1-0.4-0.7-0.6-1-0.2c-0.1,0.2-0.1,0.4,0,0.5c0.1,0.1,0.2,0.1,0.3,0.2
			c0.2,0.1,0.3,0.1,0.5-0.1C-248.8,422.3-248.8,422.1-248.8,422z"/>
		<path class="st12" d="M-249.3,421c0-0.2-0.2-0.2-0.3-0.2c-0.1,0-0.2,0.1-0.3,0.2c0,0.1,0,0.3,0.2,0.3c0,0,0,0,0,0
			c0.1,0.1,0.3,0.1,0.4,0C-249.3,421.2-249.3,421.1-249.3,421z"/>
		<path class="st12" d="M-248.5,420.1c0-0.2-0.3-0.2-0.4-0.1c0,0-0.1,0.1-0.1,0.2c0,0,0,0.1,0,0.1c0,0.1,0.1,0.1,0.2,0.2l0,0
			C-248.6,420.4-248.5,420.3-248.5,420.1z"/>
		<path class="st12" d="M-246.6,421.8c-0.2-0.1-0.4-0.1-0.6-0.1c-0.2,0-0.4,0.1-0.5,0.2c-0.1,0.2,0.1,0.5,0.3,0.5c0.1,0,0.2,0,0.2,0
			c0.2,0,0.3,0,0.4-0.1C-246.5,422.2-246.4,421.9-246.6,421.8z"/>
		<path class="st12" d="M-247.4,420.6c-0.2,0-0.2,0.4,0,0.4C-247.1,421-247.1,420.6-247.4,420.6z"/>
		<path class="st12" d="M-245,414.2c-0.3-0.2-0.8-0.1-1.1,0.1c-0.1,0.2-0.1,0.4,0.1,0.5c0.1,0.1,0.3,0.1,0.5,0.1c0,0,0.1,0,0.1,0
			c0.2,0,0.3-0.1,0.5-0.2C-244.7,414.5-244.8,414.3-245,414.2z"/>
		<path class="st12" d="M-245.4,413.1c0,0-0.1,0-0.1,0c0,0-0.1,0-0.1,0c-0.1,0-0.2,0.1-0.1,0.2c0.1,0.1,0.3,0.2,0.4,0.1
			C-245.2,413.3-245.2,413.1-245.4,413.1z"/>
		<path class="st12" d="M-246.9,412.1c-0.2-0.1-0.3-0.2-0.5-0.2c-0.1,0-0.2,0.1-0.3,0.2c-0.1,0.1,0,0.2,0,0.3
			c0.1,0.2,0.3,0.3,0.5,0.2c0.1,0,0.1,0,0.2,0C-246.8,412.6-246.7,412.3-246.9,412.1z"/>
		<path class="st12" d="M-248,412.7C-248.1,412.7-248.1,412.7-248,412.7c-0.2,0-0.3,0.1-0.3,0.3c0,0,0,0,0,0c0,0.2,0.3,0.3,0.5,0.2
			C-247.7,413-247.8,412.7-248,412.7z"/>
		<path class="st12" d="M-249.2,408.7c-0.3-0.2-0.9-0.1-1.1,0.2c-0.1,0.2-0.1,0.4,0.1,0.5c0.1,0,0.2,0.1,0.3,0.1
			c0.3,0.1,0.7,0,0.8-0.2C-249,409-249,408.8-249.2,408.7z"/>
		<path class="st12" d="M-250.8,408.5c-0.1-0.2-0.3-0.3-0.4-0.2c0,0,0,0-0.1,0c-0.1,0-0.1,0.1-0.2,0.1c-0.1,0.3,0.2,0.6,0.5,0.4
			C-250.8,408.9-250.7,408.7-250.8,408.5z"/>
		<path class="st12" d="M-249,407.3c-0.3-0.1-0.6-0.1-0.8-0.1c-0.3,0-0.8,0.2-0.5,0.6c0,0.1,0.1,0.1,0.2,0.1
			c0.1,0.2,0.4,0.3,0.6,0.3c0.3,0.1,0.6,0.1,0.8-0.2C-248.6,407.8-248.7,407.4-249,407.3z"/>
		<g>
			<path class="st12" d="M-252,407.6c-0.1,0-0.2,0-0.3,0c-0.1,0-0.2,0-0.2,0.1c0,0-0.1,0.1-0.1,0.1c0,0,0,0.1,0,0.1
				c-0.1,0.1-0.1,0.2,0,0.3c0.1,0.1,0.3,0.1,0.5,0.2c0.2,0.1,0.5,0,0.6-0.2C-251.4,407.9-251.7,407.6-252,407.6z"/>
			<path class="st12" d="M-252.5,407.7C-252.5,407.7-252.5,407.7-252.5,407.7C-252.5,407.7-252.5,407.7-252.5,407.7z"/>
		</g>
		<path class="st12" d="M-241.6,409.7c-0.1-0.2-0.2-0.3-0.4-0.4c-0.1,0-0.2-0.1-0.3-0.1c-0.2,0-0.5,0-0.6,0.3c0,0.2,0.1,0.4,0.3,0.5
			c0,0,0.1,0,0.1,0c0.2,0.1,0.3,0.2,0.5,0.2C-241.7,410.2-241.5,409.9-241.6,409.7z"/>
		<path class="st12" d="M-242.2,408.5c-0.1-0.1-0.3-0.2-0.5-0.1c-0.1,0-0.1,0.1-0.1,0.2c0,0,0,0.1,0,0.1c0.1,0.1,0.2,0.1,0.3,0.1
			C-242.3,408.9-242.1,408.6-242.2,408.5z"/>
		<path class="st12" d="M-239,408.9c-0.2-0.4-1-0.7-1.4-0.5c-0.2,0.1-0.3,0.3-0.2,0.5c0.2,0.2,0.4,0.4,0.6,0.6
			c0.2,0.1,0.6,0.3,0.8,0c0,0,0-0.1,0-0.1C-239,409.2-239,409-239,408.9z"/>
		<path class="st12" d="M-240.8,409.5C-240.8,409.5-240.8,409.5-240.8,409.5c-0.1,0.1-0.1,0.2-0.1,0.2c0.1,0.1,0.2,0.1,0.2,0
			C-240.5,409.6-240.6,409.4-240.8,409.5z"/>
		<path class="st12" d="M-241.2,418.4c-0.1-0.2-0.2-0.3-0.4-0.4c-0.1,0-0.1-0.1-0.2-0.1c-0.3-0.2-0.6,0-0.7,0.3
			c-0.1,0.3,0.1,0.5,0.4,0.6c0.2,0.1,0.4,0.1,0.6,0.1C-241.2,418.8-241.1,418.6-241.2,418.4z"/>
		<path class="st12" d="M-241.4,417.4c0-0.1-0.1-0.2-0.2-0.2c-0.1,0-0.1,0-0.2,0c0,0-0.1,0-0.1,0.1c-0.1,0-0.2,0.2-0.1,0.3
			c0,0,0.1,0.1,0.1,0.1c0,0,0.1,0,0.1,0.1C-241.5,417.7-241.3,417.6-241.4,417.4C-241.4,417.4-241.4,417.4-241.4,417.4z"/>
		<path class="st12" d="M-239,418.5c-0.2-0.5-1-0.9-1.5-0.6c-0.1,0.1-0.2,0.2-0.1,0.4c0.2,0.6,1,1,1.5,0.5c0,0,0,0,0,0
			C-239,418.8-238.9,418.6-239,418.5z"/>
		<path class="st12" d="M-238.7,417.7C-238.7,417.7-238.7,417.6-238.7,417.7c-0.2-0.1-0.3,0-0.4,0.1c0,0.1,0,0.1,0,0.2
			c0,0.1,0.1,0.1,0.1,0.1c0.1,0.1,0.3,0,0.3-0.1C-238.5,417.9-238.5,417.7-238.7,417.7z"/>
		<path class="st12" d="M-240.6,416.8c-0.1,0-0.2,0.1-0.2,0.2c0,0,0,0.1,0,0.1c0,0.1,0.2,0.2,0.3,0.2c0,0,0,0,0,0
			c-0.1,0,0.1,0,0.1,0c0.1,0,0.2,0,0.2,0.1c0.2,0,0.4-0.1,0.3-0.3C-240,416.8-240.3,416.7-240.6,416.8z"/>
		<path class="st12" d="M-234.2,417.6c-0.1-0.4-0.6-0.6-0.9-0.5c-0.4,0.1-0.5,0.6-0.2,0.9c0.1,0.1,0.4,0.1,0.6,0.1
			c0.1,0,0.1,0,0.2,0C-234.4,418-234.2,417.8-234.2,417.6z"/>
		<path class="st12" d="M-234.2,416.3c-0.1,0-0.1,0-0.2,0.1c0,0,0,0,0,0c-0.1,0-0.2,0.1-0.2,0.3c0.1,0.2,0.4,0.3,0.6,0
			C-233.9,416.5-234,416.3-234.2,416.3z"/>
		<path class="st12" d="M-231.5,417.7c-0.4-0.4-1.4-0.4-1.7,0.1c-0.2,0.3,0.1,0.7,0.4,0.9c0.2,0.1,0.4,0.1,0.6,0
			c0.2-0.1,0.4-0.2,0.6-0.3c0.1,0,0.1-0.1,0.1-0.2C-231.4,417.9-231.4,417.8-231.5,417.7z"/>
		<path class="st12" d="M-231,416.6c-0.2-0.1-0.5-0.2-0.6,0c0,0,0,0.1-0.1,0.1c0,0.1,0,0.2,0.1,0.3c0.1,0.1,0.3,0.1,0.5,0
			C-230.9,417-230.8,416.7-231,416.6z"/>
		<path class="st12" d="M-233.3,415.9c-0.1,0-0.1,0.2-0.1,0.3c0.1,0.1,0.2,0.1,0.3,0.2c0.2,0.1,0.4,0.1,0.5-0.1
			C-232.5,415.9-233,415.8-233.3,415.9z"/>
		<path class="st12" d="M-236.1,425.7c-0.2-0.3-0.6-0.2-0.9-0.2c-0.2,0-0.3,0.2-0.3,0.4c0.1,0.2,0.3,0.3,0.5,0.3c0,0,0.1,0,0.1,0
			c0.1,0,0.2,0,0.3,0C-236.1,426.2-236,425.9-236.1,425.7z"/>
		<path class="st12" d="M-237.4,424.9C-237.4,424.9-237.4,424.9-237.4,424.9c-0.1-0.1-0.2-0.1-0.3,0c-0.1,0.1-0.1,0.2,0,0.3
			c0,0,0.1,0.1,0.2,0.1C-237.2,425.4-237.1,425-237.4,424.9z"/>
		<path class="st12" d="M-235.2,423.7c-0.2-0.3-0.7-0.2-1-0.2c-0.3,0-0.4,0.4-0.2,0.6c0.2,0.1,0.3,0.2,0.5,0.3
			c0.1,0.1,0.3,0.1,0.4,0C-235.3,424.3-235,424-235.2,423.7z"/>
		<path class="st12" d="M-234.4,424c-0.1,0-0.1,0-0.2,0c-0.1,0.1-0.1,0.2,0,0.3c0,0,0,0,0,0c0.1,0,0.1,0.1,0.2,0
			C-234.1,424.3-234.2,424-234.4,424z"/>
		<path class="st12" d="M-238.4,424.8C-238.4,424.8-238.4,424.8-238.4,424.8C-238.4,424.8-238.4,424.8-238.4,424.8
			C-238.4,424.8-238.4,424.8-238.4,424.8C-238.4,424.8-238.4,424.8-238.4,424.8c0.1-0.1,0.1-0.2,0-0.3c-0.1-0.1-0.2-0.1-0.3-0.1
			c-0.3,0.1-0.3,0.7,0.1,0.7C-238.4,425.1-238.3,425-238.4,424.8C-238.4,424.8-238.4,424.8-238.4,424.8z"/>
		<path class="st12" d="M-234.2,413.3c-0.2-0.1-0.5-0.2-0.7-0.1c-0.1,0-0.2,0.1-0.2,0.2c0,0,0,0,0,0.1c0,0.1,0,0.2,0.1,0.2
			c0.3,0.2,0.6,0.3,0.9,0.2C-233.9,413.7-234,413.4-234.2,413.3z"/>
		<path class="st12" d="M-233.6,412.8c0-0.2-0.2-0.3-0.3-0.2c-0.2,0.1-0.2,0.2-0.1,0.4c0,0,0,0,0,0
			C-233.9,413.1-233.6,413-233.6,412.8C-233.6,412.8-233.6,412.8-233.6,412.8z"/>
		<path class="st12" d="M-235.9,411.9c0,0-0.1,0-0.1,0c-0.1,0-0.1,0-0.2,0c0,0-0.1,0-0.1,0c0,0,0,0,0,0c-0.1,0-0.1,0-0.2,0.1
			c-0.1,0.1,0,0.3,0.1,0.4c0.1,0,0.2,0.1,0.4,0C-235.7,412.3-235.7,412-235.9,411.9z"/>
		<path class="st12" d="M-232.6,413c-0.2-0.1-0.4-0.1-0.6,0c0,0-0.1,0.1-0.1,0.1c0,0,0,0-0.1,0.1c0,0.1-0.1,0.2,0,0.2
			c0.1,0.1,0.2,0.2,0.3,0.2c0.2,0.1,0.5,0,0.6-0.2C-232.4,413.2-232.4,413.1-232.6,413z"/>
		<path class="st12" d="M-234.6,411.4c-0.2-0.2-0.6-0.1-0.7,0.1c0,0.1,0,0.1,0.1,0.1c0.1,0,0.2,0.1,0.3,0.1c0.1,0,0.3,0.1,0.4,0
			C-234.5,411.6-234.5,411.5-234.6,411.4z"/>
	</g>
	<g>
		<path class="st13" d="M-249,411.8c0,0,0.1-0.5,0-0.7c-0.1-0.2-3.3-1-4.1,1.5c0,0,0.2,0.3,0.3,0.3c0,0,0.4-1.5,1.7-1.6
			S-249,411.8-249,411.8z"/>
		<path class="st13" d="M-238.2,411.2c0,0,2.1-2.1,4.6-0.3c0,0,0.2-0.5,0-0.7c0,0-2.4-1.3-4.7,0.5
			C-238.3,410.6-238.3,410.9-238.2,411.2z"/>
		<path class="st13" d="M-242.2,411.3c0,0,0.9,2.4,4.2,1.6c0,0-0.1,0.6-0.3,0.7c-0.1,0.1-1.9,0.1-2.9-0.5c-0.9-0.6-1.4-1.3-1.5-1.4
			C-242.7,411.5-242.2,411.3-242.2,411.3z"/>
		<path class="st13" d="M-247.7,409.9c0,0,0.9,0.6,1.7,0.5c0,0-0.1,0.4-0.2,0.5c-0.1,0.1-1.7-0.4-1.9-0.5L-247.7,409.9z"/>
		<path class="st13" d="M-245.7,410.4c0,0-0.2,0.5-0.1,0.6c0,0,2-0.5,2.1-0.6c0.1-0.2,0-0.5,0-0.5S-245,410.6-245.7,410.4z"/>
		<path class="st13" d="M-240.3,420.7c0,0,0.2,0.7,0.4,0.7c0.2,0.1,3.3-0.6,3.6-3.3c0,0-0.3-0.2-0.8,0c0,0,0.1,1.3-0.6,1.8
			C-238.6,420.7-240,420.5-240.3,420.7z"/>
		<path class="st13" d="M-249.7,415.1c0,0-2.1-0.5-2.2,2.2l-0.4,0c0,0-0.4-2.2,2.6-2.9V415.1z"/>
		<path class="st13" d="M-259.4,416l0.3,0.2c0,0,0.4-1.2,1.5-1.8c1-0.6,2.6,0.2,2.6,0.2v-0.5C-255,414.1-258.2,413.2-259.4,416z"/>
		<path class="st13" d="M-253.4,421.2c0.2-0.1,1.3-0.1,1.3,0s-0.3,0.4-0.3,0.4s-1.2,0.1-1.4,0C-253.8,421.5-253.4,421.2-253.4,421.2
			z"/>
		<path class="st13" d="M-249.1,423.1l-0.1,0.4c0,0-1.9-0.2-3,0.7c-1.1,0.9-1.1,2.6-1.1,2.6l-0.6-0.2c0,0,0.2-1.7,1.4-2.7
			C-251.4,422.9-249.1,423.1-249.1,423.1z"/>
		<path class="st13" d="M-257.2,428.7l-0.2-0.4c0,0,3.3-1.8,4.9,0.4l-0.2,0.5C-252.7,429.2-254,426.8-257.2,428.7z"/>
		<path class="st13" d="M-245.4,423.1c0,0,2.3,0.7,4.1-1.1l0.4,0.4c0,0-1,1.4-4.4,1.3L-245.4,423.1z"/>
		<path class="st13" d="M-241.1,424.4l0.6,0.2c0,0-0.6,1.6-2.1,2C-242.6,426.6-241.4,425.8-241.1,424.4z"/>
		<path class="st13" d="M-242,429.2c0,0,1.5-4,5.1-1.8l-0.3,1C-237.2,428.4-239.5,425.6-242,429.2z"/>
		<path class="st13" d="M-247.7,416c0,0,2.7-0.8,3.3,1.8c0,0-0.4,0.4-0.6,0.3c-0.2,0,0-0.9-1-1.5c-1-0.7-1.4,0.1-1.7,0.1
			C-247.7,416.7-247.9,416.3-247.7,416z"/>
		<path class="st13" d="M-261.6,411.6c0,0,1.5,3.7-2.9,4.5c0,0-0.3-0.1-0.2-0.5c0,0,3.8-0.2,2.9-3.9
			C-261.8,411.7-261.8,411.5-261.6,411.6z"/>
		<path class="st13" d="M-233.3,422.2c0,0,3.1,0.1,4.5-2.4c0,0,0.6,0.3,0.7,0.5C-228,420.3-229.7,423-233.3,422.2z"/>
	</g>
	<g>
		<defs>
			<path id="SVGID_1_" d="M-246.2,403.9c0.6-0.2,1.2,0.5,1.2,0.5c1.1-0.5,4.9,0.5,7.8,1.1c2.9,0.6,7.4,4,7.4,4
				c0.9,0.2,1.8,1.1,3.8,3.3c2,2.3,2.8,6.5,1.8,10.6c-1.1,4.1-5.4,6.5-5.4,6.5c-0.2,0.4-1.8,1.4-4.2,2.7c-2.4,1.2-9.3,2.6-11.8,2.7
				c-2.5,0.1-5.3-0.9-5.3-0.9c-1.5,0.3-6.2-1.6-8-2.4c-1.8-0.8-4.9-2.7-6.1-3.7c-1.1-1.1-1.4-2.3-1.4-2.3c-1.7-2-2.7-5.3-2.6-8.4
				c0.1-3.1,2.7-6.5,3.8-7.3c1.1-0.8,3.4-2.6,3.4-2.6c0.4-1.2,3.9-2.4,4.9-2.8c1.1-0.5,4.2-0.9,5.6-0.9
				C-249.8,403.8-247,404.1-246.2,403.9z M-262,426.8c0.6,0.6,2,1.5,3.2,2c1.2,0.5,3,1.9,4.3,2c1.3,0.1,4.1,0.8,4.1,0.8
				c0.6-0.4,3.4,0.5,4.9,0.3c1.5-0.2,6.4-0.9,7.6-1.4c1.2-0.5,2.8-1.5,3.6-1.8c0.8-0.3,2.7-1.1,2.7-1.1c0.4-0.7,3-2.5,4.4-5
				c1.4-2.5-0.2-6.6-1-8c-0.8-1.3-3.3-3.7-3.3-3.7c-0.5-0.1-2.9-2-4.4-2.6s-4.5-1.3-5.4-1.6s-2.4-0.7-3.1-0.7
				c-0.7,0-0.8-0.3-0.8-0.3c-0.7,0.3-2.9-0.1-4,0c-1.1,0.1-3.8-0.1-4.9,0.3c-1.1,0.4-2.2,0.6-2.2,0.6c-0.6,0.7-2.1,1.4-2.7,1.9
				c-0.6,0.5-0.9,0.3-0.9,0.3s-0.2,0.3-1.2,0.8c-1,0.5-3,2.5-3.9,3.8c-0.9,1.3-1.8,4.6-1.4,6.4c0.3,1.8,2.2,4.8,2.2,4.8
				C-263.5,424.5-262.5,426.2-262,426.8z"/>
		</defs>
		<use xlink:href="#SVGID_1_"  style="overflow:visible;fill:#F9D67D;"/>
		<clipPath id="SVGID_2_">
			<use xlink:href="#SVGID_1_"  style="overflow:visible;"/>
		</clipPath>
		<path class="st14" d="M-223.5,416.2c-0.2-1.5-0.9-3.7-2.1-4.7c-0.2-0.2-0.5,0-0.4,0.3c0.2,0.8,0.6,1.5,1,2.2
			c0.4,0.8,0.6,1.7,0.8,2.6c0.2,1.6,0.2,3.2-0.1,4.9c-0.3,1.7-1.1,3.3-2.1,4.6c-0.9,1.2-2.2,2.1-3.2,3.3c0,0-0.1,0-0.1,0.1
			c-1.5,1.1-3,2.1-4.6,2.9c-1.7,0.7-3.4,1.2-5.2,1.5c-1.7,0.3-3.5,0.6-5.2,0.7c-1,0.1-2-0.1-3-0.3c-0.8-0.2-1.7-0.5-2.5-0.5
			c0,0-0.1-0.1-0.2-0.1c-1.5-0.2-2.9-0.3-4.3-0.8c-1.5-0.4-2.9-1-4.3-1.7c-1.4-0.7-2.7-1.4-3.9-2.3c-1.2-0.9-2.1-2-2.9-3.2
			c-0.1-0.2-0.4,0-0.4,0.2c0.7,2.8,3.8,4.6,6.2,5.9c2.8,1.5,6.4,2.9,9.6,2.8c0.1,0,0.1,0,0.2,0c1.7,0.7,3.5,1.1,5.3,1.1
			c1.9,0,3.9-0.4,5.8-0.8c3.8-0.7,7.4-2.1,10.3-4.7c0.1-0.1,0.1-0.2,0.1-0.3c1.4-0.8,2.6-2.1,3.5-3.3c1.1-1.4,1.8-3,2.1-4.8
			C-223.2,419.8-223.3,418-223.5,416.2z"/>
		<path class="st14" d="M-229,414.1c-1.9-3.2-5.5-5.7-9-6.8c-4.1-1.4-8.8-2.3-13.2-2.1c-4.1,0.2-7.9,2.2-11,4.8
			c-2.6,2.2-5.1,5.3-4.4,8.9c0,0.2,0.3,0.2,0.3,0c0.2-1.7,0.5-3.2,1.3-4.6c1-1.7,2.5-3,4-4.2c3-2.4,6.7-3.9,10.5-4
			c3.9-0.1,8.1,0.8,11.9,2c1.9,0.6,3.6,1.5,5.2,2.7c1.4,1.1,2.5,2.6,3.8,3.8C-229.2,414.8-228.8,414.4-229,414.1z"/>
		<g class="st15">
			<g>
				<path class="st16" d="M-256.2,406.8c0,0,0,0,0-0.1c0-0.1,0-0.2-0.1-0.3c0-0.1,0-0.2,0-0.3c0-0.1,0-0.2-0.1-0.4
					c0,0,0.2,0,0.3,0.3c0,0.1,0,0.1,0.1,0.2c0,0.1,0,0.1,0,0.2C-256.1,406.6-256.1,406.7-256.2,406.8z"/>
			</g>
			<g>
				<path class="st16" d="M-259.9,406.1c0,0,0,0,0.1-0.1c0,0,0.1,0,0.1-0.1c0.1,0,0.1,0,0.2,0c0.1,0,0.3,0,0.5,0.1
					c0.2,0.1,0.3,0.3,0.3,0.5c0,0-0.1,0-0.1-0.1c0,0-0.1,0-0.1-0.1c0,0,0,0-0.1,0c0,0-0.1,0-0.1,0
					C-259.4,406.2-259.6,406.2-259.9,406.1z"/>
			</g>
			<g>
				<path class="st16" d="M-254.2,404.2C-254.2,404.2-254.2,404.2-254.2,404.2c0.1,0,0.2,0,0.3,0c0.1,0.1,0.3,0.3,0.2,0.5
					c0,0,0,0-0.1,0c0,0-0.1-0.1-0.2-0.1c0,0-0.1,0-0.1-0.1c0,0,0,0-0.1-0.1C-254.2,404.4-254.2,404.4-254.2,404.2z"/>
			</g>
			<g>
				<path class="st16" d="M-249.3,405.8C-249.3,405.8-249.2,405.8-249.3,405.8c0.1-0.1,0.1-0.2,0.1-0.3c0-0.1,0-0.2,0.1-0.3
					c0-0.1,0.1-0.2,0.1-0.4c0,0,0,0,0,0c0,0,0,0,0.1,0.1c0.1,0.1,0.1,0.2,0.1,0.3c0,0.1,0,0.3-0.1,0.4c0,0.1-0.1,0.1-0.2,0.2
					C-249.1,405.8-249.2,405.8-249.3,405.8z"/>
			</g>
			<g>
				<path class="st16" d="M-243.3,404.3C-243.3,404.3-243.3,404.3-243.3,404.3c0,0.1,0,0.2,0,0.3c0,0.1,0,0.1-0.1,0.2
					c0,0.1-0.1,0.1-0.2,0.2c0,0,0,0,0-0.1c0-0.1-0.1-0.1-0.1-0.2C-243.7,404.5-243.6,404.3-243.3,404.3z"/>
			</g>
			<g>
				<path class="st16" d="M-240.8,406.9c0,0,0,0,0-0.1c0-0.1,0-0.1,0.1-0.2c0.1-0.2,0.1-0.4,0.4-0.7c0,0,0,0,0,0.1
					c0,0.1,0,0.2,0,0.3C-240.3,406.6-240.5,406.9-240.8,406.9z"/>
			</g>
			<g>
				<path class="st16" d="M-240.4,404.8c0,0,0.1,0.1,0.1,0.2c0,0.1,0,0.2-0.2,0.2c0,0-0.1-0.1-0.1-0.2
					C-240.6,404.9-240.6,404.8-240.4,404.8z"/>
			</g>
			<g>
				<path class="st16" d="M-237.8,407.8c0,0,0,0-0.1-0.1c0,0-0.1-0.1-0.1-0.1c0-0.1,0-0.1-0.1-0.2c0-0.2,0-0.3,0-0.5
					c0.1-0.2,0.2-0.4,0.3-0.5c0,0,0,0.1,0,0.2c0,0,0,0.1,0,0.2c0,0.1,0,0.1,0,0.2C-237.7,407.1-237.7,407.4-237.8,407.8z"/>
			</g>
			<g>
				<path class="st16" d="M-233.7,409.7C-233.7,409.7-233.7,409.7-233.7,409.7c-0.1-0.1-0.1-0.1-0.1-0.2c-0.1-0.1-0.1-0.3-0.2-0.5
					c0-0.2,0-0.5,0.1-0.7c0.1-0.1,0.1-0.3,0.3-0.4c0.1-0.1,0.3-0.1,0.4-0.1c0,0,0,0-0.1,0c0,0-0.1,0-0.1,0.1
					c-0.1,0.1-0.2,0.2-0.2,0.4c0,0.2-0.1,0.4-0.1,0.6C-233.7,409.2-233.7,409.4-233.7,409.7z"/>
			</g>
			<g>
				<path class="st16" d="M-227.6,415.5c0,0,0,0,0-0.1c0,0,0-0.1,0-0.2c0-0.1,0-0.1,0.1-0.2c0.1-0.1,0.2-0.3,0.3-0.4
					c0.2-0.1,0.3-0.2,0.6-0.2c0,0,0,0-0.1,0.1c-0.1,0.1-0.1,0.2-0.2,0.3c-0.1,0.1-0.2,0.2-0.3,0.3
					C-227.4,415.3-227.5,415.4-227.6,415.5z"/>
			</g>
			<g>
				<path class="st16" d="M-230.4,412.3c0,0,0,0-0.1-0.1c0,0,0-0.1-0.1-0.2c0-0.1,0-0.1,0-0.2c0-0.2,0.1-0.4,0.2-0.5
					c0.1-0.2,0.3-0.3,0.5-0.3c0,0,0,0.1-0.1,0.1c0,0-0.1,0.1-0.1,0.1c0,0.1-0.1,0.1-0.1,0.2c0,0.1,0,0.1-0.1,0.2
					c0,0.1-0.1,0.1-0.1,0.2C-230.3,411.9-230.4,412.1-230.4,412.3z"/>
			</g>
			<g>
				<path class="st16" d="M-228.8,424.9C-228.8,424.9-228.8,424.9-228.8,424.9c0.1-0.1,0.1-0.1,0.1-0.2c0.1-0.1,0.2-0.3,0.4-0.4
					c0.2-0.1,0.5-0.3,0.8-0.3c0.2,0,0.3,0,0.5,0c0.2,0,0.3,0.1,0.5,0.2c0,0,0,0-0.1,0c0,0-0.1,0-0.2,0c-0.2,0-0.4,0-0.6,0.1
					c-0.2,0.1-0.5,0.2-0.7,0.3C-228.3,424.6-228.5,424.8-228.8,424.9z"/>
			</g>
			<g>
				<path class="st16" d="M-224.1,423c0,0,0-0.1,0-0.1c0,0,0,0,0-0.1c0,0,0,0,0-0.1c0-0.1,0-0.1-0.1-0.2c-0.1-0.1-0.2-0.2-0.3-0.3
					c-0.1-0.1-0.2-0.2-0.4-0.4c0,0,0.1,0,0.2,0c0.1,0,0.1,0,0.2,0c0.1,0,0.1,0.1,0.2,0.1c0.1,0,0.1,0.1,0.2,0.2c0,0,0.1,0.1,0.1,0.1
					c0,0,0,0.1,0.1,0.1C-223.9,422.7-224,422.9-224.1,423z"/>
			</g>
			<g>
				<path class="st16" d="M-227.6,423.4c0,0,0,0,0-0.1c0,0,0-0.1,0.1-0.1c0,0,0.1-0.1,0.1-0.1c0.1-0.1,0.2-0.1,0.4-0.1
					c0.1,0,0.3,0.1,0.4,0.2c0,0,0,0-0.1,0c-0.1,0-0.1,0-0.2,0.1c-0.1,0-0.2,0.1-0.3,0.1C-227.4,423.4-227.5,423.4-227.6,423.4z"/>
			</g>
			<g>
				<path class="st16" d="M-234.2,428.8c0,0,0,0,0.1-0.1c0,0,0.1,0,0.2-0.1c0.1,0,0.1,0,0.2,0c0.2,0,0.4,0.1,0.6,0.2
					c0.2,0.1,0.3,0.3,0.4,0.5c0,0-0.1,0-0.1-0.1c0,0-0.1-0.1-0.2-0.1c-0.1,0-0.1-0.1-0.2-0.1C-233.5,429-233.8,428.9-234.2,428.8z"
					/>
			</g>
			<g>
				<path class="st16" d="M-231.2,431.3C-231.2,431.3-231.2,431.3-231.2,431.3c0-0.2,0-0.2,0-0.3c0-0.2,0.1-0.4,0.2-0.6
					c0,0,0.1,0.1,0.1,0.4c0,0.1,0,0.2-0.1,0.3C-230.9,431.2-231.1,431.3-231.2,431.3z"/>
			</g>
			<g>
				<path class="st16" d="M-245,435.4C-245,435.4-244.9,435.4-245,435.4c0.1,0,0.1,0,0.1,0c0,0,0.1,0,0.1,0c0.1,0,0.3-0.2,0.4-0.3
					c0.1-0.2,0.3-0.4,0.4-0.6c0.1-0.3,0.3-0.5,0.4-0.8c0,0,0,0,0,0.1c0,0,0,0.1,0,0.2c0,0.2,0,0.4-0.1,0.6c-0.1,0.2-0.2,0.5-0.5,0.7
					c-0.1,0.1-0.3,0.2-0.4,0.3C-244.7,435.5-244.8,435.5-245,435.4z"/>
			</g>
			<g>
				<path class="st16" d="M-237.6,434.1c0,0,0-0.1,0-0.1c0-0.1,0-0.2,0.1-0.4c0-0.1,0.1-0.3,0.1-0.5c0-0.2,0.1-0.3,0-0.6
					c0,0,0,0,0.1,0.1c0.1,0.1,0.1,0.2,0.1,0.4C-237,433.4-237.2,433.9-237.6,434.1z"/>
			</g>
			<g>
				<path class="st16" d="M-241.6,431.3c0,0,0.1-0.1,0.3,0c0.1,0,0.2,0.1,0.3,0.2c0.1,0.1,0.1,0.3,0.1,0.4c0,0,0,0-0.1-0.1
					c-0.1,0-0.1-0.1-0.2-0.1c-0.1,0-0.1-0.1-0.2-0.1C-241.4,431.4-241.5,431.4-241.6,431.3z"/>
			</g>
			<g>
				<path class="st16" d="M-254.1,430.9C-254.1,430.9-254.1,430.9-254.1,430.9c0,0.1,0.1,0.2,0.1,0.3c0,0.1,0,0.2,0,0.3
					c0,0.1,0,0.2-0.1,0.3c0,0,0,0-0.1-0.1c0,0-0.1-0.1-0.1-0.2C-254.4,431.3-254.3,431-254.1,430.9z"/>
			</g>
			<g>
				<path class="st16" d="M-252.8,434.3c0,0,0.1-0.3,0.2-0.7c0.1-0.2,0.1-0.4,0.2-0.7c0.1-0.2,0.2-0.5,0.2-0.8c0,0,0,0.1,0,0.2
					c0,0.1,0,0.2,0,0.3c0,0.1,0,0.2,0,0.3C-252.2,433.4-252.4,433.9-252.8,434.3z"/>
			</g>
			<g>
				<path class="st16" d="M-259.9,431.6c0,0,0,0,0-0.1c0,0,0-0.1,0-0.1c0-0.1,0-0.1,0-0.2c0-0.1,0.1-0.3,0.2-0.4
					c0.1-0.1,0.2-0.3,0.4-0.3c0,0,0,0.1,0,0.1c0,0.1-0.1,0.2-0.1,0.3C-259.6,431-259.7,431.3-259.9,431.6z"/>
			</g>
			<g>
				<path class="st16" d="M-259.4,431.8C-259.4,431.8-259.4,431.7-259.4,431.8c0-0.1,0.1-0.2,0.1-0.3c0.1-0.1,0.2-0.3,0.4-0.4
					c0,0,0,0.2,0,0.3C-258.9,431.6-259.1,431.8-259.4,431.8z"/>
			</g>
			<g>
				<path class="st16" d="M-261.3,427.6C-261.3,427.6-261.4,427.5-261.3,427.6c-0.1,0-0.1,0-0.2-0.1c-0.1,0-0.3-0.1-0.4-0.1
					c-0.4,0-0.8,0-1.2,0.4c0,0,0-0.1,0.1-0.2c0.1-0.1,0.2-0.3,0.4-0.4c0.2-0.1,0.5-0.1,0.7-0.1
					C-261.7,427.2-261.5,427.3-261.3,427.6z"/>
			</g>
			<g>
				<path class="st16" d="M-263.5,429.5c0,0-0.2-0.1-0.3-0.3c0-0.1-0.1-0.2,0-0.4c0-0.1,0.1-0.3,0.2-0.4c0,0,0,0.2,0.1,0.4
					c0,0.1,0,0.2,0,0.3C-263.5,429.2-263.5,429.3-263.5,429.5z"/>
			</g>
			<g>
				<path class="st16" d="M-265.4,428C-265.4,428-265.4,427.9-265.4,428c-0.1-0.1-0.1-0.1-0.1-0.2c-0.1-0.1-0.1-0.3-0.1-0.5
					c0-0.2,0.1-0.5,0.2-0.8c0.1-0.1,0.2-0.2,0.3-0.3c0.1-0.1,0.3-0.1,0.5-0.1c0,0-0.1,0-0.2,0.1c-0.1,0.1-0.2,0.2-0.3,0.4
					c-0.1,0.2-0.2,0.4-0.2,0.6C-265.4,427.4-265.4,427.7-265.4,428z"/>
			</g>
			<g>
				<path class="st16" d="M-268.1,419.8c0,0,0.1,0,0.2-0.1c0.1,0,0.3-0.1,0.5-0.1c0.2,0,0.5,0.2,0.6,0.4c0.2,0.2,0.3,0.4,0.4,0.7
					c0,0-0.1,0-0.2-0.1c-0.1-0.1-0.2-0.2-0.4-0.3c-0.2-0.1-0.3-0.2-0.5-0.3C-267.6,419.8-267.8,419.8-268.1,419.8z"/>
			</g>
			<g>
				<path class="st16" d="M-269.1,419.5C-269.1,419.5-269.1,419.5-269.1,419.5c0-0.1,0-0.1,0-0.2c0-0.1,0-0.3,0.1-0.4
					c0.1-0.2,0.2-0.3,0.4-0.4c0.2-0.1,0.5-0.1,0.7,0c0,0-0.1,0-0.2,0.1c-0.1,0-0.2,0.1-0.3,0.2c-0.1,0.1-0.3,0.2-0.4,0.3
					C-268.9,419.1-269,419.3-269.1,419.5z"/>
			</g>
			<g>
				<path class="st16" d="M-265.1,413.6c0,0,0,0,0-0.1c0-0.1-0.1-0.2-0.1-0.3c0-0.1-0.1-0.2-0.1-0.4c-0.1-0.1-0.1-0.2-0.3-0.3
					c0,0,0.1,0,0.1,0c0.1,0,0.3,0,0.4,0.1C-264.9,412.9-264.9,413.3-265.1,413.6z"/>
			</g>
			<g>
				<path class="st16" d="M-263.2,408.8c0,0,0,0,0.1-0.1c0,0,0.1-0.1,0.1-0.1c0,0,0.1-0.1,0.2-0.1c0.1-0.1,0.3-0.1,0.5-0.1
					c0.2,0,0.3,0.2,0.4,0.4c0,0-0.1,0-0.1,0c0,0-0.1,0-0.1,0c0,0,0,0-0.1,0c0,0-0.1,0-0.1,0C-262.6,408.7-262.8,408.7-263.2,408.8z"
					/>
			</g>
			<g>
				<path class="st16" d="M-261.3,409.8C-261.3,409.8-261.3,409.8-261.3,409.8c-0.1-0.1-0.1-0.2-0.1-0.3c0-0.1,0-0.2,0-0.3
					c0-0.1,0-0.2,0.1-0.3c0,0,0,0,0.1,0.1c0,0,0.1,0.1,0.1,0.2C-261,409.4-261.1,409.6-261.3,409.8z"/>
			</g>
		</g>
		<g class="st15">
			<path class="st17" d="M-265.8,412.2c0-0.2-0.2-0.2-0.4-0.1c-0.7,0.5-1.1,1.7-1.4,2.4c-0.4,0.9-0.4,2-0.4,3c0,0.2,0.3,0.3,0.4,0.1
				c0.4-1,0.5-2,0.9-3C-266.3,413.8-265.6,413-265.8,412.2z"/>
			<path class="st17" d="M-262.5,409.2c-0.5-0.1-1.1,0.6-1.5,0.8c-0.5,0.4-1.2,0.7-1.5,1.3c0,0.1,0,0.3,0.2,0.2
				c0.6-0.2,1.1-0.6,1.7-0.9c0.4-0.3,1.3-0.6,1.3-1.2C-262.3,409.2-262.4,409.2-262.5,409.2z"/>
			<path class="st17" d="M-261,408.1c-0.2,0-0.4,0.1-0.4,0.3c0,0.1,0.1,0.2,0.2,0.1c0.1-0.1,0.2-0.1,0.3-0.2
				C-260.9,408.3-260.9,408.1-261,408.1z"/>
			<path class="st17" d="M-266,423.9c-0.2-0.6-0.5-1.1-0.8-1.6c-0.4-0.6-0.5-1.2-0.7-1.8c-0.1-0.2-0.3-0.2-0.4,0
				c-0.2,0.6,0,1.2,0.2,1.8c0.3,0.7,0.6,1.3,1,2C-266.4,424.6-265.9,424.3-266,423.9z"/>
			<path class="st17" d="M-249.6,404.3c-0.9-0.2-1.7,0-2.6,0.2c-1.2,0.2-2.3,0.2-3.4,0.2c-2,0-2.9,1.7-4.4,2.6
				c-0.1,0.1,0,0.3,0.1,0.2c0.7-0.1,1.1-0.4,1.7-0.9c1-0.8,1.6-1.4,3-1.4c0.9,0,1.7,0.1,2.6-0.1c1-0.2,2.1-0.2,3.1-0.5
				C-249.4,404.6-249.4,404.3-249.6,404.3z"/>
			<path class="st17" d="M-246.2,404.2c-0.3-0.3-0.7-0.1-1,0c-0.2,0.1-0.5,0-0.8-0.1c-0.2,0-0.4,0-0.6,0.1c-0.2,0-0.1,0.3,0,0.3
				c0.4,0.1,0.9,0.3,1.4,0.3c0.3,0,0.9,0,1.1-0.3C-246.1,404.4-246.1,404.3-246.2,404.2z"/>
			<path class="st17" d="M-262.8,426.4c-0.1-0.4-0.4-0.7-0.6-0.9c-0.2-0.2-0.6-0.5-0.9-0.4c-0.1,0-0.2,0.2-0.1,0.3
				c0.1,0.1,0.2,0.2,0.3,0.3c0.1,0.1,0.2,0.2,0.3,0.3c0.2,0.2,0.4,0.5,0.6,0.7C-263,426.8-262.7,426.7-262.8,426.4z"/>
			<path class="st17" d="M-255.2,431c-0.7-0.9-2.1-1.3-3.1-1.7c-1-0.5-2-1.4-3.2-1.5c-0.1,0-0.2,0.2-0.1,0.3
				c1.2,0.5,2.2,1.3,3.3,1.9c0.6,0.3,1.3,0.6,1.9,1c0.4,0.2,0.6,0.4,1.1,0.2C-255.2,431.2-255.2,431.1-255.2,431z"/>
			<path class="st17" d="M-251.3,431.8c-0.3-0.3-0.6-0.5-1-0.6c-0.4-0.1-0.9-0.1-1.3,0c-0.2,0.1-0.1,0.4,0.1,0.4
				c0.7,0,1.4,0.5,2.2,0.4C-251.3,432-251.2,431.9-251.3,431.8z"/>
			<path class="st17" d="M-233.6,429.6c-1.4-0.4-2.2,0.6-3.4,1.1c-0.5,0.2-1.2,0.2-1.8,0.3c-0.6,0.1-1,0.5-1.5,0.9
				c-0.8,0.6-1.5,0.3-2.4,0.2c-0.8-0.1-1.6,0.1-2.3,0.2c-1,0.1-1.8,0-2.8-0.2c-0.6-0.2-1.2-0.3-1.8-0.1c-0.3,0.1-0.2,0.5,0,0.5
				c1.4,0.3,2.7,0.7,4.1,0.6c0.8,0,1.5-0.2,2.3-0.3c0.6-0.1,1.3,0.2,1.9,0.1c0.5-0.1,1-0.4,1.4-0.7c0.7-0.5,1.3-0.6,2.2-0.7
				c0.6,0,1.1-0.2,1.6-0.5c0.7-0.5,1.5-0.4,2.3-0.7C-233.3,430.2-233.3,429.7-233.6,429.6z"/>
			<path class="st17" d="M-231.1,428.4c0-0.1-0.2-0.2-0.3-0.2c-0.3,0-0.4,0.2-0.6,0.4c-0.2,0.2-0.4,0.3-0.6,0.4
				c-0.2,0.2-0.1,0.5,0.2,0.5C-231.9,429.5-231,429.1-231.1,428.4z"/>
			<path class="st17" d="M-227.5,424.7c-0.3,0-0.5,0.2-0.8,0.3c-0.3,0.2-0.7,0.3-1,0.5c-0.6,0.4-1.2,1-1.6,1.6
				c-0.1,0.2,0.2,0.5,0.4,0.3c0.6-0.4,1.1-1.1,1.7-1.5c0.5-0.3,1.3-0.4,1.5-1C-227.2,424.9-227.3,424.7-227.5,424.7z"/>
			<path class="st17" d="M-226.4,423.5c0-0.1-0.2-0.2-0.4-0.2c-0.2,0.1-0.3,0.2-0.5,0.3c-0.1,0.1-0.1,0.3,0,0.3
				c0.2,0.1,0.4,0.1,0.7,0C-226.4,423.8-226.3,423.7-226.4,423.5z"/>
			<path class="st17" d="M-226.7,415.4c-0.2-0.2-0.5,0-0.5,0.3c0.4,1.2,1,2.2,1.2,3.5c0.2,1.3-0.3,2.2-0.7,3.4
				c0,0.1,0.1,0.3,0.2,0.2C-224.6,421.2-225.1,417.1-226.7,415.4z"/>
			<path class="st17" d="M-229.5,411.7c-0.2-0.1-0.4,0-0.4,0.3c0,0.6,0.7,0.8,1.1,1.2c0.2,0.2,0.4,0.4,0.5,0.6
				c0.1,0.2,0.2,0.4,0.4,0.6c0.1,0,0.2,0.1,0.2,0C-226.9,413.8-228.9,412-229.5,411.7z"/>
			<path class="st17" d="M-230.4,410.5c-0.1-0.1-0.2-0.1-0.3,0c-0.1,0.1-0.1,0.2-0.1,0.3c0,0.1,0,0.1,0.1,0.2c0,0,0,0,0,0
				c0.1,0.2,0.3,0.1,0.4,0c0,0,0,0,0,0c0,0,0-0.1,0-0.2C-230.3,410.7-230.3,410.6-230.4,410.5z"/>
			<path class="st17" d="M-231.3,409.7c-0.1-0.4-0.5-0.6-0.7-0.9c-0.3-0.3-0.7-0.5-1-0.6c-0.4-0.1-0.5,0.5-0.2,0.7
				c0.3,0.2,0.6,0.4,0.9,0.6c0.3,0.2,0.5,0.5,0.9,0.6C-231.4,410-231.3,409.8-231.3,409.7z"/>
			<path class="st17" d="M-234,408c-0.8-0.9-2.1-1-2.8-2c-0.5-0.8-2-0.4-2.8-0.3c-0.2,0-0.3,0.3-0.1,0.5c0.4,0.2,0.7,0.2,1.1,0.2
				c0.4,0,0.9-0.2,1.2,0.3c0.1,0.2,0.2,0.3,0.4,0.5c0.3,0.3,0.9,0.4,1.2,0.6c0.5,0.3,1,0.5,1.5,0.7C-234,408.4-233.9,408.1-234,408z
				"/>
			<path class="st17" d="M-240.7,405.7c-0.6-0.2-1.4-0.1-2.1-0.2c-0.7-0.1-1.4-0.7-2.1-0.4c-0.1,0-0.1,0.1,0,0.1
				c0.5,0.5,1.4,0.7,2,0.9c0.6,0.2,1.6,0.2,2.2,0C-240.6,406-240.5,405.7-240.7,405.7z"/>
		</g>
		<g class="st15">
			<g>
				<path class="st18" d="M-261.8,407.6C-261.8,407.6-261.8,407.6-261.8,407.6c0.1-0.1,0.1-0.1,0.2-0.1c0.1-0.1,0.4-0.1,0.7,0
					c0.3,0.1,0.6,0.2,0.8,0.5c0.1,0.1,0.2,0.3,0.3,0.4c0.1,0.2,0.1,0.4,0.1,0.5c0,0,0,0,0-0.1c0,0,0,0,0-0.1c0,0,0-0.1-0.1-0.1
					c-0.1-0.1-0.2-0.3-0.4-0.5c-0.2-0.2-0.4-0.3-0.7-0.4c-0.1-0.1-0.3-0.1-0.4-0.1C-261.5,407.6-261.7,407.6-261.8,407.6z"/>
			</g>
			<g>
				<path class="st18" d="M-245,404.3c0,0,0,0,0,0.1c0,0.1,0,0.2,0,0.3c0,0.3,0,0.6-0.1,1c0,0,0,0-0.1-0.1c0-0.1-0.1-0.2-0.1-0.4
					c0-0.2,0-0.3,0-0.5c0-0.1,0.1-0.2,0.1-0.3C-245.1,404.4-245.1,404.3-245,404.3z"/>
			</g>
			<g>
				<path class="st18" d="M-231.3,411.2C-231.3,411.2-231.4,411.2-231.3,411.2c0-0.1-0.1-0.1-0.1-0.1c0,0,0-0.1,0-0.1
					c0-0.2,0-0.4,0.1-0.7c0.1-0.3,0.3-0.5,0.6-0.7c0.1-0.1,0.3-0.2,0.5-0.2c0.2,0,0.4,0,0.5,0.1c0,0,0,0-0.1,0c0,0-0.1,0-0.1,0
					c0,0-0.1,0-0.1,0c-0.2,0-0.3,0.1-0.5,0.3c-0.2,0.2-0.4,0.4-0.5,0.6C-231.2,410.6-231.3,410.9-231.3,411.2z"/>
			</g>
			<g>
				<path class="st18" d="M-231.5,427.6C-231.5,427.6-231.5,427.6-231.5,427.6c0.1,0,0.2,0,0.3,0c0.2,0,0.5,0.1,0.8,0.3
					c0.3,0.2,0.6,0.5,0.8,0.9c0.1,0.2,0.2,0.4,0.2,0.6c0,0.2,0,0.5-0.1,0.7c0,0,0,0,0-0.1c0-0.1,0-0.1,0-0.2c0-0.2-0.1-0.5-0.3-0.7
					c-0.2-0.3-0.4-0.6-0.7-0.8C-230.8,427.8-231.2,427.6-231.5,427.6z"/>
			</g>
			<g>
				<path class="st18" d="M-251,434.4c0,0,0.1,0,0.2-0.2c0.1-0.1,0.2-0.4,0.2-0.6c0.1-0.3,0.2-0.6,0.2-0.9c0-0.2,0.1-0.4,0.1-0.5
					c0-0.2,0-0.4-0.1-0.5c0,0,0,0,0.1,0c0,0,0.1,0.1,0.1,0.2c0.1,0.2,0.2,0.5,0.1,0.8c0,0.3-0.1,0.7-0.2,1c-0.1,0.2-0.2,0.3-0.3,0.5
					c-0.1,0.1-0.1,0.1-0.2,0.2C-250.8,434.4-250.9,434.4-251,434.4z"/>
			</g>
			<g>
				<path class="st18" d="M-266.4,426C-266.4,426-266.4,426-266.4,426c0-0.1,0-0.2,0-0.3c0-0.2,0.1-0.4,0.3-0.6
					c0.2-0.2,0.5-0.4,0.8-0.5c0.2,0,0.4-0.1,0.5,0c0.2,0,0.4,0.1,0.5,0.2c0,0,0,0-0.1,0c0,0-0.1,0-0.2,0c-0.2,0-0.4,0.1-0.6,0.1
					c-0.2,0.1-0.5,0.2-0.7,0.4C-266.1,425.5-266.3,425.7-266.4,426z"/>
			</g>
		</g>
	</g>
</g>
</svg>
